/* XPM */
static char *result[] = {
/* columns rows colors chars-per-pixel */
"64 64 17 1 ",
"  c #140B13",
". c #150B13",
"X c gray7",
"o c #231600",
"O c #3B1F26",
"+ c #311E29",
"@ c gray15",
"# c gray24",
"$ c #5D3C2D",
"% c #482C34",
"& c #713F27",
"* c #626461",
"= c #8A5942",
"- c #1544C2",
"; c #1954F1",
": c #B1B1B1",
"> c gainsboro",
/* pixels */
"oo==$$$$$$$$$$XX$$$$$$$$$$$$oo$$$$$$$$oo==XX==================&&",
"oo==$$$$$$$$$$XX$$$$$$$$$$$$oo$$$$$$$$oo==XX==================&&",
"&&oo==$$$$$$$$XXXX$$$$$$==oo&&$$$$$$$$$$XXXX====================",
"&&oo==$$$$$$$$XXXX$$$$$$==oo&&$$$$$$$$$$XXXX====================",
"==&&oo==$$$$$$XX@@XX$$==XXXXXXXXXX$$$$XX@@XX====================",
"==&&oo==$$$$$$XX@@XX$$==XXXXXXXXXX$$$$XX@@XX====================",
"====&&oo==$$$$XX@@@@XXXX##########XXXX@@@@XXoo==================",
"====&&oo==$$$$XX@@@@XXXX##########XXXX@@@@XXoo==================",
"======&&oo$$$$XX@@######################@@XX$$oo================",
"======&&oo$$$$XX@@######################@@XX$$oo================",
"========&&oo$$XX##########################XX$$$$oo==============",
"========&&oo$$XX##########################XX$$$$oo==============",
"==========&&XX######::;;##########;;::######XX$$$$oo============",
"==========&&XX######::;;##########;;::######XX$$$$oo============",
"==========XX########>>--##########-->>########XX$$$$oo&&========",
"==========XX########>>--##########-->>########XX$$$$oo&&========",
"==========XX########>>--##########-->>########XX$$$$$$oo&&======",
"==========XX########>>--##########-->>########XX$$$$$$oo&&======",
"==========XX##################################XX$$$$$$$$oo&&====",
"==========XX##################################XX$$$$$$$$oo&&====",
"==========XX##################################XX$$$$$$$$$$oo&&==",
"==========XX##################################XX$$$$$$$$$$oo&&==",
"==========XX################**################XX$$$$$$$$$$$$oo&&",
"==========XX################**################XX$$$$$$$$$$$$oo&&",
"&&======&&ooXX############**##**############XX$$$$XXXX$$$$$$$$oo",
"&&======&&ooXX############**##**############XX$$$$XXXX$$$$$$$$oo",
"oo&&====oo==$$XXXX######################XXXX$$$$XX####XX$$$$$$$$",
"oo&&====oo==$$XXXX######################XXXX$$$$XX####XX$$$$$$$$",
"$$oo&&oo==$$XX@@@@XXXXXX##########XXXXXX@@@@XX$$$$XX####XX$$$$$$",
"$$oo&&oo==$$XX@@@@XXXXXX##########XXXXXX@@@@XX$$$$XX####XX$$$$$$",
"$$$$oo==$$XX@@@@@@@@@@@@@@@@@@@@@@@@@@@@@@@@@@XX$$$$XX####XX$$$$",
"$$$$oo==$$XX@@@@@@@@@@@@@@@@@@@@@@@@@@@@@@@@@@XX$$$$XX####XX$$$$",
"$$$$==oo$$XX@@@@@@@@####################@@@@@@XX$$$$$$XX@@XX$$$$",
"$$$$==oo$$XX@@@@@@@@####################@@@@@@XX$$$$$$XX@@XX$$$$",
"$$$$$$==XX@@####################################XX$$$$XX@@XX$$$$",
"$$$$$$==XX@@####################################XX$$$$XX@@XX$$$$",
"$$$$$$$$XX##################################XX##XX$$$$XX@@XX$$$$",
"$$$$$$$$XX##################################XX##XX$$$$XX@@XX$$$$",
"$$$$$$XX####XX##############################XX####XX$$XX@@XX$$$$",
"$$$$$$XX####XX##############################XX####XX$$XX@@XX$$$$",
"$$$$$$XX####XX##############################XX####XX$$XX@@XX$$$$",
"$$$$$$XX####XX##############################XX####XX$$XX@@XX$$$$",
"$$$$XX######XX######XX##############XX######XX######XXXX@@XX$$$$",
"$$$$XX######XX######XX##############XX######XX######XXXX@@XX$$$$",
"$$$$XX######XX######XX@@##########@@XX######XX######XXXX@@XX$$$$",
"$$$$XX######XX######XX@@##########@@XX######XX######XXXX@@XX$$$$",
"$$$$XX######XX####XX@@@@@@@@@@@@@@@@@@XX####XX######XX@@@@XX$$$$",
"$$$$XX######XX####XX@@@@@@@@@@@@@@@@@@XX####XX######XX@@@@XX$$$$",
"$$$$XX######XX####XX@@@@@@@@@@@@@@@@@@XX####XX######XX@@XX$$$$$$",
"$$$$XX######XX####XX@@@@@@@@@@@@@@@@@@XX####XX######XX@@XX$$$$$$",
"$$$$XX@@@@##XX####XX@@@@@@@@@@@@@@@@@@XX####XX##@@@@XXXX$$$$$$$$",
"$$$$XX@@@@##XX####XX@@@@@@@@@@@@@@@@@@XX####XX##@@@@XXXX$$$$$$$$",
"$$$$..XX@@@@XX####XX@@@@@@@@@@@@@@@@@@XX####XX@@@@XX  ++$$$$$$$$",
"$$$$..XX@@@@XX####XX@@@@@@@@@@@@@@@@@@XX####XX@@@@XX  ++$$$$$$$$",
"$$$$++++XXXXXX####XX@@@@@@@@@@@@@@@@@@XX####XXXXXX%%%%  %%$$$$$$",
"$$$$++++XXXXXX####XX@@@@@@@@@@@@@@@@@@XX####XXXXXX%%%%  %%$$$$$$",
"$$$$++++++++XX####XXXXXXXXXXXXXXXXXXXXXX####XX%%%%%%%%OO  ==$$$$",
"$$$$++++++++XX####XXXXXXXXXXXXXXXXXXXXXX####XX%%%%%%%%OO  ==$$$$",
"$$$$$$++++++XX####XX++++++++++++  ++  XX####XX%%%%%%%%%%&&oo==$$",
"$$$$$$++++++XX####XX++++++++++++  ++  XX####XX%%%%%%%%%%&&oo==$$",
"$$$$$$$$$$$$$$XXXX++++++++++++++    OO%%XXXX%%%%==========&&oo==",
"$$$$$$$$$$$$$$XXXX++++++++++++++    OO%%XXXX%%%%==========&&oo==",
"==$$$$$$$$$$$$$$$$$$$$$$$$$$$$oo$$$$oo&&====================&&oo",
"==$$$$$$$$$$$$$$$$$$$$$$$$$$$$oo$$$$oo&&====================&&oo"
};
