/* XPM */
static char *result[] = {
/* columns rows colors chars-per-pixel */
"64 64 11 1 ",
"  c #150B13",
". c gray7",
"X c #060026",
"o c gray15",
"O c gray24",
"+ c #626461",
"@ c #1544C2",
"# c #1954F1",
"$ c #B1B1B1",
"% c gainsboro",
"& c None",
/* pixels */
"&&&&&&&&&&&&&&..&&&&&&&&&&&&&&&&&&&&&&&&&&..&&&&&&&&&&&&&&&&&&&&",
"&&&&&&&&&&&&&&..&&&&&&&&&&&&&&&&&&&&&&&&&&..&&&&&&&&&&&&&&&&&&&&",
"&&&&&&&&&&&&&&....&&&&&&&&&&&&&&&&&&&&&&....&&&&&&&&&&&&&&&&&&&&",
"&&&&&&&&&&&&&&....&&&&&&&&&&&&&&&&&&&&&&....&&&&&&&&&&&&&&&&&&&&",
"&&&&&&&&&&&&&&..oo..&&&&..........&&&&..oo..&&&&&&&&&&&&&&&&&&&&",
"&&&&&&&&&&&&&&..oo..&&&&..........&&&&..oo..&&&&&&&&&&&&&&&&&&&&",
"&&&&&&&&&&&&&&..oooo....OOOOOOOOOO....oooo..&&&&&&&&&&&&&&&&&&&&",
"&&&&&&&&&&&&&&..oooo....OOOOOOOOOO....oooo..&&&&&&&&&&&&&&&&&&&&",
"&&&&&&&&&&&&&&..ooOOOOOOOOOOOOOOOOOOOOOOoo..&&&&&&&&&&&&&&&&&&&&",
"&&&&&&&&&&&&&&..ooOOOOOOOOOOOOOOOOOOOOOOoo..&&&&&&&&&&&&&&&&&&&&",
"&&&&&&&&&&&&&&..OOOOOOOOOOOOOOOOOOOOOOOOOO..&&&&&&&&&&&&&&&&&&&&",
"&&&&&&&&&&&&&&..OOOOOOOOOOOOOOOOOOOOOOOOOO..&&&&&&&&&&&&&&&&&&&&",
"&&&&&&&&&&&&..OOOOOO$$##OOOOOOOOOO##$$OOOOOO..&&&&&&&&&&&&&&&&&&",
"&&&&&&&&&&&&..OOOOOO$$##OOOOOOOOOO##$$OOOOOO..&&&&&&&&&&&&&&&&&&",
"&&&&&&&&&&..OOOOOOOO%%@@OOOOOOOOOO@@%%OOOOOOOO..&&&&&&&&&&&&&&&&",
"&&&&&&&&&&..OOOOOOOO%%@@OOOOOOOOOO@@%%OOOOOOOO..&&&&&&&&&&&&&&&&",
"&&&&&&&&&&..OOOOOOOO%%@@OOOOOOOOOO@@%%OOOOOOOO..&&&&&&&&&&&&&&&&",
"&&&&&&&&&&..OOOOOOOO%%@@OOOOOOOOOO@@%%OOOOOOOO..&&&&&&&&&&&&&&&&",
"&&&&&&&&&&..OOOOOOOOOOOOOOOOOOOOOOOOOOOOOOOOOO..&&&&&&&&&&&&&&&&",
"&&&&&&&&&&..OOOOOOOOOOOOOOOOOOOOOOOOOOOOOOOOOO..&&&&&&&&&&&&&&&&",
"&&&&&&&&&&..OOOOOOOOOOOOOOOOOOOOOOOOOOOOOOOOOO..&&&&&&&&&&&&&&&&",
"&&&&&&&&&&..OOOOOOOOOOOOOOOOOOOOOOOOOOOOOOOOOO..&&&&&&&&&&&&&&&&",
"&&&&&&&&&&..OOOOOOOOOOOOOOOO++OOOOOOOOOOOOOOOO..&&&&&&&&&&&&&&&&",
"&&&&&&&&&&..OOOOOOOOOOOOOOOO++OOOOOOOOOOOOOOOO..&&&&&&&&&&&&&&&&",
"&&&&&&&&&&&&..OOOOOOOOOOOO++OO++OOOOOOOOOOOO..&&&&....&&&&&&&&&&",
"&&&&&&&&&&&&..OOOOOOOOOOOO++OO++OOOOOOOOOOOO..&&&&....&&&&&&&&&&",
"&&&&&&&&&&&&&&....OOOOOOOOOOOOOOOOOOOOOO....&&&&..OOOO..&&&&&&&&",
"&&&&&&&&&&&&&&....OOOOOOOOOOOOOOOOOOOOOO....&&&&..OOOO..&&&&&&&&",
"&&&&&&&&&&&&..oooo......OOOOOOOOOO......oooo..&&&&..OOOO..&&&&&&",
"&&&&&&&&&&&&..oooo......OOOOOOOOOO......oooo..&&&&..OOOO..&&&&&&",
"&&&&&&&&&&..oooooooooooooooooooooooooooooooooo..&&&&..OOOO..&&&&",
"&&&&&&&&&&..oooooooooooooooooooooooooooooooooo..&&&&..OOOO..&&&&",
"&&&&&&&&&&..ooooooooOOOOOOOOOOOOOOOOOOOOoooooo..&&&&&&..oo..&&&&",
"&&&&&&&&&&..ooooooooOOOOOOOOOOOOOOOOOOOOoooooo..&&&&&&..oo..&&&&",
"&&&&&&&&..ooOOOOOOOOOOOOOOOOOOOOOOOOOOOOOOOOOOOO..&&&&..oo..&&&&",
"&&&&&&&&..ooOOOOOOOOOOOOOOOOOOOOOOOOOOOOOOOOOOOO..&&&&..oo..&&&&",
"&&&&&&&&..OOOOOOOOOOOOOOOOOOOOOOOOOOOOOOOOOO..OO..&&&&..oo..&&&&",
"&&&&&&&&..OOOOOOOOOOOOOOOOOOOOOOOOOOOOOOOOOO..OO..&&&&..oo..&&&&",
"&&&&&&..OOOO..OOOOOOOOOOOOOOOOOOOOOOOOOOOOOO..OOOO..&&..oo..&&&&",
"&&&&&&..OOOO..OOOOOOOOOOOOOOOOOOOOOOOOOOOOOO..OOOO..&&..oo..&&&&",
"&&&&&&..OOOO..OOOOOOOOOOOOOOOOOOOOOOOOOOOOOO..OOOO..&&..oo..&&&&",
"&&&&&&..OOOO..OOOOOOOOOOOOOOOOOOOOOOOOOOOOOO..OOOO..&&..oo..&&&&",
"&&&&..OOOOOO..OOOOOO..OOOOOOOOOOOOOO..OOOOOO..OOOOOO....oo..&&&&",
"&&&&..OOOOOO..OOOOOO..OOOOOOOOOOOOOO..OOOOOO..OOOOOO....oo..&&&&",
"&&&&..OOOOOO..OOOOOO..ooOOOOOOOOOOoo..OOOOOO..OOOOOO....oo..&&&&",
"&&&&..OOOOOO..OOOOOO..ooOOOOOOOOOOoo..OOOOOO..OOOOOO....oo..&&&&",
"&&&&..OOOOOO..OOOO..oooooooooooooooooo..OOOO..OOOOOO..oooo..&&&&",
"&&&&..OOOOOO..OOOO..oooooooooooooooooo..OOOO..OOOOOO..oooo..&&&&",
"&&&&..OOOOOO..OOOO..oooooooooooooooooo..OOOO..OOOOOO..oo..&&&&&&",
"&&&&..OOOOOO..OOOO..oooooooooooooooooo..OOOO..OOOOOO..oo..&&&&&&",
"&&&&..ooooOO..OOOO..oooooooooooooooooo..OOOO..OOoooo....&&&&&&&&",
"&&&&..ooooOO..OOOO..oooooooooooooooooo..OOOO..OOoooo....&&&&&&&&",
"&&&&  ..oooo..OOOO..oooooooooooooooooo..OOOO..oooo..XXXX&&&&&&&&",
"&&&&  ..oooo..OOOO..oooooooooooooooooo..OOOO..oooo..XXXX&&&&&&&&",
"&&&&XXXX......OOOO..oooooooooooooooooo..OOOO......XXXXXXXX&&&&&&",
"&&&&XXXX......OOOO..oooooooooooooooooo..OOOO......XXXXXXXX&&&&&&",
"&&&&XXXXXXXX..OOOO......................OOOO..XXXXXXXXXXXX&&&&&&",
"&&&&XXXXXXXX..OOOO......................OOOO..XXXXXXXXXXXX&&&&&&",
"&&&&&&XXXXXX..OOOO..XXXXXXXXXXXXXXXXXX..OOOO..XXXXXXXXXX&&&&&&&&",
"&&&&&&XXXXXX..OOOO..XXXXXXXXXXXXXXXXXX..OOOO..XXXXXXXXXX&&&&&&&&",
"&&&&&&&&&&&&&&....XXXXXXXXXXXXXXXXXXXXXX....XXXX&&&&&&&&&&&&&&&&",
"&&&&&&&&&&&&&&....XXXXXXXXXXXXXXXXXXXXXX....XXXX&&&&&&&&&&&&&&&&",
"&&&&&&&&&&&&&&&&&&&&&&&&&&&&&&&&&&&&&&&&&&&&&&&&&&&&&&&&&&&&&&&&",
"&&&&&&&&&&&&&&&&&&&&&&&&&&&&&&&&&&&&&&&&&&&&&&&&&&&&&&&&&&&&&&&&"
};
