/* XPM */
static char *result[] = {
/* columns rows colors chars-per-pixel */
"64 64 3 1 ",
"  c #3B1909",
". c #95431B",
"X c #8E5A42",
/* pixels */
"                                                                ",
"                                                                ",
"............    ..........................    ..................",
"............    ..........................    ..................",
"XXXX........    ......XXXX......XXXX......    ..........XXXXXX..",
"XXXX........    ......XXXX......XXXX......    ..........XXXXXX..",
"....XXXX....    ..........................    ..................",
"....XXXX....    ..........................    ..................",
"............    ..................XX......    ......XXXX........",
"............    ..................XX......    ......XXXX........",
"XXXXXXXXXXXX    XXXXXXXXXXXXXXXX..........    ..................",
"XXXXXXXXXXXX    XXXXXXXXXXXXXXXX..........    ..................",
"                                XXXXXXXXXX    XXXXXXXXXXXXXXXXXX",
"                                XXXXXXXXXX    XXXXXXXXXXXXXXXXXX",
"                                                                ",
"                                                                ",
"  ............................                                  ",
"  ............................                                  ",
"  ........XXXXXX..............    ............................  ",
"  ........XXXXXX..............    ............................  ",
"  ......................XX....    ..........XXXXXX............  ",
"  ......................XX....    ..........XXXXXX............  ",
"  XXXXXXXXXXXXXXXXXX..........    ......................XXXXXX  ",
"  XXXXXXXXXXXXXXXXXX..........    ......................XXXXXX  ",
"                    XXXXXXXXXX    XXXXXXXXXXXXXXXXXXXXXX        ",
"                    XXXXXXXXXX    XXXXXXXXXXXXXXXXXXXXXX        ",
"                                                                ",
"                                                                ",
"..XX..............                                        ......",
"..XX..............                                        ......",
"....XX............    ..................XXXX..........    ......",
"....XX............    ..................XXXX..........    ......",
"XX......XXXX......    ............................XXXX    ..XX..",
"XX......XXXX......    ............................XXXX    ..XX..",
"..XX..............    ....XX..........................    ......",
"..XX..............    ....XX..........................    ......",
"XXXXXXXXXXXXXXXXXX    XXXXXXXXXXXXXXXXXXXXXXXXXXXXXXXX    XXXXXX",
"XXXXXXXXXXXXXXXXXX    XXXXXXXXXXXXXXXXXXXXXXXXXXXXXXXX    XXXXXX",
"                                                                ",
"                                                                ",
"                                                                ",
"                                                                ",
"  ............................    ..XX........................  ",
"  ............................    ..XX........................  ",
"  ......XXXXXX......XX........    ............................  ",
"  ......XXXXXX......XX........    ............................  ",
"  ............................    XXXXXXXXXXXXXXXXXXXXXXXXXXXX  ",
"  ............................    XXXXXXXXXXXXXXXXXXXXXXXXXXXX  ",
"  XXXXXXXXXXXXXXXXXXXXXXXXXXXX                                  ",
"  XXXXXXXXXXXXXXXXXXXXXXXXXXXX                                  ",
"                                                                ",
"                                                                ",
"                                ........................        ",
"                                ........................        ",
"............    ..................XXXXXX................    ....",
"............    ..................XXXXXX................    ....",
"..XXXX......    ......XXXX....XX..............XXXXXX....    ....",
"..XXXX......    ......XXXX....XX..............XXXXXX....    ....",
"............    ........................................    ....",
"............    ........................................    ....",
"XXXXXXXXXXXX    XXXXXXXXXXXXXXXXXXXXXXXXXXXXXXXXXXXXXXXX    XXXX",
"XXXXXXXXXXXX    XXXXXXXXXXXXXXXXXXXXXXXXXXXXXXXXXXXXXXXX    XXXX",
"                                                                ",
"                                                                "
};
