/* XPM */
static char *d56e381c99cf4aca8084121103a0a5f6wqPApDE2RS9LstWe[] = {
/* columns rows colors chars-per-pixel */
"64 64 11 1 ",
"  c #150B13",
". c gray7",
"X c #231600",
"o c #3B1F26",
"O c #311E29",
"+ c gray15",
"@ c gray24",
"# c #5D3C2D",
"$ c #482C34",
"% c #713F27",
"& c #8A5942",
/* pixels */
"XX&&##########..############XX########XX&&..&&&&&&&&&&&&&&&&&&%%",
"XX&&##########..############XX########XX&&..&&&&&&&&&&&&&&&&&&%%",
"%%XX&&########....######&&XX%%##########....&&&&&&&&&&&&&&&&&&&&",
"%%XX&&########....######&&XX%%##########....&&&&&&&&&&&&&&&&&&&&",
"&&%%XX&&######..@@..##&&..........####..@@..&&&&&&&&&&&&&&&&&&&&",
"&&%%XX&&######..@@..##&&..........####..@@..&&&&&&&&&&&&&&&&&&&&",
"&&&&%%XX&&####..@@@@....@@@@@@@@@@....@@@@..XX&&&&&&&&&&&&&&&&&&",
"&&&&%%XX&&####..@@@@....@@@@@@@@@@....@@@@..XX&&&&&&&&&&&&&&&&&&",
"&&&&&&%%XX####..@@@@@@@@@@@@@@@@@@@@@@@@@@..##XX&&&&&&&&&&&&&&&&",
"&&&&&&%%XX####..@@@@@@@@@@@@@@@@@@@@@@@@@@..##XX&&&&&&&&&&&&&&&&",
"&&&&&&&&%%XX##..@@@@@@@@@@@@@@@@@@@@@@@@@@..####XX&&&&&&&&&&&&&&",
"&&&&&&&&%%XX##..@@@@@@@@@@@@@@@@@@@@@@@@@@..####XX&&&&&&&&&&&&&&",
"&&&&&&&&&&%%..@@@@@@@@@@@@@@@@@@@@@@@@@@@@@@..####XX&&&&&&&&&&&&",
"&&&&&&&&&&%%..@@@@@@@@@@@@@@@@@@@@@@@@@@@@@@..####XX&&&&&&&&&&&&",
"&&&&&&&&&&..@@@@@@@@@@@@@@@@@@@@@@@@@@@@@@@@@@..####XX%%&&&&&&&&",
"&&&&&&&&&&..@@@@@@@@@@@@@@@@@@@@@@@@@@@@@@@@@@..####XX%%&&&&&&&&",
"&&&&&&&&&&..@@@@@@@@@@@@@@@@@@@@@@@@@@@@@@@@@@..######XX%%&&&&&&",
"&&&&&&&&&&..@@@@@@@@@@@@@@@@@@@@@@@@@@@@@@@@@@..######XX%%&&&&&&",
"&&&&&&&&&&..@@@@@@@@@@@@@@@@@@@@@@@@@@@@@@@@@@..########XX%%&&&&",
"&&&&&&&&&&..@@@@@@@@@@@@@@@@@@@@@@@@@@@@@@@@@@..########XX%%&&&&",
"&&&&&&&&&&..@@@@@@@@@@@@@@@@@@@@@@@@@@@@@@@@@@..##########XX%%&&",
"&&&&&&&&&&..@@@@@@@@@@@@@@@@@@@@@@@@@@@@@@@@@@..##########XX%%&&",
"&&&&&&&&&&..@@@@@@@@@@@@@@@@@@@@@@@@@@@@@@@@++..############XX%%",
"&&&&&&&&&&..@@@@@@@@@@@@@@@@@@@@@@@@@@@@@@@@++..############XX%%",
"%%&&&&&&%%XX..++++@@@@@@@@@@@@@@@@@@@@@@++++..################XX",
"%%&&&&&&%%XX..++++@@@@@@@@@@@@@@@@@@@@@@++++..################XX",
"XX%%&&&&XX&&##....++++++@@@@@@@@@@@@++++....####################",
"XX%%&&&&XX&&##....++++++@@@@@@@@@@@@++++....####################",
"##XX%%XX&&##..++++......@@@@@@....++++++++++..##################",
"##XX%%XX&&##..++++......@@@@@@....++++++++++..##################",
"####XX&&##..++++++++++++@@@@..@@@@..@@@@++++++..################",
"####XX&&##..++++++++++++@@@@..@@@@..@@@@++++++..################",
"####&&XX##..++++++++@@@@@@@@++..@@@@..@@++++++..################",
"####&&XX##..++++++++@@@@@@@@++..@@@@..@@++++++..################",
"######&&..++@@@@@@@@@@@@@@@@@@++..@@@@..@@@@@@@@..##############",
"######&&..++@@@@@@@@@@@@@@@@@@++..@@@@..@@@@@@@@..##############",
"########..@@@@@@@@@@@@@@@@@@@@@@++..@@..@@@@@@@@..##############",
"########..@@@@@@@@@@@@@@@@@@@@@@++..@@..@@@@@@@@..##############",
"######..@@@@@@@@@@@@@@@@@@@@@@@@++..@@..@@@@@@@@@@..############",
"######..@@@@@@@@@@@@@@@@@@@@@@@@++..@@..@@@@@@@@@@..############",
"######..@@@@@@@@@@@@@@@@@@@@@@@@@@..@@..@@@@@@@@@@..############",
"######..@@@@@@@@@@@@@@@@@@@@@@@@@@..@@..@@@@@@@@@@..############",
"####..++@@@@@@@@@@@@@@@@@@@@@@@@@@..@@..@@@@@@@@@@@@..##########",
"####..++@@@@@@@@@@@@@@@@@@@@@@@@@@..@@..@@@@@@@@@@@@..##########",
"####..++@@@@@@@@@@@@@@@@@@@@@@@@@@..@@..@@@@@@@@@@@@..##########",
"####..++@@@@@@@@@@@@@@@@@@@@@@@@@@..@@..@@@@@@@@@@@@..##########",
"####..++@@@@@@@@@@@@@@@@@@@@@@@@@@..@@..@@@@@@@@@@@@..##########",
"####..++@@@@@@@@@@@@@@@@@@@@@@@@@@..@@..@@@@@@@@@@@@..##########",
"####..++@@@@@@@@@@@@@@@@@@@@@@@@....++..@@@@@@@@@@++..##########",
"####..++@@@@@@@@@@@@@@@@@@@@@@@@....++..@@@@@@@@@@++..##########",
"####..++++@@@@@@@@@@@@@@@@@@@@@@++++++..@@@@@@@@++++..##########",
"####..++++@@@@@@@@@@@@@@@@@@@@@@++++++..@@@@@@@@++++..##########",
"####  ..++++@@@@@@@@@@@@@@@@@@@@++++++++@@@@++++++..  OO########",
"####  ..++++@@@@@@@@@@@@@@@@@@@@++++++++@@@@++++++..  OO########",
"####OOOO....++++++++++++++++++++++++++++++++......$$$$  $$######",
"####OOOO....++++++++++++++++++++++++++++++++......$$$$  $$######",
"####OOOOOOOO..................................$$$$$$$$oo  &&####",
"####OOOOOOOO..................................$$$$$$$$oo  &&####",
"######OOOOOO..++++..OOOOOOOOOOOO  OO  ..@@@@..$$$$$$$$$$%%XX&&##",
"######OOOOOO..++++..OOOOOOOOOOOO  OO  ..@@@@..$$$$$$$$$$%%XX&&##",
"##############....OOOOOOOOOOOOOO    oo$$....$$$$&&&&&&&&&&%%XX&&",
"##############....OOOOOOOOOOOOOO    oo$$....$$$$&&&&&&&&&&%%XX&&",
"&&############################XX####XX%%&&&&&&&&&&&&&&&&&&&&%%XX",
"&&############################XX####XX%%&&&&&&&&&&&&&&&&&&&&%%XX"
};
