/* XPM */
static char *result[] = {
/* columns rows colors chars-per-pixel */
"128 128 24 1 ",
"  c black",
". c #1E090A",
"X c #14141A",
"o c #231600",
"O c #35181D",
"+ c #3D1A1B",
"@ c #1C1C33",
"# c #330023",
"$ c gray15",
"% c #40003C",
"& c #472426",
"* c #5D3C2D",
"= c #713F27",
"- c #303059",
"; c #3F3F74",
": c #8A5942",
"> c #76428A",
", c #FF00AF",
"< c #B3669A",
"1 c #D77BBA",
"2 c #8F8FB3",
"3 c #B8B8E6",
"4 c #CCCCFF",
"5 c white",
/* pixels */
"oooo::::************************************************oooo****************oooo::::::::::::::::::::::::::::::::::::::::::::====",
"oooo::::************************************************oooo****************oooo::::::::::::::::::::::::::::::::::::::::::::====",
"oooo::::************************************************oooo****************oooo::::::::::::::::::::::::::::::::::::::::::::====",
"oooo::::************************************************oooo****************oooo::::::::::::::::::::::::::::::::::::::::::::====",
"====oooo::::************************************::::oooo====********************oooo::::::::::::::::::::::::::::::::::::::::::::",
"====oooo::::************************************::::oooo====********************oooo::::::::::::::::::::::::::::::::::::::::::::",
"====oooo::::************************************::::oooo====********************oooo::::::::::::::::::::::::::::::::::::::::::::",
"====oooo::::************************************::::oooo====********************oooo::::::::::::::::::::::::::::::::::::::::::::",
"::::====oooo::::****************************::::oooo====****************************oooo::::::::::::::::::::::::::::::::::::::::",
"::::====oooo::::****************************::::oooo====****************************oooo::::::::::::::::::::::::::::::::::::::::",
"::::====oooo::::****************************::::oooo====****************************oooo::::::::::::::::::::::::::::::::::::::::",
"::::====oooo::::****************************::::oooo====****************************oooo::::::::::::::::::::::::::::::::::::::::",
"::::::::====oooo::::********************::::oooo====************************************oooo::::::::::::::::::::::::::::::::::::",
"::::::::====oooo::::********************::::oooo====************************************oooo::::::::::::::::::::::::::::::::::::",
"::::::::====oooo::::********************::::oooo====************************************oooo::::::::::::::::::::::::::::::::::::",
"::::::::====oooo::::********************::::oooo====************************************oooo::::::::::::::::::::::::::::::::::::",
"::::::::::::====oooo****************:@@@@@@@@@@@@@@@@@@*************************************oooo::::::::::::::::::::::::::::::::",
"::::::::::::====oooo****************:@@@@@@@@@@@@@@@@@@*************************************oooo::::::::::::::::::::::::::::::::",
"::::::::::::====oooo***************@@--------;;;;;;;;;;@@@@@@@@@@@@@@@@*********************oooo::::::::::::::::::::::::::::::::",
"::::::::::::====oooo***************@@--------;;;;;;;;;;@@@@@@@@@@@@@@@@*********************oooo::::::::::::::::::::::::::::::::",
"::::::::::::::::====oooo*********@@------------;;;;;;;;;;;;;;;;;;;;;;;;@@***********************oooo::::::::::::::::::::::::::::",
"::::::::::::::::====oooo*********@@------------;;;;;;;;;;;;;;;;;;;;;;;;@@***********************oooo::::::::::::::::::::::::::::",
"::::::::::::::::====oooo*****@@@@--------------;;;;;;;;;;;;;;;;;;;;;;;;;;@@*********************oooo::::::::::::::::::::::::::::",
"::::::::::::::::====oooo*****@@@@--------------;;;;;;;;;;;;;;;;;;;;;;;;;;@@*********************oooo::::::::::::::::::::::::::::",
"::::::::::::::::::::====ooo@@***o@@@@@@@@@@----------;;;;;;;;;;;;;;;;;;;;;;@@***********************oooo::::::::::::::::::::::::",
"::::::::::::::::::::====ooo@@***o@@@@@@@@@@----------;;;;;;;;;;;;;;;;;;;;;;@@***********************oooo::::::::::::::::::::::::",
"::::::::::::::::::::====ooo@@***oooo====***@@@@@@@@@@--;;;;;;;;;;;;;;;;;;;;;;@@*********************oooo::::::::::::::::::::::::",
"::::::::::::::::::::====ooo@@***oooo====***@@@@@@@@@@--;;;;;;;;;;;;;;;;;;;;;;@@*********************oooo::::::::::::::::::::::::",
"::::::::::::::::::::::::::::oooo========*************@@;;;;;;;;;;;;;;;;;;;;;;;;@@***********************oooo====::::::::::::::::",
"::::::::::::::::::::::::::::oooo========*************@@;;;;;;;;;;;;;;;;;;;;;;;;@@***********************oooo====::::::::::::::::",
"::::::::::::::::::::::::::::oooo========*************@@;;;;;;;;;;;;;;;;;;;;;;;;@@***********************oooo====::::::::::::::::",
"::::::::::::::::::::::::::::oooo========*************@@;;;;;;;;;;;;;;;;;;;;;;;;@@***********************oooo====::::::::::::::::",
"::::::::::::::::::::::::::::====oooo====***********@@--;;;;;;;;;;;;;;;;;;;;;;;;@@***************************oooo====::::::::::::",
"::::::::::::::::::::::::::::====oooo====***********@@--;;;;;;;;;;;;;;;;;;;;;;;;@@***************************oooo====::::::::::::",
"::::::::::::::::::::::::::::====oooo====***********@@--;;;;;;;;;;;;;;;;;;;;;;;;@@***************************oooo====::::::::::::",
"::::::::::::::::::::::::::::====oooo====***********@@--;;;;;;;;;;;;;;;;;;;;;;;;@@***************************oooo====::::::::::::",
"::::::::::::::::::::::::::::====oooooooo====*******@@--;;;;;;;;;;;;;;;;;;;;;;;;@@*******************************oooo====::::::::",
"::::::::::::::::::::::::::::====oooooooo====*******@@--;;;;;;;;;;;;;;;;;;;;;;;;@@*******************************oooo====::::::::",
"::::::::::::::::::::::::::::====ooooo@@@@@@@@@@@@@@----;;;;;;;;;;;;;;;;;;;;;;;;@@@@@@@@@@***********************oooo=@@=::::::::",
"::::::::::::::::::::::::::::====ooooo@@@@@@@@@@@@@@----;;;;;;;;;;;;;;;;;;;;;;;;@@@@@@@@@@***********************oooo=@@=::::::::",
"::::::::::::::::::::::::====ooo@@@@@@------------@@--;;;;;;;;;;;;;;;;;;;;;;;;;;@@--------@@@@@@************@@@@@@@@@@@@o====::::",
"::::::::::::::::::::::::====ooo@@@@@@------------@@--;;;;;;;;;;;;;;;;;;;;;;;;;;@@--------@@@@@@************@@@@@@@@@@@@o====::::",
":::::::::::::::::::::@@@@@@@@@@------------------##--;;;;;;;;;;;;;;;;;;;;;;;;;;##--------------@@@@@@@@@@@@--------@@%%@@===::::",
":::::::::::::::::::::@@@@@@@@@@------------------##--;;;;;;;;;;;;;;;;;;;;;;;;;;##--------------@@@@@@@@@@@@--------@@%%@@===::::",
":::::::::::::::::::@@--------------;;;;;;;;----##,,######;;;;;;;;;;;;;;;;######,,##--------------------------------@@%%@@ooo====",
":::::::::::::::::::@@--------------;;;;;;;;----##,,######;;;;;;;;;;;;;;;;######,,##--------------------------------@@%%@@ooo====",
":::::::::::::::@@@@----;;;;;;;;;;;;;;;;;;;;;;--##,,,,,,,,################,,,,,,,,##;;----------------------------@@%%%%@@ooo====",
":::::::::::::::@@@@----;;;;;;;;;;;;;;;;;;;;;;--##,,,,,,,,################,,,,,,,,##;;----------------------------@@%%%%@@ooo====",
"====:::::::::@@------;;;;;;;;;;;;;;;;;;;;;;;;----##,,,,,,,,,,,,,,,,,,,,,,,,,,,,##;;;;;;;;;;;;;;------------------@@%%@@*****oooo",
"====:::::::::@@------;;;;;;;;;;;;;;;;;;;;;;;;----##,,,,,,,,,,,,,,,,,,,,,,,,,,,,##;;;;;;;;;;;;;;------------------@@%%@@*****oooo",
"====:::::::@@----;;;;;;;;;;;;;;;;;;;;;;;;;;;;;;----######,,,,,,,,,,,,,,,,######;;;;;;;;;;;;;;;;;;--------------@@%%%%@@*****oooo",
"====:::::::@@----;;;;;;;;;;;;;;;;;;;;;;;;;;;;;;----######,,,,,,,,,,,,,,,,######;;;;;;;;;;;;;;;;;;--------------@@%%%%@@*****oooo",
"oooo====:@@----;;;;;;;;;;;;;;;;;;;;;;;;;;;;;;;;;;;;;;;;;;################;;;;;;;;;;;;;;;;;;;;;;;;;;--@@@@@@@@@@%%%%@@***********",
"oooo====:@@----;;;;;;;;;;;;;;;;;;;;;;;;;;;;;;;;;;;;;;;;;;################;;;;;;;;;;;;;;;;;;;;;;;;;;--@@@@@@@@@@%%%%@@***********",
"oooo====:@@----;;;;;;;;;;@@@@@@@@@@@@;;;;;;;;;;;;;;;;;;;;;;;;;;;;;;;;;;;;;;;;;;;;;;;;;;;;@@@@@@@@@@@@%%%%%%%%%%%%@@*************",
"oooo====:@@----;;;;;;;;;;@@@@@@@@@@@@;;;;;;;;;;;;;;;;;;;;;;;;;;;;;;;;;;;;;;;;;;;;;;;;;;;;@@@@@@@@@@@@%%%%%%%%%%%%@@*************",
"****ooo@@------;;@@@@@@@@************@@@@@@@@@@;;;;;;;;;;;;;;;;;;;;;;;;;;;;;;;;@@@@@@@@@@%%%%%%%%%%%%%%%%%%%%@@@@***************",
"****ooo@@------;;@@@@@@@@************@@@@@@@@@@;;;;;;;;;;;;;;;;;;;;;;;;;;;;;;;;@@@@@@@@@@%%%%%%%%%%%%%%%%%%%%@@@@***************",
"****ooo@@----@@@@:::***********************@@22@@@@@@@@@@;;;;;;;;;;;;@@@@@@@@@@%%%%%%%%%%%%%%%%%%%%%%%%@@@@@@*******************",
"****ooo@@----@@@@:::***********************@@22@@@@@@@@@@;;;;;;;;;;;;@@@@@@@@@@%%%%%%%%%%%%%%%%%%%%%%%%@@@@@@*******************",
"*******@@@@@@:::***************************@@22<<<<222222@@@@@@@@@@@@2222222222@@@@@@@@@@@@@@@@@@@@@@@@*************************",
"*******@@@@@@:::***************************@@22<<<<222222@@@@@@@@@@@@2222222222@@@@@@@@@@@@@@@@@@@@@@@@*************************",
"*******@@ooo::::***************************@@22<<<<4422$$$$$$22222222$$$$$$224422@@*********************************************",
"*******@@ooo::::***************************@@22<<<<4422$$$$$$22222222$$$$$$224422@@*********************************************",
"********::::oooo************************===@@22<<<<44$$>>>>>>44444444>>>>>>$$4422@@*********************************************",
"********::::oooo************************===@@22<<<<44$$>>>>>>44444444>>>>>>$$4422@@*********************************************",
"********::::oooo************************===@@22<<<<44$$11  554444444455  11$$4422@@*********************************************",
"********::::oooo************************===@@22<<<<44$$11  554444444455  11$$4422@@*********************************************",
"************::::oooo***********************@@22<<<<443311  114444444411  11334422@@*********************************************",
"************::::oooo***********************@@22<<<<443311  114444444411  11334422@@*********************************************",
"************::::oooo***********************@@22<<<<<<4444114444444444441144444422@@*********************************************",
"************::::oooo***********************@@22<<<<<<4444114444444444441144444422@@*********************************************",
"****************::::oooo::::***************@@22<<<<<<444444444433$$4444444444<<22@@*********************************************",
"****************::::oooo::::***************@@22<<<<<<444444444433$$4444444444<<22@@*********************************************",
"****************::::oooo::::***************@@2222<<<<<<44444444$$33$$444444<<<<22@@*********************************************",
"****************::::oooo::::***************@@2222<<<<<<44444444$$33$$444444<<<<22@@*********************************************",
"********************::::oooo::::*************@@22<<<<<<22@@;;4444444444@@<<<<22@@===********************************************",
"********************::::oooo::::*************@@22<<<<<<22@@;;4444444444@@<<<<22@@===********************************************",
"********************::::oooo::::*************@@2222<<<<--##333333333333##<<22@@o====********************************************",
"********************::::oooo::::*************@@2222<<<<--##333333333333##<<22@@o====********************************************",
"****************************oooo::::*********@@222222------##33333333##----22@@=oooo====****************************************",
"****************************oooo::::*********@@222222------##33333333##----22@@=oooo====****************************************",
"****************************oooo::::***********@@2222--------########--------@@=oooo====****************************************",
"****************************oooo::::***********@@2222--------########--------@@=oooo====****************************************",
"********************************oooo::::*******@@2222;;--------####----------;;@@***oooo====************************************",
"********************************oooo::::*******@@2222;;--------####----------;;@@***oooo====************************************",
"********************************oooo::::*********@@@@;;;;------####----,,,,;;;;@@***oooo====************************************",
"********************************oooo::::*********@@@@;;;;------####----,,,,;;;;@@***oooo====************************************",
"************************************oooo::::*****@@;;;;;;;;;;;;####;;;;,,;;;;;;@@*******oooo====********************************",
"************************************oooo::::*****@@;;;;;;;;;;;;####;;;;,,;;;;;;@@*******oooo====********************************",
"************************************oooo::::*****@@;;;;;;;;;;;;####;;;;;;;;;;;;@@*******oooo====********************************",
"************************************oooo::::*****@@;;;;;;;;;;;;####;;;;;;;;;;;;@@*******oooo====********************************",
"****************************************oooo::::*@@;;;;;;;;;;##XX##;;;;;;;;;;;;@@***********oooo====****************************",
"****************************************oooo::::*@@;;;;;;;;;;##XX##;;;;;;;;;;;;@@***********oooo====****************************",
"****************************************oooo:::@@;;;;;;;;;;;;##XX##;;;;;;;;;;;;;;@@*********oooo====****************************",
"****************************************oooo:::@@;;;;;;;;;;;;##XX##;;;;;;;;;;;;;;@@*********oooo====****************************",
"********************************************ooo@@;;;;;;;;;;;;##XXXX##;;;;;;;;;;;;@@*********oooooooo****************************",
"********************************************ooo@@;;;;;;;;;;;;##XXXX##;;;;;;;;;;;;@@*********oooooooo****************************",
"********************************************ooo@@;;;;;;;;;;;;##XXXX##;;;;;;;;;;;;@@*********oooooooo****************************",
"********************************************ooo@@;;;;;;;;;;;;##XXXX##;;;;;;;;;;;;@@*********oooooooo****************************",
"*********************************************@@;;;;;;;;;;;;;;##XXXX##;;;;;;;;;;;;@@*****oooo========oooo************************",
"*********************************************@@;;;;;;;;;;;;;;##XXXX##;;;;;;;;;;;;@@*****oooo========oooo************************",
"*********************************************@@;;;;;;;;;;;;;;##XXXX##;;;;;;;;;;;;@@*****oooo========oooo************************",
"**************************************OOOOOOO@@;;;;;;;;;;;;;;##XXXX##;;;;;;;;;;;;@@OOOO*oooo========oooo************************",
"*******************************OOOOOOOOOOOOOO@@;;;;;;;;;;;;##XXXXXX##;;;;;;;;;;;;;;@@...++++&&::::::::::oooo********************",
"**************************OOOOOOOOOOOOOOOOOOO@@;;;;;;;;;;;;##XXXXXX##;;;;;;;;;;;;;;@@...++++&&&&&&&:::::oooo********************",
"**********************OOOOOOOOOOOOOOOOOOOOO@@;;;;;;;;;;;;;;##XXXXXX##;;;;;;;;;;;;;;@@...++++&&&&&&&&&&&:oooo********************",
"********************OOOOOOOOOOOOOOOOOOOOOOO@@;;;;;;;;;;;;;;##XXXXXX##;;;;;;;;;;;;;;@@...++++&&&&&&&&&&&&.ooo********************",
"*****************OOOOOOOOOOOOOOOOOOOOOOOOOO@@--;;;;;;;;;;;;##XXXXXX##;;;;;;;;;;;;----@@+&&&&&&&&&&&&&&&&&&&&oooo::::************",
"****************OOOOOOOOOOOOOOOOOOOOOOOOOOO@@--;;;;;;;;;;;;##XXXXXX##;;;;;;;;;;;;----@@+&&&&&&&&&&&&&&&&&&&&.ooo::::************",
"***************OOOOOOOOOOOOOOOOOOOOOOOOOO@@----------;;;;;;##XXOOXX##;;----------------@@&&&&&&&&&&&&&&&&&&&..oo::::************",
"**************OOOOOOOOOOOOOOOOOOOOOOOOOOO@@----------;;;;;;##XXOOXX##;;----------------@@&&&&&&&&&&&&&&&&&&&...o::::************",
"***************OOOOOOOOOOOOOOOOOOOOOOOO@@------------------##XX.OXX##--------------------@@&&&&&&&&&&&&&&&&&++==oooo::::********",
"****************OOOOOOOOOOOOOOOOOOOOOOO@@------------------##XX.OXX##--------------------@@&&&&&&&&&&&&&&&&&+===oooo::::********",
"*****************OOOOOOOOOOOOOOOOOOOO@@@@@@@@@@@@@@@@@@@@@@##XX.OXX##@@@@@@@@@@@@@@@@@@@@@@@@&&&&&&&&&&&&&&&====oooo::::********",
"********************OOOOOOOOOOOOOOOOO@@@@@@@@@@@@@@@@@@@@@@##XX.OXX##@@@@@@@@@@@@@@@@@@@@@@@@&&&&&&&&&&&&:::====oooo::::********",
"**********************OOOOOOOOOOOOOOOOOOOOOOOOOOOOOOOOOOOOOOOOOO....OOOO....++++&&&&&&&&&&&&&&&&&&&&&&&:::::::::====oooo::::****",
"**************************OOOOOOOOOOOOOOOOOOOOOOOOOOOOOOOOOOOOOO....OOOO....++++&&&&&&&&&&&&&&&&&&&:::::::::::::====oooo::::****",
"*******************************OOOOOOOOOOOOOOOOOOOOOOOOOOOOOOOOO....OOOO....++++&&&&&&&&&&&&&&::::::::::::::::::====oooo::::****",
"**************************************OOOOOOOOOOOOOOOOOOOOOOOOOO....OOOO....++++&&&&&&&:::::::::::::::::::::::::====oooo::::****",
"************************************************OOOOOOOOOOOOOOOO........++++&:::::::::::::::::::::::::::::::::::::::====oooo::::",
"****************************************************************oooooooo====::::::::::::::::::::::::::::::::::::::::====oooo::::",
"****************************************************************oooooooo====::::::::::::::::::::::::::::::::::::::::====oooo::::",
"****************************************************************oooooooo====::::::::::::::::::::::::::::::::::::::::====oooo::::",
"::::********************************************************oooo********oooo====::::::::::::::::::::::::::::::::::::::::====oooo",
"::::********************************************************oooo********oooo====::::::::::::::::::::::::::::::::::::::::====oooo",
"::::********************************************************oooo********oooo====::::::::::::::::::::::::::::::::::::::::====oooo",
"::::********************************************************oooo********oooo====::::::::::::::::::::::::::::::::::::::::====oooo"
};
