/* XPM */
static char *result[] = {
/* columns rows colors chars-per-pixel */
"64 64 17 1 ",
"  c #140B13",
". c #231600",
"X c #322E14",
"o c #3B1F26",
"O c #311E29",
"+ c gray24",
"@ c #6A3A00",
"# c #5D3C2D",
"$ c #482C34",
"% c #713F27",
"& c #595656",
"* c #8A5942",
"= c #E2D060",
"- c #2602D7",
"; c gray55",
": c #B1B0B3",
"> c gray99",
/* pixels */
"..**########################..########..**********************%%",
"..**########################..########..**********************%%",
"%%..**##################**..%%##########..**********************",
"%%..**##################**..%%##########..**********************",
"**%%..**##############**..%%##############..********************",
"**%%..**##############**..%%##############..********************",
"****%%..**##########**..%%##################..******************",
"****%%..**##########**..%%##################..******************",
"******%%..########**..%%######################..****************",
"******%%..########**..%%######################..****************",
"********%%..######..%%##########################..**************",
"********%%..######..%%##########################..**************",
"**********%%..##..%%##############################..************",
"**********%%..##..%%##############################..************",
"**************..%%%%>>>>>>>>>>>>>>>>>>>>############..%%********",
"**************..%%%%>>>>>>>>>>>>>>>>>>>>############..%%********",
"**************%%..>>XXXXXXXXXXXXXXXXXXXX>>############..%%******",
"**************%%..>>XXXXXXXXXXXXXXXXXXXX>>############..%%******",
"**************%%>>XX====================XX>>############..%%****",
"**************%%>>XX====================XX>>############..%%****",
"************%%>>XX====@@@@@@@@@@@@@@@@====XX>>############..%%**",
"************%%>>XX====@@@@@@@@@@@@@@@@====XX>>############..%%**",
"**********%%..>>XX==@@================@@====XX>>############..%%",
"**********%%..>>XX==@@================@@====XX>>############..%%",
"%%******%%..**>>XX==@@====@@@@@@@@@@====@@==XX>>##############..",
"%%******%%..**>>XX==@@====@@@@@@@@@@====@@==XX>>##############..",
"..%%****..**##>>XX==@@==@@==========@@==@@==XX>>################",
"..%%****..**##>>XX==@@==@@==========@@==@@==XX>>################",
"##..%%..**####>>XX==@@==@@==========@@==@@==XX>>################",
"##..%%..**####>>XX==@@==@@==========@@==@@==XX>>################",
"####..**####>>++XX==@@====@@@@@@@@==@@==@@==XX++>>##############",
"####..**####>>++XX==@@====@@@@@@@@==@@==@@==XX++>>##############",
"####**..##>>++;;XX====@@============@@==@@==XX;;++>>############",
"####**..##>>++;;XX====@@============@@==@@==XX;;++>>############",
"######**>>++;;XX========@@@@@@@@@@@@====@@==XX;;;;++>>##########",
"######**>>++;;XX========@@@@@@@@@@@@====@@==XX;;;;++>>##########",
"########>>++++XX====@@================@@====XX&&++++>>##########",
"########>>++++XX====@@================@@====XX&&++++>>##########",
"########>>++::++XX====@@@@@@@@@@@@@@@@====XX&&++::++>>##########",
"########>>++::++XX====@@@@@@@@@@@@@@@@====XX&&++::++>>##########",
"########>>++::::++++++++++++++++++++++++++++++::::++>>##########",
"########>>++::::++++++++++++++++++++++++++++++::::++>>##########",
"########>>++::::::::::::::::::::::::::::::::::::::++>>##########",
"########>>++::::::::::::::::::::::::::::::::::::::++>>##########",
"########OO>>++::::::::::::--::::--::::::::::::::++>>OO##########",
"########OO>>++::::::::::::--::::--::::::::::::::++>>OO##########",
"########OOOO>>++::::::::::::----::::::::::::::++>>OOOO##########",
"########OOOO>>++::::::::::::----::::::::::::::++>>OOOO##########",
"########OOOOOO>>++++++++++++++++++++++++++++++>>  OOOO##########",
"########OOOOOO>>++++++++++++++++++++++++++++++>>  OOOO##########",
"##########OOOOOO>>>>>>>>>>>>>>>>>>>>>>>>>>>>>>oooo  ############",
"##########OOOOOO>>>>>>>>>>>>>>>>>>>>>>>>>>>>>>oooo  ############",
"############OOOOOOOOOOOOOO  OOOOOOOOOOOOOO  oo$$$$**..##########",
"############OOOOOOOOOOOOOO  OOOOOOOOOOOOOO  oo$$$$**..##########",
"##################OOOOOOOOOO  OOOOOOOOOO  oo**********..**######",
"##################OOOOOOOOOO  OOOOOOOOOO  oo**********..**######",
"##############################..######..%%************%%..**####",
"##############################..######..%%************%%..**####",
"################################..##..%%****************%%..**##",
"################################..##..%%****************%%..**##",
"################################....%%********************%%..**",
"################################....%%********************%%..**",
"**############################..####..%%********************%%..",
"**############################..####..%%********************%%.."
};
