/* XPM */
static char *result[] = {
/* columns rows colors chars-per-pixel */
"64 64 4 1 ",
"  c #231600",
". c #5D3C2D",
"X c #713F27",
"o c #8A5942",
/* pixels */
"  oo........................  ........  ooooooooooooooooooooooXX",
"  oo........................  ........  ooooooooooooooooooooooXX",
"XX  oo..................oo  XX..........  oooooooooooooooooooooo",
"XX  oo..................oo  XX..........  oooooooooooooooooooooo",
"ooXX  oo..............oo  XX..............  oooooooooooooooooooo",
"ooXX  oo..............oo  XX..............  oooooooooooooooooooo",
"ooooXX  oo..........oo  XX..................  oooooooooooooooooo",
"ooooXX  oo..........oo  XX..................  oooooooooooooooooo",
"ooooooXX  ........oo  XX......................  oooooooooooooooo",
"ooooooXX  ........oo  XX......................  oooooooooooooooo",
"ooooooooXX  ......  XX..........................  oooooooooooooo",
"ooooooooXX  ......  XX..........................  oooooooooooooo",
"ooooooooooXX  ..  XX..............................  oooooooooooo",
"ooooooooooXX  ..  XX..............................  oooooooooooo",
"oooooooooooooo  XXXX................................  XXoooooooo",
"oooooooooooooo  XXXX................................  XXoooooooo",
"ooooooooooooooXX  XX..................................  XXoooooo",
"ooooooooooooooXX  XX..................................  XXoooooo",
"ooooooooooooooXX    XX..................................  XXoooo",
"ooooooooooooooXX    XX..................................  XXoooo",
"ooooooooooooXX  oo..  XX..................................  XXoo",
"ooooooooooooXX  oo..  XX..................................  XXoo",
"ooooooooooXX  oo......  XX..................................  XX",
"ooooooooooXX  oo......  XX..................................  XX",
"XXooooooXX  oo..........  XX..................................  ",
"XXooooooXX  oo..........  XX..................................  ",
"  XXoooo  oo..............  XX..................................",
"  XXoooo  oo..............  XX..................................",
"..  XX  oo................XX  XX................................",
"..  XX  oo................XX  XX................................",
"....  oo....................XX  XX..............................",
"....  oo....................XX  XX..............................",
"....oo  ............XX........XX  XX............................",
"....oo  ............XX........XX  XX............................",
"......oo  ............XX........XX  XX..........................",
"......oo  ............XX........XX  XX..........................",
"........oo  oo..........XX........XX  XX........................",
"........oo  oo..........XX........XX  XX........................",
"..........oo  oo..........XX........XX  XX......................",
"..........oo  oo..........XX........XX  XX......................",
"..............  oo..........XX........XX  XX....................",
"..............  oo..........XX........XX  XX....................",
"................  oo..........XX..........  XX..................",
"................  oo..........XX..........  XX..................",
"..................  oo......................  XX................",
"..................  oo......................  XX................",
"....................  oo......................  XX..............",
"....................  oo......................  XX..............",
"......................  oo....................    ..............",
"......................  oo....................    ..............",
"........................  oo................  XXXX  ............",
"........................  oo................  XXXX  ............",
"..........................  ..............  XXoooooo  ..........",
"..........................  ..............  XXoooooo  ..........",
"............................  ..........  XXoooooooooo  oo......",
"............................  ..........  XXoooooooooo  oo......",
"..............................  ......  XXooooooooooooXX  oo....",
"..............................  ......  XXooooooooooooXX  oo....",
"................................  ..  XXooooooooooooooooXX  oo..",
"................................  ..  XXooooooooooooooooXX  oo..",
"................................    XXooooooooooooooooooooXX  oo",
"................................    XXooooooooooooooooooooXX  oo",
"oo............................  ....  XXooooooooooooooooooooXX  ",
"oo............................  ....  XXooooooooooooooooooooXX  "
};
