/* XPM */
static char *result[] = {
/* columns rows colors chars-per-pixel */
"64 64 10 1 ",
"  c #3B1909",
". c #2A200A",
"X c #463612",
"o c #682E12",
"O c #6C521B",
"+ c #95431B",
"@ c #8E5A42",
"# c #AC822B",
"$ c #DC990B",
"% c #FEC347",
/* pixels */
"                                                                ",
"                                                                ",
"++++++++++++    ++++++++++++++++++++++++++    ++++++++++++++++++",
"++++++++++++    ++++++++++++++++++++++++++    ++++++++++++++++++",
"@@@@++++++++    ++............................++++++++++@@@@@@++",
"@@@@++++++++    ++............................++++++++++@@@@@@++",
"++++@@@@++++  ....................................++++++++++++++",
"++++@@@@++++  ....................................++++++++++++++",
"++++++++++........############################........@@++++++++",
"++++++++++........############################........@@++++++++",
"@@@@@@@@......####OOOOOOOOOOOO....OOOOOOOOOOOO####......++++++++",
"@@@@@@@@......####OOOOOOOOOOOO....OOOOOOOOOOOO####......++++++++",
"      ....####OOOO........OOOO....OOOO........OOOO####....@@@@@@",
"      ....####OOOO........OOOO....OOOO........OOOO####....@@@@@@",
"    ....##OOOO....XXXXXXXXOOOO....OOOOXXXXXXXX....OOOO##....    ",
"    ....##OOOO....XXXXXXXXOOOO....OOOOXXXXXXXX....OOOO##....    ",
"  oo..##OOOO..XXXXXXXXXXXXOOOO....OOOOXXXXXXXXXXXX..OOOO##..    ",
"  oo..##OOOO..XXXXXXXXXXXXOOOO....OOOOXXXXXXXXXXXX..OOOO##..    ",
"  oo..OOOO..XXXXXXXXXXXXXXOOOO....OOOOXXXXXXXXXXXXXX..OOOO..oo  ",
"  oo..OOOO..XXXXXXXXXXXXXXOOOO....OOOOXXXXXXXXXXXXXX..OOOO..oo  ",
"  oo..OOOO..XXXXXXXXXXXXXXOOOO....OOOOXXXXXXXXXXXXXX..OOOO..oo  ",
"  oo..OOOO..XXXXXXXXXXXXXXOOOO....OOOOXXXXXXXXXXXXXX..OOOO..oo  ",
"  oo..OO..XXXXXXXXXXXXXXXXOOOO....OOOOXXXXXXXXXXXXXXXX..OO..oo  ",
"  oo..OO..XXXXXXXXXXXXXXXXOOOO....OOOOXXXXXXXXXXXXXXXX..OO..oo  ",
"    ..OO..XXXXXXXXXXXXXXXXOOOO....OOOOXXXXXXXXXXXXXXXX..OO..    ",
"    ..OO..XXXXXXXXXXXXXXXXOOOO....OOOOXXXXXXXXXXXXXXXX..OO..    ",
"    ..OO..XXXXXXXXXXXXXXXXOOOO....OOOOXXXXXXXXXXXXXXXX..OO..    ",
"    ..OO..XXXXXXXXXXXXXXXXOOOO....OOOOXXXXXXXXXXXXXXXX..OO..    ",
"++oo..OO..XXXXXXXXXXXXXXXXOOOO....OOOOXXXXXXXXXXXXXXXX..OO..oo++",
"++oo..OO..XXXXXXXXXXXXXXXXOOOO....OOOOXXXXXXXXXXXXXXXX..OO..oo++",
"++oo..OO..XXXXXXXXXXXXXXXXOOOO....OOOOXXXXXXXXXXXXXXXX..OO..oo++",
"++oo..OO..XXXXXXXXXXXXXXXXOOOO....OOOOXXXXXXXXXXXXXXXX..OO..oo++",
"@@oo..OO..XXXXXXXXXXXXXXXXOOOO....OOOOXXXXXXXXXXXXXXXX..OO..oo++",
"@@oo..OO..XXXXXXXXXXXXXXXXOOOO....OOOOXXXXXXXXXXXXXXXX..OO..oo++",
"++oo..OO..XXXXXXXXXXXXXXXXOOOO....OOOOXXXXXXXXXXXXXXXX..OO..oo++",
"++oo..OO..XXXXXXXXXXXXXXXXOOOO....OOOOXXXXXXXXXXXXXXXX..OO..oo++",
"@@oo..OO..XXXXXXXXXXXXXXXX%%%%....%%%%XXXXXXXXXXXXXXXX..OO..oo@@",
"@@oo..OO..XXXXXXXXXXXXXXXX%%%%....%%%%XXXXXXXXXXXXXXXX..OO..oo@@",
"    ..OOOO................$$$$....$$$$................OOOO..    ",
"    ..OOOO................$$$$....$$$$................OOOO..    ",
"    ..OOOOOOOOOOOOOOOOOOOO$$OO....OO$$OOOOOOOOOOOOOOOOOOOO..    ",
"    ..OOOOOOOOOOOOOOOOOOOO$$OO....OO$$OOOOOOOOOOOOOOOOOOOO..    ",
"  oo..OOOOOOOOOOOOOOOOOOOO$$OO....OO$$OOOOOOOOOOOOOOOOOOOO..oo  ",
"  oo..OOOOOOOOOOOOOOOOOOOO$$OO....OO$$OOOOOOOOOOOOOOOOOOOO..oo  ",
"  oo..OOOO................$$OO....OO$$................OOOO..oo  ",
"  oo..OOOO................$$OO....OO$$................OOOO..oo  ",
"  oo..OO..XXXXXXXXXXXXXXXXOOOO....OOOOXXXXXXXXXXXXXXXX..OO..oo  ",
"  oo..OO..XXXXXXXXXXXXXXXXOOOO....OOOOXXXXXXXXXXXXXXXX..OO..oo  ",
"  oo..OO..XXXXXXXXXXXXXXXXOOOO....OOOOXXXXXXXXXXXXXXXX..OO..    ",
"  oo..OO..XXXXXXXXXXXXXXXXOOOO....OOOOXXXXXXXXXXXXXXXX..OO..    ",
"    ..OO..XXXXXXXXXXXXXXXXOOOO....OOOOXXXXXXXXXXXXXXXX..OO..    ",
"    ..OO..XXXXXXXXXXXXXXXXOOOO....OOOOXXXXXXXXXXXXXXXX..OO..    ",
"    ..OO..XXXXXXXXXXXXXXXXOOOO....OOOOXXXXXXXXXXXXXXXX..OO..    ",
"    ..OO..XXXXXXXXXXXXXXXXOOOO....OOOOXXXXXXXXXXXXXXXX..OO..    ",
"++oo..OO..XXXXXXXXXXXXXXXXOOOO....OOOOXXXXXXXXXXXXXXXX..OO..++++",
"++oo..OO..XXXXXXXXXXXXXXXXOOOO....OOOOXXXXXXXXXXXXXXXX..OO..++++",
"++oo..OOOO................OOOO....OOOO................OOOO..++++",
"++oo..OOOO................OOOO....OOOO................OOOO..++++",
"++oo..OOOOOOOOOOOOOOOOOOOOOOOO....OOOOOOOOOOOOOOOOOOOOOOOO..++++",
"++oo..OOOOOOOOOOOOOOOOOOOOOOOO....OOOOOOOOOOOOOOOOOOOOOOOO..++++",
"@@ooooXXXXXXXXXXXXXXXXXXXXXXXXXXXXXXXXXXXXXXXXXXXXXXXXXXXX  @@@@",
"@@ooooXXXXXXXXXXXXXXXXXXXXXXXXXXXXXXXXXXXXXXXXXXXXXXXXXXXX  @@@@",
"                                                                ",
"                                                                "
};
