/* XPM */
static char *result[] = {
/* columns rows colors chars-per-pixel */
"128 128 9 1 ",
"  c #1D0F09",
". c #262322",
"X c #4A2A1C",
"o c #5F3725",
"O c #665C58",
"+ c #8E4F32",
"@ c #AC613F",
"# c #827671",
"$ c #A4948D",
/* pixels */
"................................            ................            ........................................................",
"................................            ................            ........................................................",
"................................            ................            ........................................................",
"................................            ................            ........................................................",
"....########################    ++++++++++++    ........    ++++++++++++    ####################....########################....",
"....########################    ++++++++++++    ........    ++++++++++++    ####################....########################....",
"....########################    ++++++++++++    ........    ++++++++++++    ####################....########################....",
"....########################    ++++++++++++    ........    ++++++++++++    ####################....########################....",
"....####################    ++++++++++++++++++++        ++++++++++++++++++++    ....########....####################............",
"....####################    ++++++++++++++++++++        ++++++++++++++++++++    ....########....####################............",
"....####################    ++++++++++++++++++++        ++++++++++++++++++++    ....########....####################............",
"....####################    ++++++++++++++++++++        ++++++++++++++++++++    ....########....####################............",
"$$$$$$$$########$$$$$$$$    @@@@++++++++++++@@@@        @@@@++++++++++++@@@@    ####$$$$####$$$$$$$$$$$$$$$$$$$$$$$$$$$$$$$$$$$$",
"$$$$$$$$########$$$$$$$$    @@@@++++++++++++@@@@        @@@@++++++++++++@@@@    ####$$$$####$$$$$$$$$$$$$$$$$$$$$$$$$$$$$$$$$$$$",
"$$$$$$$$########$$$$$$$$    @@@@++++++++++++@@@@        @@@@++++++++++++@@@@    ####$$$$####$$$$$$$$$$$$$$$$$$$$$$$$$$$$$$$$$$$$",
"$$$$$$$$########$$$$$$$$    @@@@++++++++++++@@@@        @@@@++++++++++++@@@@    ####$$$$####$$$$$$$$$$$$$$$$$$$$$$$$$$$$$$$$$$$$",
"########$$$$$$$$########    oooo@@@@@@@@@@@@oooo        oooo@@@@@@@@@@@@oooo    ########$$$$####################....############",
"########$$$$$$$$########    oooo@@@@@@@@@@@@oooo        oooo@@@@@@@@@@@@oooo    ########$$$$####################....############",
"########$$$$$$$$########    oooo@@@@@@@@@@@@oooo        oooo@@@@@@@@@@@@oooo    ########$$$$####################....############",
"########$$$$$$$$########    oooo@@@@@@@@@@@@oooo        oooo@@@@@@@@@@@@oooo    ########$$$$####################....############",
"OOOOOOOO....OOOO########    oooooooooooooooooooo        oooooooooooooooooooo    ####OOOO....OOOO########OOOOOOOO....####OOOOOOOO",
"OOOOOOOO....OOOO########    oooooooooooooooooooo        oooooooooooooooooooo    ####OOOO....OOOO########OOOOOOOO....####OOOOOOOO",
"OOOOOOOO....OOOO########    oooooooooooooooooooo        oooooooooooooooooooo    ####OOOO....OOOO########OOOOOOOO....####OOOOOOOO",
"OOOOOOOO....OOOO########    oooooooooooooooooooo        oooooooooooooooooooo    ####OOOO....OOOO########OOOOOOOO....####OOOOOOOO",
"OOOOOOOO....OOOO########    oooooooooooooooooooo        oooooooooooooooooooo    ####OOOO....OOOO####OOOOOOOOOOOO....OOOOOOOOOOOO",
"OOOOOOOO....OOOO########    oooooooooooooooooooo        oooooooooooooooooooo    ####OOOO....OOOO####OOOOOOOOOOOO....OOOOOOOOOOOO",
"OOOOOOOO....OOOO########    oooooooooooooooooooo        oooooooooooooooooooo    ####OOOO....OOOO####OOOOOOOOOOOO....OOOOOOOOOOOO",
"OOOOOOOO....OOOO########    oooooooooooooooooooo        oooooooooooooooooooo    ####OOOO....OOOO####OOOOOOOOOOOO....OOOOOOOOOOOO",
"OOOOOOOO....OOOO########    oooooooooooooooooooo        oooooooooooooooooooo    OOOOOOOO....OOOOOOOOOOOOOOOOOOOO....OOOOOOOOOOOO",
"OOOOOOOO....OOOO########    oooooooooooooooooooo        oooooooooooooooooooo    OOOOOOOO....OOOOOOOOOOOOOOOOOOOO....OOOOOOOOOOOO",
"OOOOOOOO....OOOO########    oooooooooooooooooooo        oooooooooooooooooooo    OOOOOOOO....OOOOOOOOOOOOOOOOOOOO....OOOOOOOOOOOO",
"OOOOOOOO....OOOO########    oooooooooooooooooooo        oooooooooooooooooooo    OOOOOOOO....OOOOOOOOOOOOOOOOOOOO....OOOOOOOOOOOO",
"OOOOOOOO....OOOOOOOOOOOO    oooooooooooooooooooo        oooooooooooooooooooo    OOOO........OOOOOOOOOOOOOOOOOOOO....OOOOOOOOOOOO",
"OOOOOOOO....OOOOOOOOOOOO    oooooooooooooooooooo        oooooooooooooooooooo    OOOO........OOOOOOOOOOOOOOOOOOOO....OOOOOOOOOOOO",
"OOOOOOOO....OOOOOOOOOOOO    oooooooooooooooooooo        oooooooooooooooooooo    OOOO........OOOOOOOOOOOOOOOOOOOO....OOOOOOOOOOOO",
"OOOOOOOO....OOOOOOOOOOOO    oooooooooooooooooooo        oooooooooooooooooooo    OOOO........OOOOOOOOOOOOOOOOOOOO....OOOOOOOOOOOO",
"OOOOOOOOOOOO....OOOOOOOO    oooooooooooooooooooo        oooooooooooooooooooo    ....OOOOOOOO....OOOOOOOOOOOOOOOO....OOOOOOOOOOOO",
"OOOOOOOOOOOO....OOOOOOOO    oooooooooooooooooooo        oooooooooooooooooooo    ....OOOOOOOO....OOOOOOOOOOOOOOOO....OOOOOOOOOOOO",
"OOOOOOOOOOOO....OOOOOOOO    oooooooooooooooooooo        oooooooooooooooooooo    ....OOOOOOOO....OOOOOOOOOOOOOOOO....OOOOOOOOOOOO",
"OOOOOOOOOOOO....OOOOOOOO    oooooooooooooooooooo        oooooooooooooooooooo    ....OOOOOOOO....OOOOOOOOOOOOOOOO....OOOOOOOOOOOO",
"OOOOOOOOOOOOOOOO........    oooooooooooooooooooo        oooooooooooooooooooo    OOOOOOOO............................OOOOOOOOOOOO",
"OOOOOOOOOOOOOOOO........    oooooooooooooooooooo        oooooooooooooooooooo    OOOOOOOO............................OOOOOOOOOOOO",
"OOOOOOOOOOOOOOOO........    oooooooooooooooooooo        oooooooooooooooooooo    OOOOOOOO............................OOOOOOOOOOOO",
"OOOOOOOOOOOOOOOO........    oooooooooooooooooooo        oooooooooooooooooooo    OOOOOOOO............................OOOOOOOOOOOO",
"OOOOOOOO........OOOOOOOO    oooooooooooooooooooo        oooooooooooooooooooo    OOOO........OOOOOOOOOOOOOOOOOOOO....OOOOOOOOOOOO",
"OOOOOOOO........OOOOOOOO    oooooooooooooooooooo        oooooooooooooooooooo    OOOO........OOOOOOOOOOOOOOOOOOOO....OOOOOOOOOOOO",
"OOOOOOOO........OOOOOOOO    oooooooooooooooooooo        oooooooooooooooooooo    OOOO........OOOOOOOOOOOOOOOOOOOO....OOOOOOOOOOOO",
"OOOOOOOO........OOOOOOOO    oooooooooooooooooooo        oooooooooooooooooooo    OOOO........OOOOOOOOOOOOOOOOOOOO....OOOOOOOOOOOO",
"........OOOO....OOOOOOOO    oooooooooooooooooooo        oooooooooooooooooooo    ........OOOOOOOOOOOO########OOOOOOOO............",
"........OOOO....OOOOOOOO    oooooooooooooooooooo        oooooooooooooooooooo    ........OOOOOOOOOOOO########OOOOOOOO............",
"........OOOO....OOOOOOOO    oooooooooooooooooooo        oooooooooooooooooooo    ........OOOOOOOOOOOO########OOOOOOOO............",
"........OOOO....OOOOOOOO    oooooooooooooooooooo        oooooooooooooooooooo    ........OOOOOOOOOOOO########OOOOOOOO............",
"OOOOOOOOOOOOOOOO....OOOO    oooooooooooooooooooo        oooooooooooooooooooo    OOOOOOOOOOOOOOOOOOOO########OOOOOOOO....OOOOOOOO",
"OOOOOOOOOOOOOOOO....OOOO    oooooooooooooooooooo        oooooooooooooooooooo    OOOOOOOOOOOOOOOOOOOO########OOOOOOOO....OOOOOOOO",
"OOOOOOOOOOOOOOOO....OOOO    oooooooooooooooooooo        oooooooooooooooooooo    OOOOOOOOOOOOOOOOOOOO########OOOOOOOO....OOOOOOOO",
"OOOOOOOOOOOOOOOO....OOOO    oooooooooooooooooooo        oooooooooooooooooooo    OOOOOOOOOOOOOOOOOOOO########OOOOOOOO....OOOOOOOO",
"                            oooooooooooooooo@@@@        oooooooooooooooooooo                                                    ",
"                            oooooooooooooooo@@@@        oooooooooooooooooooo                                                    ",
"                            oooooooooooooooo@@@@        oooooooooooooooooooo                                                    ",
"                            oooooooooooooooo@@@@        oooooooooooooooooooo                                                    ",
"++++++++++++++++++++++++    oooo@@@@oooo@@@@@@@@        @@@@oooooooooooo@@@@    ++++++++++++++++++++++++++++++++++++++++++++++++",
"++++++++++++++++++++++++    oooo@@@@oooo@@@@@@@@        @@@@oooooooooooo@@@@    ++++++++++++++++++++++++++++++++++++++++++++++++",
"++++++++++++++++++++++++    oooo@@@@oooo@@@@@@@@        @@@@oooooooooooo@@@@    ++++++++++++++++++++++++++++++++++++++++++++++++",
"++++++++++++++++++++++++    oooo@@@@oooo@@@@@@@@        @@@@oooooooooooo@@@@    ++++++++++++++++++++++++++++++++++++++++++++++++",
"@@@@@@@@@@@@@@@@@@@@@@@@    oooo@@@@oooo@@@@@@@@        @@@@@@@@@@@@oooo@@@@    @@@@@@@@@@@@@@@@@@@@@@@@@@@@@@@@@@@@@@@@@@@@@@@@",
"@@@@@@@@@@@@@@@@@@@@@@@@    oooo@@@@oooo@@@@@@@@        @@@@@@@@@@@@oooo@@@@    @@@@@@@@@@@@@@@@@@@@@@@@@@@@@@@@@@@@@@@@@@@@@@@@",
"@@@@@@@@@@@@@@@@@@@@@@@@    oooo@@@@oooo@@@@@@@@        @@@@@@@@@@@@oooo@@@@    @@@@@@@@@@@@@@@@@@@@@@@@@@@@@@@@@@@@@@@@@@@@@@@@",
"@@@@@@@@@@@@@@@@@@@@@@@@    oooo@@@@oooo@@@@@@@@        @@@@@@@@@@@@oooo@@@@    @@@@@@@@@@@@@@@@@@@@@@@@@@@@@@@@@@@@@@@@@@@@@@@@",
"XXXXXXXXXXXXXXXXXXXXXXXX    oooo@@@@oooo@@@@@@@@        @@@@@@@@@@@@oooo@@@@    XXXXXXXXXXXXXXXXXXXXXXXXXXXXXXXXXXXXXXXXXXXXXXXX",
"XXXXXXXXXXXXXXXXXXXXXXXX    oooo@@@@oooo@@@@@@@@        @@@@@@@@@@@@oooo@@@@    XXXXXXXXXXXXXXXXXXXXXXXXXXXXXXXXXXXXXXXXXXXXXXXX",
"XXXXXXXXXXXXXXXXXXXXXXXX    oooo@@@@oooo@@@@@@@@        @@@@@@@@@@@@oooo@@@@    XXXXXXXXXXXXXXXXXXXXXXXXXXXXXXXXXXXXXXXXXXXXXXXX",
"XXXXXXXXXXXXXXXXXXXXXXXX    oooo@@@@oooo@@@@@@@@        @@@@@@@@@@@@oooo@@@@    XXXXXXXXXXXXXXXXXXXXXXXXXXXXXXXXXXXXXXXXXXXXXXXX",
"++++++++++++++++++++++++    oooo@@@@oooo@@@@@@@@        @@@@@@@@@@@@oooo@@@@    ++++++++++++++++++++++++++++++++++++++++++++++++",
"++++++++++++++++++++++++    oooo@@@@oooo@@@@@@@@        @@@@@@@@@@@@oooo@@@@    ++++++++++++++++++++++++++++++++++++++++++++++++",
"++++++++++++++++++++++++    oooo@@@@oooo@@@@@@@@        @@@@@@@@@@@@oooo@@@@    ++++++++++++++++++++++++++++++++++++++++++++++++",
"++++++++++++++++++++++++    oooo@@@@oooo@@@@@@@@        @@@@@@@@@@@@oooo@@@@    ++++++++++++++++++++++++++++++++++++++++++++++++",
"@@@@@@@@@@@@@@@@@@@@@@@@    oooo@@@@oooo@@@@@@@@        @@@@@@@@@@@@oooo@@@@    @@@@@@@@@@@@@@@@@@@@@@@@@@@@@@@@@@@@@@@@@@@@@@@@",
"@@@@@@@@@@@@@@@@@@@@@@@@    oooo@@@@oooo@@@@@@@@        @@@@@@@@@@@@oooo@@@@    @@@@@@@@@@@@@@@@@@@@@@@@@@@@@@@@@@@@@@@@@@@@@@@@",
"@@@@@@@@@@@@@@@@@@@@@@@@    oooo@@@@oooo@@@@@@@@        @@@@@@@@@@@@oooo@@@@    @@@@@@@@@@@@@@@@@@@@@@@@@@@@@@@@@@@@@@@@@@@@@@@@",
"@@@@@@@@@@@@@@@@@@@@@@@@    oooo@@@@oooo@@@@@@@@        @@@@@@@@@@@@oooo@@@@    @@@@@@@@@@@@@@@@@@@@@@@@@@@@@@@@@@@@@@@@@@@@@@@@",
"XXXXXXXXXXXXXXXXXXXXXXXX    oooo@@@@oooo@@@@@@@@        @@@@@@@@@@@@oooo@@@@    XXXXXXXXXXXXXXXXXXXXXXXXXXXXXXXXXXXXXXXXXXXXXXXX",
"XXXXXXXXXXXXXXXXXXXXXXXX    oooo@@@@oooo@@@@@@@@        @@@@@@@@@@@@oooo@@@@    XXXXXXXXXXXXXXXXXXXXXXXXXXXXXXXXXXXXXXXXXXXXXXXX",
"XXXXXXXXXXXXXXXXXXXXXXXX    oooo@@@@oooo@@@@@@@@        @@@@@@@@@@@@oooo@@@@    XXXXXXXXXXXXXXXXXXXXXXXXXXXXXXXXXXXXXXXXXXXXXXXX",
"XXXXXXXXXXXXXXXXXXXXXXXX    oooo@@@@oooo@@@@@@@@        @@@@@@@@@@@@oooo@@@@    XXXXXXXXXXXXXXXXXXXXXXXXXXXXXXXXXXXXXXXXXXXXXXXX",
"                            oooo@@@@oooo@@@@@@@@        @@@@@@@@@@@@oooo@@@@                                                    ",
"                            oooo@@@@oooo@@@@@@@@        @@@@@@@@@@@@oooo@@@@                                                    ",
"                            oooo@@@@oooo@@@@@@@@        @@@@@@@@@@@@oooo@@@@                                                    ",
"                            oooo@@@@oooo@@@@@@@@        @@@@@@@@@@@@oooo@@@@                                                    ",
"OOOOOOOO....OOOOOOOOOOOO    oooo@@@@oooo@@@@@@@@        @@@@@@@@@@@@oooo@@@@    OOOOOOOOOOOOOOOOOOOO....OOOOOOOOOOOOOOOO....OOOO",
"OOOOOOOO....OOOOOOOOOOOO    oooo@@@@oooo@@@@@@@@        @@@@@@@@@@@@oooo@@@@    OOOOOOOOOOOOOOOOOOOO....OOOOOOOOOOOOOOOO....OOOO",
"OOOOOOOO....OOOOOOOOOOOO    oooo@@@@oooo@@@@@@@@        @@@@@@@@@@@@oooo@@@@    OOOOOOOOOOOOOOOOOOOO....OOOOOOOOOOOOOOOO....OOOO",
"OOOOOOOO....OOOOOOOOOOOO    oooo@@@@oooo@@@@@@@@        @@@@@@@@@@@@oooo@@@@    OOOOOOOOOOOOOOOOOOOO....OOOOOOOOOOOOOOOO....OOOO",
"####....OOOO########OOOO    oooo@@@@oooo@@@@@@@@        @@@@@@@@@@@@oooo@@@@    ....................OOOOOOOOOOOO####OOOO....####",
"####....OOOO########OOOO    oooo@@@@oooo@@@@@@@@        @@@@@@@@@@@@oooo@@@@    ....................OOOOOOOOOOOO####OOOO....####",
"####....OOOO########OOOO    oooo@@@@oooo@@@@@@@@        @@@@@@@@@@@@oooo@@@@    ....................OOOOOOOOOOOO####OOOO....####",
"####....OOOO########OOOO    oooo@@@@oooo@@@@@@@@        @@@@@@@@@@@@oooo@@@@    ....................OOOOOOOOOOOO####OOOO....####",
"....OOOOOOOO########OOOO    oooo@@@@oooo@@@@@@@@        @@@@@@@@@@@@oooo@@@@    OOOO....OOOOOOOO....OOOO############OOOOOOOO....",
"....OOOOOOOO########OOOO    oooo@@@@oooo@@@@@@@@        @@@@@@@@@@@@oooo@@@@    OOOO....OOOOOOOO....OOOO############OOOOOOOO....",
"....OOOOOOOO########OOOO    oooo@@@@oooo@@@@@@@@        @@@@@@@@@@@@oooo@@@@    OOOO....OOOOOOOO....OOOO############OOOOOOOO....",
"....OOOOOOOO########OOOO    oooo@@@@oooo@@@@@@@@        @@@@@@@@@@@@oooo@@@@    OOOO....OOOOOOOO....OOOO############OOOOOOOO....",
"OOOOOOOOOOOOOOOOOOOOOOOO    oooo@@@@oooo@@@@@@@@        @@@@@@@@@@@@oooo@@@@    ....OOOOOOOOOOOOOOOO....OOOOOOOOOOOOOOOOOOOOOOOO",
"OOOOOOOOOOOOOOOOOOOOOOOO    oooo@@@@oooo@@@@@@@@        @@@@@@@@@@@@oooo@@@@    ....OOOOOOOOOOOOOOOO....OOOOOOOOOOOOOOOOOOOOOOOO",
"OOOOOOOOOOOOOOOOOOOOOOOO    oooo@@@@oooo@@@@@@@@        @@@@@@@@@@@@oooo@@@@    ....OOOOOOOOOOOOOOOO....OOOOOOOOOOOOOOOOOOOOOOOO",
"OOOOOOOOOOOOOOOOOOOOOOOO    oooo@@@@oooo@@@@@@@@        @@@@@@@@@@@@oooo@@@@    ....OOOOOOOOOOOOOOOO....OOOOOOOOOOOOOOOOOOOOOOOO",
"OOOOOOOOOOOOOOOO........    oooo@@@@oooo@@@@@@@@        @@@@@@@@@@@@oooo@@@@    ....OOOOOOOOOOOOOOOOOOOO................OOOOOOOO",
"OOOOOOOOOOOOOOOO........    oooo@@@@oooo@@@@@@@@        @@@@@@@@@@@@oooo@@@@    ....OOOOOOOOOOOOOOOOOOOO................OOOOOOOO",
"OOOOOOOOOOOOOOOO........    oooo@@@@oooo@@@@@@@@        @@@@@@@@@@@@oooo@@@@    ....OOOOOOOOOOOOOOOOOOOO................OOOOOOOO",
"OOOOOOOOOOOOOOOO........    oooo@@@@oooo@@@@@@@@        @@@@@@@@@@@@oooo@@@@    ....OOOOOOOOOOOOOOOOOOOO................OOOOOOOO",
"................OOOOOOOO    oooo@@@@oooo@@@@@@@@        @@@@@@@@@@@@oooo@@@@    ............OOOO########OOOOOOOOOOOOOOOO........",
"................OOOOOOOO    oooo@@@@oooo@@@@@@@@        @@@@@@@@@@@@oooo@@@@    ............OOOO########OOOOOOOOOOOOOOOO........",
"................OOOOOOOO    oooo@@@@oooo@@@@@@@@        @@@@@@@@@@@@oooo@@@@    ............OOOO########OOOOOOOOOOOOOOOO........",
"................OOOOOOOO    oooo@@@@oooo@@@@@@@@        @@@@@@@@@@@@oooo@@@@    ............OOOO########OOOOOOOOOOOOOOOO........",
"OOOOOOOOOOOOOOOOOOOOOOOO    oooo@@@@oooo@@@@@@@@        @@@@@@@@@@@@oooo@@@@    ....OOOOOOOO....OOOO############OOOOOOOOOOOOOOOO",
"OOOOOOOOOOOOOOOOOOOOOOOO    oooo@@@@oooo@@@@@@@@        @@@@@@@@@@@@oooo@@@@    ....OOOOOOOO....OOOO############OOOOOOOOOOOOOOOO",
"OOOOOOOOOOOOOOOOOOOOOOOO    oooo@@@@oooo@@@@@@@@        @@@@@@@@@@@@oooo@@@@    ....OOOOOOOO....OOOO############OOOOOOOOOOOOOOOO",
"OOOOOOOOOOOOOOOOOOOOOOOO    oooo@@@@oooo@@@@@@@@        @@@@@@@@@@@@oooo@@@@    ....OOOOOOOO....OOOO############OOOOOOOOOOOOOOOO",
"OOOO############OOOOOOOO    oooo@@@@oooo@@@@@@@@        @@@@@@@@@@@@oooo@@@@    OOOOOOOOOOOO....OOOOOOOOOOOOOOOOOOOOOOOOOOOOOOOO",
"OOOO############OOOOOOOO    oooo@@@@oooo@@@@@@@@        @@@@@@@@@@@@oooo@@@@    OOOOOOOOOOOO....OOOOOOOOOOOOOOOOOOOOOOOOOOOOOOOO",
"OOOO############OOOOOOOO    oooo@@@@oooo@@@@@@@@        @@@@@@@@@@@@oooo@@@@    OOOOOOOOOOOO....OOOOOOOOOOOOOOOOOOOOOOOOOOOOOOOO",
"OOOO############OOOOOOOO    oooo@@@@oooo@@@@@@@@        @@@@@@@@@@@@oooo@@@@    OOOOOOOOOOOO....OOOOOOOOOOOOOOOOOOOOOOOOOOOOOOOO",
"OOOOOOOOOOOOOOOOOOOOOOOOOOOO    @@@@oooo@@@@    OOOOOOOO    @@@@@@@@oooo    OOOOOOOOOOOOOOOOOOOO....OOOOOOOOOOOOOOOOOOOOOOOOOOOO",
"OOOOOOOOOOOOOOOOOOOOOOOOOOOO    @@@@oooo@@@@    OOOOOOOO    @@@@@@@@oooo    OOOOOOOOOOOOOOOOOOOO....OOOOOOOOOOOOOOOOOOOOOOOOOOOO",
"OOOOOOOOOOOOOOOOOOOOOOOOOOOO    @@@@oooo@@@@    OOOOOOOO    @@@@@@@@oooo    OOOOOOOOOOOOOOOOOOOO....OOOOOOOOOOOOOOOOOOOOOOOOOOOO",
"OOOOOOOOOOOOOOOOOOOOOOOOOOOO    @@@@oooo@@@@    OOOOOOOO    @@@@@@@@oooo    OOOOOOOOOOOOOOOOOOOO....OOOOOOOOOOOOOOOOOOOOOOOOOOOO",
"................................            ................            ........................................................",
"................................            ................            ........................................................",
"................................            ................            ........................................................",
"................................            ................            ........................................................"
};
