/* XPM */
static char *c7b5de91c5c74e0fefec964c74994284APKfW3QZXK7G1cp5[] = {
/* columns rows colors chars-per-pixel */
"128 128 31 1 ",
"  c None",
". c gray1",
"X c #28150C",
"o c #462515",
"O c #61331C",
"+ c #365373",
"@ c #6A7174",
"# c #308A60",
"$ c #319760",
"% c #448379",
"& c #50AA77",
"* c #52B677",
"= c #9D8574",
"- c #53599D",
"; c #57738A",
": c #5E5DAD",
"> c #7378B4",
", c #7E7CC4",
"< c #3FB082",
"1 c #3E91BB",
"2 c #529C9A",
"3 c #6B84A9",
"4 c #7995A2",
"5 c #6DB4A8",
"6 c #81B5A3",
"7 c #81BBA3",
"8 c #8BB1AF",
"9 c #96D4BA",
"0 c #92BEC0",
"q c #9FCAC7",
"w c #9FC5D7",
/* pixels */
"                                                                                                                                ",
"                                                                                                                                ",
"                                                                                                                                ",
"                                                                                                                                ",
"                                                                                                                                ",
"                                                                                                                                ",
"                                                                                                                                ",
"                                                                                                                                ",
"                                                    XXXXXXXXXXXXXXXXXXXX                                                        ",
"                                                    XXXXXXXXXXXXXXXXXXXX                                                        ",
"                                                    XXXXXXXXXXXXXXXXXXXX                                                        ",
"                                                    XXXXXXXXXXXXXXXXXXXX                                                        ",
"                                                XXXX================OOOOXXXX                                                    ",
"                                                XXXX================OOOOXXXX                                                    ",
"                                                XXXX================OOOOXXXX                                                    ",
"                                                XXXX================OOOOXXXX                                                    ",
"                    ........                XXXX====OOOOOOOOOOOOOOOOOOOOOOOOXXXX                ........                        ",
"                    ........                XXXX====OOOOOOOOOOOOOOOOOOOOOOOOXXXX                ........                        ",
"                    ........                XXXX====OOOOOOOOOOOOOOOOOOOOOOOOXXXX                ........                        ",
"                    ........                XXXX====OOOOOOOOOOOOOOOOOOOOOOOOXXXX                ........                        ",
"                ....wwww1111....            XXXXXXXXOOOOOOOOOOOOOOOOOOOOXXXXXXXX            ....11111111....                    ",
"                ....wwww1111....            XXXXXXXXOOOOOOOOOOOOOOOOOOOOXXXXXXXX            ....11111111....                    ",
"                ....wwww1111....            XXXXXXXXOOOOOOOOOOOOOOOOOOOOXXXXXXXX            ....11111111....                    ",
"                ....wwww1111....            XXXXXXXXOOOOOOOOOOOOOOOOOOOOXXXXXXXX            ....11111111....                    ",
"                ....111111111111............XXXXooooXXXXXXXXXXXXXXXXXXXXooooXXXX............111111111111....                    ",
"                ....111111111111............XXXXooooXXXXXXXXXXXXXXXXXXXXooooXXXX............111111111111....                    ",
"                ....111111111111............XXXXooooXXXXXXXXXXXXXXXXXXXXooooXXXX............111111111111....                    ",
"                ....111111111111............XXXXooooXXXXXXXXXXXXXXXXXXXXooooXXXX............111111111111....                    ",
"                    ....111111111111111111111111XXXXooooooooooooooooooooXXXX111111111111111111111111....                        ",
"                    ....111111111111111111111111XXXXooooooooooooooooooooXXXX111111111111111111111111....                        ",
"                    ....111111111111111111111111XXXXooooooooooooooooooooXXXX111111111111111111111111....                        ",
"                    ....111111111111111111111111XXXXooooooooooooooooooooXXXX111111111111111111111111....                        ",
"                        ....11111111wwww22222222....oooooooooooooooooooo....22222222wwww11111111....                            ",
"                        ....11111111wwww22222222....oooooooooooooooooooo....22222222wwww11111111....                            ",
"                        ....11111111wwww22222222....oooooooooooooooooooo....22222222wwww11111111....                            ",
"                        ....11111111wwww22222222....oooooooooooooooooooo....22222222wwww11111111....                            ",
"                        ....1111000022222222....2222@@@@............44442222....22222222wwww1111....                            ",
"                        ....1111000022222222....2222@@@@............44442222....22222222wwww1111....                            ",
"                        ....1111000022222222....2222@@@@............44442222....22222222wwww1111....                            ",
"                        ....1111000022222222....2222@@@@............44442222....22222222wwww1111....                            ",
"                        ....22222222<<<<<<<<....qqqq22222222222222222222qqqq....2222<<<<22221111....                            ",
"                        ....22222222<<<<<<<<....qqqq22222222222222222222qqqq....2222<<<<22221111....                            ",
"                        ....22222222<<<<<<<<....qqqq22222222222222222222qqqq....2222<<<<22221111....                            ",
"                        ....22222222<<<<<<<<....qqqq22222222222222222222qqqq....2222<<<<22221111....                            ",
"                        ....22229999<<<<<<<<<<<<....qqqq555555555555qqqq....<<<<<<<<<<<<99992222....                            ",
"                        ....22229999<<<<<<<<<<<<....qqqq555555555555qqqq....<<<<<<<<<<<<99992222....                            ",
"                        ....22229999<<<<<<<<<<<<....qqqq555555555555qqqq....<<<<<<<<<<<<99992222....                            ",
"                        ....22229999<<<<<<<<<<<<....qqqq555555555555qqqq....<<<<<<<<<<<<99992222....                            ",
"                        ....<<<<<<<<9999<<<<<<<<<<<<....................<<<<<<<<<<<<9999<<<<<<<<....                            ",
"                        ....<<<<<<<<9999<<<<<<<<<<<<....................<<<<<<<<<<<<9999<<<<<<<<....                            ",
"                        ....<<<<<<<<9999<<<<<<<<<<<<....................<<<<<<<<<<<<9999<<<<<<<<....                            ",
"                        ....<<<<<<<<9999<<<<<<<<<<<<....................<<<<<<<<<<<<9999<<<<<<<<....                            ",
"                        ....<<<<<<<<<<<<<<<<<<<<<<<<<<<<<<<<<<<<<<<<<<<<<<<<<<<<<<<<<<<<<<<<<<<<....                            ",
"                        ....<<<<<<<<<<<<<<<<<<<<<<<<<<<<<<<<<<<<<<<<<<<<<<<<<<<<<<<<<<<<<<<<<<<<....                            ",
"                        ....<<<<<<<<<<<<<<<<<<<<<<<<<<<<<<<<<<<<<<<<<<<<<<<<<<<<<<<<<<<<<<<<<<<<....                            ",
"                        ....<<<<<<<<<<<<<<<<<<<<<<<<<<<<<<<<<<<<<<<<<<<<<<<<<<<<<<<<<<<<<<<<<<<<....                            ",
"                    ....11111111............................................................11111111....                        ",
"                    ....11111111............................................................11111111....                        ",
"                    ....11111111............................................................11111111....                        ",
"                    ....11111111............................................................11111111....                        ",
"                ....wwww1111....$$$$$$$$$$$$$$$$$$$$$$$$++++++++++++++++$$$$$$$$$$$$$$$$$$$$....1111wwww....                    ",
"                ....wwww1111....$$$$$$$$$$$$$$$$$$$$$$$$++++++++++++++++$$$$$$$$$$$$$$$$$$$$....1111wwww....                    ",
"                ....wwww1111....$$$$$$$$$$$$$$$$$$$$$$$$++++++++++++++++$$$$$$$$$$$$$$$$$$$$....1111wwww....                    ",
"                ....wwww1111....$$$$$$$$$$$$$$$$$$$$$$$$++++++++++++++++$$$$$$$$$$$$$$$$$$$$....1111wwww....                    ",
"                ............$$$$$$$$$$$$$$$$$$$$$$$$++++----::::::::----++++$$$$****$$$$$$$$$$$$............                    ",
"                ............$$$$$$$$$$$$$$$$$$$$$$$$++++----::::::::----++++$$$$****$$$$$$$$$$$$............                    ",
"                ............$$$$$$$$$$$$$$$$$$$$$$$$++++----::::::::----++++$$$$****$$$$$$$$$$$$............                    ",
"                ............$$$$$$$$$$$$$$$$$$$$$$$$++++----::::::::----++++$$$$****$$$$$$$$$$$$............                    ",
"                ....77777777$$$$$$$$$$$$$$$$$$$$++++----::::::::::::::::----++++$$$$****$$$$$$$$77777777....                    ",
"                ....77777777$$$$$$$$$$$$$$$$$$$$++++----::::::::::::::::----++++$$$$****$$$$$$$$77777777....                    ",
"                ....77777777$$$$$$$$$$$$$$$$$$$$++++----::::::::::::::::----++++$$$$****$$$$$$$$77777777....                    ",
"                ....77777777$$$$$$$$$$$$$$$$$$$$++++----::::::::::::::::----++++$$$$****$$$$$$$$77777777....                    ",
"                ....8888$$$$$$$$$$$$$$$$****$$$$++++::::::::::::::::::::::::++++$$$$$$$$****$$$$$$$$8888....                    ",
"                ....8888$$$$$$$$$$$$$$$$****$$$$++++::::::::::::::::::::::::++++$$$$$$$$****$$$$$$$$8888....                    ",
"                ....8888$$$$$$$$$$$$$$$$****$$$$++++::::::::::::::::::::::::++++$$$$$$$$****$$$$$$$$8888....                    ",
"                ....8888$$$$$$$$$$$$$$$$****$$$$++++::::::::::::::::::::::::++++$$$$$$$$****$$$$$$$$8888....                    ",
"                    ....%%%%$$$$$$$$$$$$$$$$;;;;,,,,::::::::::::::::::::::::::::++++$$$$$$$$$$$$%%%%....                        ",
"                    ....%%%%$$$$$$$$$$$$$$$$;;;;,,,,::::::::::::::::::::::::::::++++$$$$$$$$$$$$%%%%....                        ",
"                    ....%%%%$$$$$$$$$$$$$$$$;;;;,,,,::::::::::::::::::::::::::::++++$$$$$$$$$$$$%%%%....                        ",
"                    ....%%%%$$$$$$$$$$$$$$$$;;;;,,,,::::::::::::::::::::::::::::++++$$$$$$$$$$$$%%%%....                        ",
"                        ....%%%%$$$$$$$$$$$$++++>>>>,,,,::::::::::::::::::::----++++$$$$$$$$%%%%....                            ",
"                        ....%%%%$$$$$$$$$$$$++++>>>>,,,,::::::::::::::::::::----++++$$$$$$$$%%%%....                            ",
"                        ....%%%%$$$$$$$$$$$$++++>>>>,,,,::::::::::::::::::::----++++$$$$$$$$%%%%....                            ",
"                        ....%%%%$$$$$$$$$$$$++++>>>>,,,,::::::::::::::::::::----++++$$$$$$$$%%%%....                            ",
"                        ....########$$$$$$$$++++----;;;;>>>>------------++++----++++############....                            ",
"                        ....########$$$$$$$$++++----;;;;>>>>------------++++----++++############....                            ",
"                        ....########$$$$$$$$++++----;;;;>>>>------------++++----++++############....                            ",
"                        ....########$$$$$$$$++++----;;;;>>>>------------++++----++++############....                            ",
"                        ....$$$$############++++++++3333;;;;>>>>----++++3333++++++++############....                            ",
"                        ....$$$$############++++++++3333;;;;>>>>----++++3333++++++++############....                            ",
"                        ....$$$$############++++++++3333;;;;>>>>----++++3333++++++++############....                            ",
"                        ....$$$$############++++++++3333;;;;>>>>----++++3333++++++++############....                            ",
"                        ....####$$$$$$$$&&&&++++----++++---->>>>>>>>----++++----++++############....                            ",
"                        ....####$$$$$$$$&&&&++++----++++---->>>>>>>>----++++----++++############....                            ",
"                        ....####$$$$$$$$&&&&++++----++++---->>>>>>>>----++++----++++############....                            ",
"                        ....####$$$$$$$$&&&&++++----++++---->>>>>>>>----++++----++++############....                            ",
"                        ....############$$$$&&&&++++--------++++>>>>>>>>----++++################....                            ",
"                        ....############$$$$&&&&++++--------++++>>>>>>>>----++++################....                            ",
"                        ....############$$$$&&&&++++--------++++>>>>>>>>----++++################....                            ",
"                        ....############$$$$&&&&++++--------++++>>>>>>>>----++++################....                            ",
"                        ....########################++++------------>>>>++++++++$$$$$$$$########....                            ",
"                        ....########################++++------------>>>>++++++++$$$$$$$$########....                            ",
"                        ....########################++++------------>>>>++++++++$$$$$$$$########....                            ",
"                        ....########################++++------------>>>>++++++++$$$$$$$$########....                            ",
"                        ....############################++++--------++++&&&&####################....                            ",
"                        ....############################++++--------++++&&&&####################....                            ",
"                        ....############################++++--------++++&&&&####################....                            ",
"                        ....############################++++--------++++&&&&####################....                            ",
"                        ....$$$$$$$$####################++++--------++++########################....                            ",
"                        ....$$$$$$$$####################++++--------++++########################....                            ",
"                        ....$$$$$$$$####################++++--------++++########################....                            ",
"                        ....$$$$$$$$####################++++--------++++########################....                            ",
"                    ....6666########$$$$$$$$$$$$############++++++++####$$$$$$$$$$$$$$$$########6666....                        ",
"                    ....6666########$$$$$$$$$$$$############++++++++####$$$$$$$$$$$$$$$$########6666....                        ",
"                    ....6666########$$$$$$$$$$$$############++++++++####$$$$$$$$$$$$$$$$########6666....                        ",
"                    ....6666########$$$$$$$$$$$$############++++++++####$$$$$$$$$$$$$$$$########6666....                        ",
"                ....6666############################################################################6666....                    ",
"                ....6666############################################################################6666....                    ",
"                ....6666############################################################################6666....                    ",
"                ....6666############################################################################6666....                    ",
"                ....####################################################################################....                    ",
"                ....####################################################################################....                    ",
"                ....####################################################################################....                    ",
"                ....####################################################################################....                    ",
"                    ....................................................................................                        ",
"                    ....................................................................................                        ",
"                    ....................................................................................                        ",
"                    ....................................................................................                        "
};
