/* XPM */
static char *result[] = {
/* columns rows colors chars-per-pixel */
"128 128 38 1 ",
"  c gray1",
". c #180B13",
"X c #231600",
"o c #28150C",
"O c #3F1F26",
"+ c #351E29",
"@ c #462515",
"# c #61331C",
"$ c #5D3C2D",
"% c #4C2C34",
"& c #713F27",
"* c #365373",
"= c #6A7174",
"- c #8A5942",
"; c #308A60",
": c #319760",
"> c #448379",
", c #50AA77",
"< c #52B677",
"1 c #9D8574",
"2 c #53599D",
"3 c #57738A",
"4 c #5E5DAD",
"5 c #7378B4",
"6 c #7E7CC4",
"7 c #3FB082",
"8 c #3E91BB",
"9 c #529C9A",
"0 c #6B84A9",
"q c #7995A2",
"w c #6DB4A8",
"e c #81B5A3",
"r c #81BBA3",
"t c #8BB1AF",
"y c #96D4BA",
"u c #92BEC0",
"i c #9FCAC7",
"p c #9FC5D7",
/* pixels */
"XXXX----$$$$$$$$$$$$&&&&&&&&$$$$$$$$$$$$$$$$$$$$$$$$$$$$XXXXXXXX----$$$$$$$$$$$$$$$$$$$$&&&&$$$$$$$$$$$$$$$$$$$$$$$$$$$$----XXXX",
"XXXX----$$$$$$$$$$$$&&&&&&&&$$$$$$$$$$$$$$$$$$$$$$$$$$$$XXXXXXXX----$$$$$$$$$$$$$$$$$$$$&&&&$$$$$$$$$$$$$$$$$$$$$$$$$$$$----XXXX",
"XXXX----$$$$$$$$$$$$&&&&&&&&$$$$$$$$$$$$$$$$$$$$$$$$$$$$XXXXXXXX----$$$$$$$$$$$$$$$$$$$$&&&&$$$$$$$$$$$$$$$$$$$$$$$$$$$$----XXXX",
"XXXX----$$$$$$$$$$$$&&&&&&&&$$$$$$$$$$$$$$$$$$$$$$$$$$$$XXXXXXXX----$$$$$$$$$$$$$$$$$$$$&&&&$$$$$$$$$$$$$$$$$$$$$$$$$$$$----XXXX",
"&&&&XXXX----$$$$$$$$$$$$$$$$$$$$$$$$$$$$$$$$$$$$----XXXX&&&&----XXXX----$$$$$$$$$$$$$$$$$$$$&&&&$$$$$$$$$$$$$$$$$$$$----XXXX----",
"&&&&XXXX----$$$$$$$$$$$$$$$$$$$$$$$$$$$$$$$$$$$$----XXXX&&&&----XXXX----$$$$$$$$$$$$$$$$$$$$&&&&$$$$$$$$$$$$$$$$$$$$----XXXX----",
"&&&&XXXX----$$$$$$$$$$$$$$$$$$$$$$$$$$$$$$$$$$$$----XXXX&&&&----XXXX----$$$$$$$$$$$$$$$$$$$$&&&&$$$$$$$$$$$$$$$$$$$$----XXXX----",
"&&&&XXXX----$$$$$$$$$$$$$$$$$$$$$$$$$$$$$$$$$$$$----XXXX&&&&----XXXX----$$$$$$$$$$$$$$$$$$$$&&&&$$$$$$$$$$$$$$$$$$$$----XXXX----",
"----&&&&XXXX----$$$$$$$$$$$$$$$$$$$$$$$$$$$$----XXXX&&&&------------XXXX----$$$$$$$$$$$$$$$$$$$$$$$$$$$$$$$$$$$$----XXXX----$$$$",
"----&&&&XXXX----$$$$$$$$$$$$$$$$$$$$$$$$$$$$----XXXX&&&&------------XXXX----$$$$$$$$$$$$$$$$$$$$$$$$$$$$$$$$$$$$----XXXX----$$$$",
"----&&&&XXXX----$$$$$$$$$$$$$$$$$$$$$$$$$$$$----XXXX&&&&------------XXXX----$$$$$$$$$$$$$$$$$$$$$$$$$$$$$$$$$$$$----XXXX----$$$$",
"----&&&&XXXX----$$$$$$$$$$$$$$$$$$$$$$$$$$$$----XXXX&&&&------------XXXX----$$$$$$$$$$$$$$$$$$$$$$$$$$$$$$$$$$$$----XXXX----$$$$",
"--------&&&&XXXX----$$$$$$$$$$$$$$$$$$$$----XXXX&&&&--------------------XXXX$$$$$$$$$$$$$$$$$$$$$$$$$$$$$$$$----XXXX----$$$$$$$$",
"--------&&&&XXXX----$$$$$$$$$$$$$$$$$$$$----XXXX&&&&--------------------XXXX$$$$$$$$$$$$$$$$$$$$$$$$$$$$$$$$----XXXX----$$$$$$$$",
"--------&&&&XXXX----$$$$$$$$$$$$$$$$$$$$----XXXX&&&&--------------------XXXX$$$$$$$$$$$$$$$$$$$$$$$$$$$$$$$$----XXXX----$$$$$$$$",
"--------&&&&XXXX----$$$$$$$$$$$$$$$$$$$$----XXXX&&&&--------------------XXXX$$$$$$$$$$$$$$$$$$$$$$$$$$$$$$$$----XXXX----$$$$$$$$",
"------------&&&&XXXX$$$$$$$$$$$$$$$$----XXXX&&&&----------------------------XXXX$$$$$$$$$$$$$$$$$$$$$$$$----XXXX----$$$$$$$$$$$$",
"------------&&&&XXXX$$$$$$$$$$$$$$$$----XXXX&&&&----------------------------XXXX$$$$$$$$$$$$$$$$$$$$$$$$----XXXX----$$$$$$$$$$$$",
"------------&&&&XXXX$$$$$$$$$$$$$$$$----XXXX&&&&----------------------------XXXX$$$$$$$$$$$$$$$$$$$$$$$$----XXXX----$$$$$$$$$$$$",
"------------&&&&XXXX$$$$$$$$$$$$$$$$----XXXX&&&&----------------------------XXXX$$$$$$$$$$$$$$$$$$$$$$$$----XXXX----$$$$$$$$$$$$",
"----------------&&&&XXXX$$$$$$$$$$$$XXXX&&&&------------------------------------XXXX$$$$$$$$$$$$$$$$----XXXX----$$$$$$$$&&&&$$$$",
"----------------&&&&XXXX$$$$$$$$$$$$XXXX&&&&------------------------------------XXXX$$$$$$$$$$$$$$$$----XXXX----$$$$$$$$&&&&$$$$",
"----------------&&&&XXXX$$$$$$$$$$$$XXXX&&&&------------------------------------XXXX$$$$$$$$$$$$$$$$----XXXX----$$$$$$$$&&&&$$$$",
"----------------&&&&XXXX$$$$$$$$$$$$XXXX&&&&------------------------------------XXXX$$$$$$$$$$$$$$$$----XXXX----$$$$$$$$&&&&$$$$",
"--------------------&&&&XXXX$$$$XXXX&&&&--------------------------------------------XXXX$$$$$$$$----XXXX----$$$$$$$$$$$$$$$$$$$$",
"--------------------&&&&XXXX$$$$XXXX&&&&--------------------------------------------XXXX$$$$$$$$----XXXX----$$$$$$$$$$$$$$$$$$$$",
"--------------------&&&&XXXX$$$$XXXX&&&&--------------------------------------------XXXX$$$$$$$$----XXXX----$$$$$$$$$$$$$$$$$$$$",
"--------------------&&&&XXXX$$$$XXXX&&&&--------------------------------------------XXXX$$$$$$$$----XXXX----$$$$$$$$$$$$$$$$$$$$",
"----------------------------XXXX&&&&&&&&------------------------------------------------XXXX----XXXX----$$$$$$$$$$$$$$$$$$$$$$$$",
"----------------------------XXXX&&&&&&&&------------------------------------------------XXXX----XXXX----$$$$$$$$$$$$$$$$$$$$$$$$",
"----------------------------XXXX&&&&&&&&------------------------------------------------XXXX----XXXX----$$$$$$$$$$$$$$$$$$$$$$$$",
"----------------------------XXXX&&&&&&&&------------------------------------------------XXXX----XXXX----$$$$$$$$$$$$$$$$$$$$$$$$",
"----------------------------&&&&XXXX&&&&------------------------------------------------&&&&XXXX----$$$$$$$$$$$$$$$$&&&&$$$$$$$$",
"----------------------------&&&&XXXX&&&&------------------------------------------------&&&&XXXX----$$$$$$$$$$$$$$$$&&&&$$$$$$$$",
"----------------------------&&&&XXXX&&&&-------------------oooooooooo-------------------&&&&XXXX----$$$$$$$$$$$$$$$$&&&&$$$$$$$$",
"----------------------------&&&&XXXX&&&&-------------------oooooooooo-------------------&&&&XXXX----$$$$$$$$$$$$$$$$&&&&$$$$$$$$",
"----------------------------&&&&XXXXXXXX&&&&-------------oo11111111##oo---------------------&&&&XXXX$$$$$$$$$$$$$$$$$$$$&&&&&&&&",
"----------------------------&&&&XXXXXXXX&&&&-------------oo11111111##oo---------------------&&&&XXXX$$$$$$$$$$$$$$$$$$$$&&&&&&&&",
"----------------------------&&&&XXXXXXXX&&&    --------oo11############oo--------    -------&&&&XXXX$$$$$$$$$$$$$$$$$$$$&&&&&&&&",
"----------------------------&&&&XXXXXXXX&&&    --------oo11############oo--------    -------&&&&XXXX$$$$$$$$$$$$$$$$$$$$&&&&&&&&",
"------------------------&&&&XXXX----$$$$X  pp88  ------oooo##########oooo------  8888  ---------&&&&XXXX$$$$$$$$$$$$$$$$$$$$&&&&",
"------------------------&&&&XXXX----$$$$X  pp88  ------oooo##########oooo------  8888  ---------&&&&XXXX$$$$$$$$$$$$$$$$$$$$&&&&",
"------------------------&&&&XXXX----$$$$X  888888      oo@@oooooooooo@@oo      888888  ---------&&&&XXXX$$$$$$$$$$$$$$$$$$$$&&&&",
"------------------------&&&&XXXX----$$$$X  888888      oo@@oooooooooo@@oo      888888  ---------&&&&XXXX$$$$$$$$$$$$$$$$$$$$&&&&",
"--------------------&&&&XXXX----$$$$$$$$$$$  888888888888oo@@@@@@@@@@oo888888888888  ---------------&&&&XXXX----$$$$$$$$$$$$$$$$",
"--------------------&&&&XXXX----$$$$$$$$$$$  888888888888oo@@@@@@@@@@oo888888888888  ---------------&&&&XXXX----$$$$$$$$$$$$$$$$",
"--------------------&&&&XXXX----$$$$$$$$$$$$X  8888pp9999  @@@@@@@@@@  9999pp8888  -----------------&&&&XXXX----$$$$$$$$$$$$$$$$",
"--------------------&&&&XXXX----$$$$$$$$$$$$X  8888pp9999  @@@@@@@@@@  9999pp8888  -----------------&&&&XXXX----$$$$$$$$$$$$$$$$",
"&&&&------------&&&&XXXX----$$$$$$$$$$$$$$$$$  88uu9999  99==      qq99  9999pp88  ---------------------&&&&XXXX----$$$$$$$$$$$$",
"&&&&------------&&&&XXXX----$$$$$$$$$$$$$$$$$  88uu9999  99==      qq99  9999pp88  ---------------------&&&&XXXX----$$$$$$$$$$$$",
"&&&&------------&&&&XXXX----$$$$$$$$$$$$$$$$$  99997777  ii9999999999ii  99779988  ---------------------&&&&XXXX----$$$$$$$$$$$$",
"&&&&------------&&&&XXXX----$$$$$$$$$$$$$$$$$  99997777  ii9999999999ii  99779988  ---------------------&&&&XXXX----$$$$$$$$$$$$",
"XXXX&&&&--------XXXX----$$$$$$$$$$$$$$$$$$$$$  99yy777777  iiwwwwwwii  777777yy99  -------------------------&&&&XXXX----$$$$$$$$",
"XXXX&&&&--------XXXX----$$$$$$$$$$$$$$$$$$$$$  99yy777777  iiwwwwwwii  777777yy99  -------------------------&&&&XXXX----$$$$$$$$",
"XXXX&&&&--------XXXX----$$$$$$$$$$$$$$$$$$$$$  7777yy777777          777777yy7777  -------------------------&&&&XXXX----$$$$$$$$",
"XXXX&&&&--------XXXX----$$$$$$$$$$$$$$$$$$$$$  7777yy777777          777777yy7777  -------------------------&&&&XXXX----$$$$$$$$",
"$$$$XXXX&&&&XXXX----$$$$$$$$$$$$$$$$$$$$$$$$$  7777777777777777777777777777777777  -----------------------------&&&&XXXX----$$$$",
"$$$$XXXX&&&&XXXX----$$$$$$$$$$$$$$$$$$$$$$$$$  7777777777777777777777777777777777  -----------------------------&&&&XXXX----$$$$",
"$$$$XXXX&&&&XXXX----$$$$$$$$$$$$$$$$$$$$$$$  8888                              8888  ---------------------------&&&&XXXX----$$$$",
"$$$$XXXX&&&&XXXX----$$$$$$$$$$$$$$$$$$$$$$$  8888                              8888  ---------------------------&&&&XXXX----$$$$",
"$$$$$$$$XXXX----$$$$$$$$$$$$$$$$$$$$$$$$$  pp88  ::::::::::::********::::::::::  88pp  -------------------------XXXX----XXXX----",
"$$$$$$$$XXXX----$$$$$$$$$$$$$$$$$$$$$$$$$  pp88  ::::::::::::********::::::::::  88pp  -------------------------XXXX----XXXX----",
"$$$$$$$$XXXX----$$$$$$$$$$$$$$$$$$$$$$$$$      ::::::::::::**22444422**::<<::::::      -------------------------XXXX----XXXX----",
"$$$$$$$$XXXX----$$$$$$$$$$$$$$$$$$$$$$$$$      ::::::::::::**22444422**::<<::::::      -------------------------XXXX----XXXX----",
"$$$$$$$$----XXXX$$$$$$$$$$$$$$$$$$$$$$$$&  rrrr::::::::::**224444444422**::<<::::rrrr  ---------------------XXXX----$$$$$$$$XXXX",
"$$$$$$$$----XXXX$$$$$$$$$$$$$$$$$$$$$$$$&  rrrr::::::::::**224444444422**::<<::::rrrr  ---------------------XXXX----$$$$$$$$XXXX",
"$$$$$$$$----XXXX$$$$$$$$$$$$$$$$$$$$$$$$&  tt::::::::<<::**444444444444**::::<<::::tt  ---------------------XXXX----$$$$$$$$XXXX",
"$$$$$$$$----XXXX$$$$$$$$$$$$$$$$$$$$$$$$&  tt::::::::<<::**444444444444**::::<<::::tt  ---------------------XXXX----$$$$$$$$XXXX",
"&&&&$$$$$$$$----XXXX$$$$$$$$$$$$$$$$$$$$$$$  >>::::::::336644444444444444**::::::>>  -------------------XXXX----$$$$$$$$$$$$$$$$",
"&&&&$$$$$$$$----XXXX$$$$$$$$$$$$$$$$$$$$$$$  >>::::::::336644444444444444**::::::>>  -------------------XXXX----$$$$$$$$$$$$$$$$",
"&&&&$$$$$$$$----XXXX$$$$$$$$$$$$$$$$$$$$$$$$&  >>::::::**5566444444444422**::::>>  ---------------------XXXX----$$$$$$$$$$$$$$$$",
"&&&&$$$$$$$$----XXXX$$$$$$$$$$$$$$$$$$$$$$$$&  >>::::::**5566444444444422**::::>>  ---------------------XXXX----$$$$$$$$$$$$$$$$",
"$$$$&&&&$$$$$$$$----XXXX----$$$$$$$$$$$$$$$$$  ;;;;::::**223355222222**22**;;;;;;  -----------------XXXX----$$$$$$$$$$$$$$$$$$$$",
"$$$$&&&&$$$$$$$$----XXXX----$$$$$$$$$$$$$$$$$  ;;;;::::**223355222222**22**;;;;;;  -----------------XXXX----$$$$$$$$$$$$$$$$$$$$",
"$$$$&&&&$$$$$$$$----XXXX----$$$$$$$$$$$$$$$$$  ::;;;;;;****00335522**00****;;;;;;  -----------------XXXX----$$$$$$$$$$$$$$$$$$$$",
"$$$$&&&&$$$$$$$$----XXXX----$$$$$$$$$$$$$$$$$  ::;;;;;;****00335522**00****;;;;;;  -----------------XXXX----$$$$$$$$$$$$$$$$$$$$",
"$$$$$$$$$$$$$$$$$$$$----XXXX----$$$$$$$$$$$$$  ;;::::,,**22**22555522**22**;;;;;;  &------------XXXX----$$$$$$$$$$$$&&&&$$$$$$$$",
"$$$$$$$$$$$$$$$$$$$$----XXXX----$$$$$$$$$$$$$  ;;::::,,**22**22555522**22**;;;;;;  &------------XXXX----$$$$$$$$$$$$&&&&$$$$$$$$",
"$$$$$$$$$$$$$$$$$$$$----XXXX----$$$$$$$$$$$$$  ;;;;;;::,,**2222**555522**;;;;;;;;  &------------XXXX----$$$$$$$$$$$$&&&&$$$$$$$$",
"$$$$$$$$$$$$$$$$$$$$----XXXX----$$$$$$$$$$$$$  ;;;;;;::,,**2222**555522**;;;;;;;;  &------------XXXX----$$$$$$$$$$$$&&&&$$$$$$$$",
"$$$$$$$$$$$$$$$$$$$$$$$$$$$$XXXX----$$$$$$$$+  ;;;;;;;;;;;;**22222255****::::;;;;  X&&&&&&&&XXXX----$$$$$$$$$$$$$$$$$$$$&&&&&&&&",
"$$$$$$$$$$$$$$$$$$$$$$$$$$$$XXXX----$$$$$$$++  ;;;;;;;;;;;;**22222255****::::;;;;  .&&&&&&&&XXXX----$$$$$$$$$$$$$$$$$$$$&&&&&&&&",
"$$$$$$$$$$$$$$$$$$$$$$$$$$$$XXXX----$$$$$++++  ;;;;;;;;;;;;;;**2222**,,;;;;;;;;;;  .OO&&&&&&XXXX----$$$$$$$$$$$$$$$$$$$$&&&&&&&&",
"$$$$$$$$$$$$$$$$$$$$$$$$$$$$XXXX----$$$$+++++  ;;;;;;;;;;;;;;**2222**,,;;;;;;;;;;  .OOO&&&&&XXXX----$$$$$$$$$$$$$$$$$$$$&&&&&&&&",
"$$$$$$$$$$$$$$$$$$$$$$$$$$$$XXXXXXXX---%+++++  ::::;;;;;;;;;;**2222**;;;;;;;;;;;;  +....XXXX----$$$$$$$$$$$$$$$$$$$$$$$$$$$$$$$$",
"$$$$$$$$$$$$$$$$$$$$$$$$$$$$XXXXXXXX--%%+++++  ::::;;;;;;;;;;**2222**;;;;;;;;;;;;  +.....XXX----$$$$$$$$$$$$$$$$$$$$$$$$$$$$$$$$",
"$$$$$$$$$$$$$$$$$$$$$$$$$$$$XXXXXXXX-%%%+++  ee;;;;::::::;;;;;;****;;::::::::;;;;ee  .....XX----$$$$$$$$$$$$$$$$$$$$$$$$$$$$$$$$",
"$$$$$$$$$$$$$$$$$$$$$$$$$$$$XXXXXXXX-%%%+++  ee;;;;::::::;;;;;;****;;::::::::;;;;ee  .....XX----$$$$$$$$$$$$$$$$$$$$$$$$$$$$$$$$",
"$$$$&&&&&&&&$$$$$$$$$$$$XXXX----$$$$X...%  ee;;;;;;;;;;;;;;;;;;;;;;;;;;;;;;;;;;;;;;ee  +..XX----$$$$$$$$$$$$$$$$$$$$$$$$$$$$$$$$",
"$$$$&&&&&&&&$$$$$$$$$$$$XXXX----$$$$X...%  ee;;;;;;;;;;;;;;;;;;;;;;;;;;;;;;;;;;;;;;ee  +..XX----$$$$$$$$$$$$$$$$$$$$$$$$$$$$$$$$",
"$$$$&&&&&&&&$$$$$$$$$$$$XXXX----$$$$X...%  ;;;;;;;;;;;;;;;;;;;;;;;;;;;;;;;;;;;;;;;;;;  +..XX----$$$$$$$$$$$$$$$$$$$$$$$$$$$$$$$$",
"$$$$&&&&&&&&$$$$$$$$$$$$XXXX----$$$$XX..%  ;;;;;;;;;;;;;;;;;;;;;;;;;;;;;;;;;;;;;;;;;;  +.XXX----$$$$$$$$$$$$$$$$$$$$$$$$$$$$$$$$",
"$$$$$$$$$$$$$$$$$$$$XXXX----$$$$$$$$$$$+...                                          +++$$$$XXXX$$$$$$$$$$$$&&&&&&&&$$$$$$$$$$$$",
"$$$$$$$$$$$$$$$$$$$$XXXX----$$$$$$$$$$$$...                                          ++$$$$$XXXX$$$$$$$$$$$$&&&&&&&&$$$$$$$$$$$$",
"$$$$$$$$$$$$$$$$$$$$XXXX----$$$$$$$$$$$$X...%%%%++++++++++++++++++++++++++++++++++++++$$$$$$XXXX$$$$$$$$$$$$&&&&&&&&$$$$$$$$$$$$",
"$$$$$$$$$$$$$$$$$$$$XXXX----$$$$$$$$$$$$XXX.%%%%++++++++++++++++++++++++++++++++++++$$$$$$$$XXXX$$$$$$$$$$$$&&&&&&&&$$$$$$$$$$$$",
"$$$$$$$$$$$$$$$$XXXX----$$$$$$$$$$$$$$$$$$$$....%%%%+++++++++++++++++++++++++++++++$$$$$$$$$XXXXXXXX$$$$$$$$$$$$$$$$$$$$$$$$$$$$",
"$$$$$$$$$$$$$$$$XXXX----$$$$$$$$$$$$$$$$$$$$XXX.%%%%++++++++++++++++++++++++++++$$$$$$$$$$$$XXXXXXXX$$$$$$$$$$$$$$$$$$$$$$$$$$$$",
"$$$$$$$$$$$$$$$$XXXX----$$$$$$$$$$$$$$$$$$$$XXXX--%%+++++++++++++++++++++++++$$$$$$$$$$$$$$$XXXXXXXX$$$$$$$$$$$$$$$$$$$$$$$$$$$$",
"$$$$$$$$$$$$$$$$XXXX----$$$$$$$$$$$$$$$$$$$$XXXX----$$$$+++++++++++++++$$$$$$$$$$$$$$$$$$$$$XXXXXXXX$$$$$$$$$$$$$$$$$$$$$$$$$$$$",
"----$$$$$$$$XXXX----$$$$$$$$$$$$$$$$$$$$$$$$$$$$XXXX----$$$$$$$$$$$$$$$$$$$$$$$$$$$$$$$$XXXX&&&&&&&&XXXX$$$$$$$$$$$$$$$$$$$$$$$$",
"----$$$$$$$$XXXX----$$$$$$$$$$$$$$$$$$$$$$$$$$$$XXXX----$$$$$$$$$$$$$$$$$$$$$$$$$$$$$$$$XXXX&&&&&&&&XXXX$$$$$$$$$$$$$$$$$$$$$$$$",
"----$$$$$$$$XXXX----$$$$$$$$$$$$$$$$$$$$$$$$$$$$XXXX----$$$$$$$$$$$$$$$$$$$$$$$$$$$$$$$$XXXX&&&&&&&&XXXX$$$$$$$$$$$$$$$$$$$$$$$$",
"----$$$$$$$$XXXX----$$$$$$$$$$$$$$$$$$$$$$$$$$$$XXXX----$$$$$$$$$$$$$$$$$$$$$$$$$$$$$$$$XXXX&&&&&&&&XXXX$$$$$$$$$$$$$$$$$$$$$$$$",
"XXXX----XXXX----$$$$$$$$$$$$$$$$$$$$$$$$$$$$$$$$$$$$XXXX$$$$$$$$$$$$$$$$$$$$$$$$$$$$XXXX&&&&------------XXXX$$$$$$$$$$$$$$$$$$$$",
"XXXX----XXXX----$$$$$$$$$$$$$$$$$$$$$$$$$$$$$$$$$$$$XXXX$$$$$$$$$$$$$$$$$$$$$$$$$$$$XXXX&&&&------------XXXX$$$$$$$$$$$$$$$$$$$$",
"XXXX----XXXX----$$$$$$$$$$$$$$$$$$$$$$$$$$$$$$$$$$$$XXXX$$$$$$$$$$$$$$$$$$$$$$$$$$$$XXXX&&&&------------XXXX$$$$$$$$$$$$$$$$$$$$",
"XXXX----XXXX----$$$$$$$$$$$$$$$$$$$$$$$$$$$$$$$$$$$$XXXX$$$$$$$$$$$$$$$$$$$$$$$$$$$$XXXX&&&&------------XXXX$$$$$$$$$$$$$$$$$$$$",
"$$$$XXXX----$$$$$$$$$$$$$$$$$$$$$$$$$$$$$$$$$$$$$$$$$$$$XXXX$$$$$$$$$$$$$$$$$$$$XXXX&&&&--------------------XXXX----$$$$$$$$$$$$",
"$$$$XXXX----$$$$$$$$$$$$$$$$$$$$$$$$$$$$$$$$$$$$$$$$$$$$XXXX$$$$$$$$$$$$$$$$$$$$XXXX&&&&--------------------XXXX----$$$$$$$$$$$$",
"$$$$XXXX----$$$$$$$$$$$$$$$$$$$$$$$$$$$$$$$$$$$$$$$$$$$$XXXX$$$$$$$$$$$$$$$$$$$$XXXX&&&&--------------------XXXX----$$$$$$$$$$$$",
"$$$$XXXX----$$$$$$$$$$$$$$$$$$$$$$$$$$$$$$$$$$$$$$$$$$$$XXXX$$$$$$$$$$$$$$$$$$$$XXXX&&&&--------------------XXXX----$$$$$$$$$$$$",
"$$$$----XXXX----$$$$$$$$$$$$$$$$$$$$$$$$$$$$$$$$$$$$$$$$$$$$XXXX$$$$$$$$$$$$XXXX&&&&------------------------&&&&XXXX----$$$$$$$$",
"$$$$----XXXX----$$$$$$$$$$$$$$$$$$$$$$$$$$$$$$$$$$$$$$$$$$$$XXXX$$$$$$$$$$$$XXXX&&&&------------------------&&&&XXXX----$$$$$$$$",
"$$$$----XXXX----$$$$$$$$$$$$$$$$$$$$$$$$$$$$$$$$$$$$$$$$$$$$XXXX$$$$$$$$$$$$XXXX&&&&------------------------&&&&XXXX----$$$$$$$$",
"$$$$----XXXX----$$$$$$$$$$$$$$$$$$$$$$$$$$$$$$$$$$$$$$$$$$$$XXXX$$$$$$$$$$$$XXXX&&&&------------------------&&&&XXXX----$$$$$$$$",
"$$$$----XXXXXXXX----$$$$$$$$$$$$&&&&$$$$$$$$$$$$&&&&$$$$$$$$$$$$XXXX$$$$XXXX&&&&--------------------------------&&&&XXXX----$$$$",
"$$$$----XXXXXXXX----$$$$$$$$$$$$&&&&$$$$$$$$$$$$&&&&$$$$$$$$$$$$XXXX$$$$XXXX&&&&--------------------------------&&&&XXXX----$$$$",
"$$$$----XXXXXXXX----$$$$$$$$$$$$&&&&$$$$$$$$$$$$&&&&$$$$$$$$$$$$XXXX$$$$XXXX&&&&--------------------------------&&&&XXXX----$$$$",
"$$$$----XXXXXXXX----$$$$$$$$$$$$&&&&$$$$$$$$$$$$&&&&$$$$$$$$$$$$XXXX$$$$XXXX&&&&--------------------------------&&&&XXXX----$$$$",
"----XXXX--------XXXX----$$$$$$$$$$$$&&&&&&&&$$$$$$$$&&&&$$$$$$$$$$$$XXXX&&&&----------------------------------------&&&&XXXX----",
"----XXXX--------XXXX----$$$$$$$$$$$$&&&&&&&&$$$$$$$$&&&&$$$$$$$$$$$$XXXX&&&&----------------------------------------&&&&XXXX----",
"----XXXX--------XXXX----$$$$$$$$$$$$&&&&&&&&$$$$$$$$&&&&$$$$$$$$$$$$XXXX&&&&----------------------------------------&&&&XXXX----",
"----XXXX--------XXXX----$$$$$$$$$$$$&&&&&&&&$$$$$$$$&&&&$$$$$$$$$$$$XXXX&&&&----------------------------------------&&&&XXXX----",
"XXXX----$$$$$$$$$$$$XXXX----$$$$$$$$$$$$$$$$$$$$$$$$$$$$&&&&$$$$$$$$$$$$XXXX&&&&----------------------------------------&&&&XXXX",
"XXXX----$$$$$$$$$$$$XXXX----$$$$$$$$$$$$$$$$$$$$$$$$$$$$&&&&$$$$$$$$$$$$XXXX&&&&----------------------------------------&&&&XXXX",
"XXXX----$$$$$$$$$$$$XXXX----$$$$$$$$$$$$$$$$$$$$$$$$$$$$&&&&$$$$$$$$$$$$XXXX&&&&----------------------------------------&&&&XXXX",
"XXXX----$$$$$$$$$$$$XXXX----$$$$$$$$$$$$$$$$$$$$$$$$$$$$&&&&$$$$$$$$$$$$XXXX&&&&----------------------------------------&&&&XXXX"
};
