/* XPM */
static char *b1559c354e234d9b8b9269af952ed24959EPOWmhOX52J7PR[] = {
/* columns rows colors chars-per-pixel */
"128 128 4 1 ",
"  c #231600",
". c #5D3C2D",
"X c #713F27",
"o c #8A5942",
/* pixels */
"    oooo............XXXXXXXX............................        oooo....................XXXX............................oooo    ",
"    oooo............XXXXXXXX............................        oooo....................XXXX............................oooo    ",
"    oooo............XXXXXXXX............................        oooo....................XXXX............................oooo    ",
"    oooo............XXXXXXXX............................        oooo....................XXXX............................oooo    ",
"XXXX    oooo....................................oooo    XXXXoooo    oooo....................XXXX....................oooo    oooo",
"XXXX    oooo....................................oooo    XXXXoooo    oooo....................XXXX....................oooo    oooo",
"XXXX    oooo....................................oooo    XXXXoooo    oooo....................XXXX....................oooo    oooo",
"XXXX    oooo....................................oooo    XXXXoooo    oooo....................XXXX....................oooo    oooo",
"ooooXXXX    oooo............................oooo    XXXXoooooooooooo    oooo....................................oooo    oooo....",
"ooooXXXX    oooo............................oooo    XXXXoooooooooooo    oooo....................................oooo    oooo....",
"ooooXXXX    oooo............................oooo    XXXXoooooooooooo    oooo....................................oooo    oooo....",
"ooooXXXX    oooo............................oooo    XXXXoooooooooooo    oooo....................................oooo    oooo....",
"ooooooooXXXX    oooo....................oooo    XXXXoooooooooooooooooooo    ................................oooo    oooo........",
"ooooooooXXXX    oooo....................oooo    XXXXoooooooooooooooooooo    ................................oooo    oooo........",
"ooooooooXXXX    oooo....................oooo    XXXXoooooooooooooooooooo    ................................oooo    oooo........",
"ooooooooXXXX    oooo....................oooo    XXXXoooooooooooooooooooo    ................................oooo    oooo........",
"ooooooooooooXXXX    ................oooo    XXXXoooooooooooooooooooooooooooo    ........................oooo    oooo............",
"ooooooooooooXXXX    ................oooo    XXXXoooooooooooooooooooooooooooo    ........................oooo    oooo............",
"ooooooooooooXXXX    ................oooo    XXXXoooooooooooooooooooooooooooo    ........................oooo    oooo............",
"ooooooooooooXXXX    ................oooo    XXXXoooooooooooooooooooooooooooo    ........................oooo    oooo............",
"ooooooooooooooooXXXX    ............    XXXXoooooooooooooooooooooooooooooooooooo    ................oooo    oooo........XXXX....",
"ooooooooooooooooXXXX    ............    XXXXoooooooooooooooooooooooooooooooooooo    ................oooo    oooo........XXXX....",
"ooooooooooooooooXXXX    ............    XXXXoooooooooooooooooooooooooooooooooooo    ................oooo    oooo........XXXX....",
"ooooooooooooooooXXXX    ............    XXXXoooooooooooooooooooooooooooooooooooo    ................oooo    oooo........XXXX....",
"ooooooooooooooooooooXXXX    ....    XXXXoooooooooooooooooooooooooooooooooooooooooooo    ........oooo    oooo....................",
"ooooooooooooooooooooXXXX    ....    XXXXoooooooooooooooooooooooooooooooooooooooooooo    ........oooo    oooo....................",
"ooooooooooooooooooooXXXX    ....    XXXXoooooooooooooooooooooooooooooooooooooooooooo    ........oooo    oooo....................",
"ooooooooooooooooooooXXXX    ....    XXXXoooooooooooooooooooooooooooooooooooooooooooo    ........oooo    oooo....................",
"oooooooooooooooooooooooooooo    XXXXXXXXoooooooooooooooooooooooooooooooooooooooooooooooo    oooo    oooo........................",
"oooooooooooooooooooooooooooo    XXXXXXXXoooooooooooooooooooooooooooooooooooooooooooooooo    oooo    oooo........................",
"oooooooooooooooooooooooooooo    XXXXXXXXoooooooooooooooooooooooooooooooooooooooooooooooo    oooo    oooo........................",
"oooooooooooooooooooooooooooo    XXXXXXXXoooooooooooooooooooooooooooooooooooooooooooooooo    oooo    oooo........................",
"ooooooooooooooooooooooooooooXXXX    XXXXooooooooooooooooooooooooooooooooooooooooooooooooXXXX    oooo................XXXX........",
"ooooooooooooooooooooooooooooXXXX    XXXXooooooooooooooooooooooooooooooooooooooooooooooooXXXX    oooo................XXXX........",
"ooooooooooooooooooooooooooooXXXX    XXXXooooooooooooooooooooooooooooooooooooooooooooooooXXXX    oooo................XXXX........",
"ooooooooooooooooooooooooooooXXXX    XXXXooooooooooooooooooooooooooooooooooooooooooooooooXXXX    oooo................XXXX........",
"ooooooooooooooooooooooooooooXXXX        XXXXooooooooooooooooooooooooooooooooooooooooooooooooXXXX    ....................XXXXXXXX",
"ooooooooooooooooooooooooooooXXXX        XXXXooooooooooooooooooooooooooooooooooooooooooooooooXXXX    ....................XXXXXXXX",
"ooooooooooooooooooooooooooooXXXX        XXXXooooooooooooooooooooooooooooooooooooooooooooooooXXXX    ....................XXXXXXXX",
"ooooooooooooooooooooooooooooXXXX        XXXXooooooooooooooooooooooooooooooooooooooooooooooooXXXX    ....................XXXXXXXX",
"ooooooooooooooooooooooooXXXX    oooo....    XXXXooooooooooooooooooooooooooooooooooooooooooooooooXXXX    ....................XXXX",
"ooooooooooooooooooooooooXXXX    oooo....    XXXXooooooooooooooooooooooooooooooooooooooooooooooooXXXX    ....................XXXX",
"ooooooooooooooooooooooooXXXX    oooo....    XXXXooooooooooooooooooooooooooooooooooooooooooooooooXXXX    ....................XXXX",
"ooooooooooooooooooooooooXXXX    oooo....    XXXXooooooooooooooooooooooooooooooooooooooooooooooooXXXX    ....................XXXX",
"ooooooooooooooooooooXXXX    oooo............    XXXXooooooooooooooooooooooooooooooooooooooooooooooooXXXX    oooo................",
"ooooooooooooooooooooXXXX    oooo............    XXXXooooooooooooooooooooooooooooooooooooooooooooooooXXXX    oooo................",
"ooooooooooooooooooooXXXX    oooo............    XXXXooooooooooooooooooooooooooooooooooooooooooooooooXXXX    oooo................",
"ooooooooooooooooooooXXXX    oooo............    XXXXooooooooooooooooooooooooooooooooooooooooooooooooXXXX    oooo................",
"XXXXooooooooooooXXXX    oooo....................    XXXXooooooooooooooooooooooooooooooooooooooooooooooooXXXX    oooo............",
"XXXXooooooooooooXXXX    oooo....................    XXXXooooooooooooooooooooooooooooooooooooooooooooooooXXXX    oooo............",
"XXXXooooooooooooXXXX    oooo....................    XXXXooooooooooooooooooooooooooooooooooooooooooooooooXXXX    oooo............",
"XXXXooooooooooooXXXX    oooo....................    XXXXooooooooooooooooooooooooooooooooooooooooooooooooXXXX    oooo............",
"    XXXXoooooooo    oooo............................    XXXXooooooooooooooooooooooooooooooooooooooooooooooooXXXX    oooo........",
"    XXXXoooooooo    oooo............................    XXXXooooooooooooooooooooooooooooooooooooooooooooooooXXXX    oooo........",
"    XXXXoooooooo    oooo............................    XXXXooooooooooooooooooooooooooooooooooooooooooooooooXXXX    oooo........",
"    XXXXoooooooo    oooo............................    XXXXooooooooooooooooooooooooooooooooooooooooooooooooXXXX    oooo........",
"....    XXXX    oooo................................XXXX    XXXXooooooooooooooooooooooooooooooooooooooooooooooooXXXX    oooo....",
"....    XXXX    oooo................................XXXX    XXXXooooooooooooooooooooooooooooooooooooooooooooooooXXXX    oooo....",
"....    XXXX    oooo................................XXXX    XXXXooooooooooooooooooooooooooooooooooooooooooooooooXXXX    oooo....",
"....    XXXX    oooo................................XXXX    XXXXooooooooooooooooooooooooooooooooooooooooooooooooXXXX    oooo....",
"........    oooo........................................XXXX    XXXXoooooooooooooooooooooooooooooooooooooooooooo    oooo    oooo",
"........    oooo........................................XXXX    XXXXoooooooooooooooooooooooooooooooooooooooooooo    oooo    oooo",
"........    oooo........................................XXXX    XXXXoooooooooooooooooooooooooooooooooooooooooooo    oooo    oooo",
"........    oooo........................................XXXX    XXXXoooooooooooooooooooooooooooooooooooooooooooo    oooo    oooo",
"........oooo    ........................XXXX................XXXX    XXXXoooooooooooooooooooooooooooooooooooo    oooo........    ",
"........oooo    ........................XXXX................XXXX    XXXXoooooooooooooooooooooooooooooooooooo    oooo........    ",
"........oooo    ........................XXXX................XXXX    XXXXoooooooooooooooooooooooooooooooooooo    oooo........    ",
"........oooo    ........................XXXX................XXXX    XXXXoooooooooooooooooooooooooooooooooooo    oooo........    ",
"XXXX........oooo    ........................XXXX................XXXX    XXXXoooooooooooooooooooooooooooo    oooo................",
"XXXX........oooo    ........................XXXX................XXXX    XXXXoooooooooooooooooooooooooooo    oooo................",
"XXXX........oooo    ........................XXXX................XXXX    XXXXoooooooooooooooooooooooooooo    oooo................",
"XXXX........oooo    ........................XXXX................XXXX    XXXXoooooooooooooooooooooooooooo    oooo................",
"....XXXX........oooo    oooo....................XXXX................XXXX    XXXXoooooooooooooooooooo    oooo....................",
"....XXXX........oooo    oooo....................XXXX................XXXX    XXXXoooooooooooooooooooo    oooo....................",
"....XXXX........oooo    oooo....................XXXX................XXXX    XXXXoooooooooooooooooooo    oooo....................",
"....XXXX........oooo    oooo....................XXXX................XXXX    XXXXoooooooooooooooooooo    oooo....................",
"....................oooo    oooo....................XXXX................XXXX    XXXXoooooooooooo    oooo............XXXX........",
"....................oooo    oooo....................XXXX................XXXX    XXXXoooooooooooo    oooo............XXXX........",
"....................oooo    oooo....................XXXX................XXXX    XXXXoooooooooooo    oooo............XXXX........",
"....................oooo    oooo....................XXXX................XXXX    XXXXoooooooooooo    oooo............XXXX........",
"............................    oooo....................XXXX................XXXX    XXXXXXXX    oooo....................XXXXXXXX",
"............................    oooo....................XXXX................XXXX    XXXXXXXX    oooo....................XXXXXXXX",
"............................    oooo....................XXXX................XXXX    XXXXXXXX    oooo....................XXXXXXXX",
"............................    oooo....................XXXX................XXXX    XXXXXXXX    oooo....................XXXXXXXX",
"............................        oooo....................XXXX....................        oooo................................",
"............................        oooo....................XXXX....................        oooo................................",
"............................        oooo....................XXXX....................        oooo................................",
"............................        oooo....................XXXX....................        oooo................................",
"....XXXXXXXX............    oooo....    oooo............................................    oooo................................",
"....XXXXXXXX............    oooo....    oooo............................................    oooo................................",
"....XXXXXXXX............    oooo....    oooo............................................    oooo................................",
"....XXXXXXXX............    oooo....    oooo............................................    oooo................................",
"....................    oooo............    oooo............................................    ............XXXXXXXX............",
"....................    oooo............    oooo............................................    ............XXXXXXXX............",
"....................    oooo............    oooo............................................    ............XXXXXXXX............",
"....................    oooo............    oooo............................................    ............XXXXXXXX............",
"................    oooo....................    oooo........................................        ............................",
"................    oooo....................    oooo........................................        ............................",
"................    oooo....................    oooo........................................        ............................",
"................    oooo....................    oooo........................................        ............................",
"oooo........    oooo............................    oooo................................    XXXXXXXX    ........................",
"oooo........    oooo............................    oooo................................    XXXXXXXX    ........................",
"oooo........    oooo............................    oooo................................    XXXXXXXX    ........................",
"oooo........    oooo............................    oooo................................    XXXXXXXX    ........................",
"    oooo    oooo....................................    ............................    XXXXoooooooooooo    ....................",
"    oooo    oooo....................................    ............................    XXXXoooooooooooo    ....................",
"    oooo    oooo....................................    ............................    XXXXoooooooooooo    ....................",
"    oooo    oooo....................................    ............................    XXXXoooooooooooo    ....................",
"....    oooo............................................    ....................    XXXXoooooooooooooooooooo    oooo............",
"....    oooo............................................    ....................    XXXXoooooooooooooooooooo    oooo............",
"....    oooo............................................    ....................    XXXXoooooooooooooooooooo    oooo............",
"....    oooo............................................    ....................    XXXXoooooooooooooooooooo    oooo............",
"....oooo    oooo............................................    ............    XXXXooooooooooooooooooooooooXXXX    oooo........",
"....oooo    oooo............................................    ............    XXXXooooooooooooooooooooooooXXXX    oooo........",
"....oooo    oooo............................................    ............    XXXXooooooooooooooooooooooooXXXX    oooo........",
"....oooo    oooo............................................    ............    XXXXooooooooooooooooooooooooXXXX    oooo........",
"....oooo        oooo............XXXX............XXXX............    ....    XXXXooooooooooooooooooooooooooooooooXXXX    oooo....",
"....oooo        oooo............XXXX............XXXX............    ....    XXXXooooooooooooooooooooooooooooooooXXXX    oooo....",
"....oooo        oooo............XXXX............XXXX............    ....    XXXXooooooooooooooooooooooooooooooooXXXX    oooo....",
"....oooo        oooo............XXXX............XXXX............    ....    XXXXooooooooooooooooooooooooooooooooXXXX    oooo....",
"oooo    oooooooo    oooo............XXXXXXXX........XXXX............    XXXXooooooooooooooooooooooooooooooooooooooooXXXX    oooo",
"oooo    oooooooo    oooo............XXXXXXXX........XXXX............    XXXXooooooooooooooooooooooooooooooooooooooooXXXX    oooo",
"oooo    oooooooo    oooo............XXXXXXXX........XXXX............    XXXXooooooooooooooooooooooooooooooooooooooooXXXX    oooo",
"oooo    oooooooo    oooo............XXXXXXXX........XXXX............    XXXXooooooooooooooooooooooooooooooooooooooooXXXX    oooo",
"    oooo............    oooo............................XXXX............    XXXXooooooooooooooooooooooooooooooooooooooooXXXX    ",
"    oooo............    oooo............................XXXX............    XXXXooooooooooooooooooooooooooooooooooooooooXXXX    ",
"    oooo............    oooo............................XXXX............    XXXXooooooooooooooooooooooooooooooooooooooooXXXX    ",
"    oooo............    oooo............................XXXX............    XXXXooooooooooooooooooooooooooooooooooooooooXXXX    "
};
