/* XPM */
static char *_9ea35ea70fa44f3f40579b4b4edb1cbUomec0zXo1SbdVMJ[] = {
/* columns rows colors chars-per-pixel */
"128 128 2 1 ",
"  c black",
". c #1472D3",
/* pixels */
"                                                                                                                                ",
"                                                                                                                                ",
"                                                                                                                                ",
"                                                                                                                                ",
"    ........................................................................................................................    ",
"    ........................................................................................................................    ",
"    ........................................................................................................................    ",
"    ........................................................................................................................    ",
"    ........................................................................................................................    ",
"    ........................................................................................................................    ",
"    ........................................................................................................................    ",
"    ........................................................................................................................    ",
"    ................................................................            ............................................    ",
"    ................................................................            ............................................    ",
"    ................................................................            ............................................    ",
"    ................................................................            ............................................    ",
"    ................................................................            ............................................    ",
"    ................................................................            ............................................    ",
"    ................................................................            ............................................    ",
"    ................................................................            ............................................    ",
"    ................................................................            ............................................    ",
"    ................................................................            ............................................    ",
"    ................................................................            ............................................    ",
"    ................................................................            ............................................    ",
"    ............................................................................                        ....................    ",
"    ............................................................................                        ....................    ",
"    ............................................................................                        ....................    ",
"    ............................................................................                        ....................    ",
"    ............................................................................                        ....................    ",
"    ............................................................................                        ....................    ",
"    ............................................................................                        ....................    ",
"    ............................................................................                        ....................    ",
"    ............................................................................                                    ........    ",
"    ............................................................................                                    ........    ",
"    ............................................................................                                    ........    ",
"    ............................................................................                                    ........    ",
"    ........................................................................................                        ........    ",
"    ........................................................................................                        ........    ",
"    ........................................................................................                        ........    ",
"    ........................................................................................                        ........    ",
"    ........................................................................................                        ........    ",
"    ........................................................................................                        ........    ",
"    ........................................................................................                        ........    ",
"    ........................................................................................                        ........    ",
"    ........................................................................................            ....................    ",
"    ........................................................................................            ....................    ",
"    ........................................................................................            ....................    ",
"    ........................................................................................            ....................    ",
"    ........................................................................................            ....................    ",
"    ........................................................................................            ....................    ",
"    ........................................................................................            ....................    ",
"    ........................................................................................            ....................    ",
"    ........................................................................................            ....................    ",
"    ........................................................................................            ....................    ",
"    ........................................................................................            ....................    ",
"    ........................................................................................            ....................    ",
"    ........................................................................................            ....................    ",
"    ........................................................................................            ....................    ",
"    ........................................................................................            ....................    ",
"    ........................................................................................            ....................    ",
"    ........................................................................................            ....................    ",
"    ........................................................................................            ....................    ",
"    ........................................................................................            ....................    ",
"    ........................................................................................            ....................    ",
"    ........................................................................................            ....................    ",
"    ........................................................................................            ....................    ",
"    ........................................................................................            ....................    ",
"    ........................................................................................            ....................    ",
"    ........................................................................................            ....................    ",
"    ........................................................................................            ....................    ",
"    ........................................................................................            ....................    ",
"    ........................................................................................            ....................    ",
"    ........................................................................................            ....................    ",
"    ........................................................................................            ....................    ",
"    ........................................................................................            ....................    ",
"    ........................................................................................            ....................    ",
"    ........................................................................................            ....................    ",
"    ........................................................................................            ....................    ",
"    ........................................................................................            ....................    ",
"    ........................................................................................            ....................    ",
"    ........................................................................................................................    ",
"    ........................................................................................................................    ",
"    ........................................................................................................................    ",
"    ........................................................................................................................    ",
"    ........................................................................................................................    ",
"    ........................................................................................................................    ",
"    ........................................................................................................................    ",
"    ........................................................................................................................    ",
"    ........................................................................................................................    ",
"    ........................................................................................................................    ",
"    ........................................................................................................................    ",
"    ........................................................................................................................    ",
"    ........................................................................................................................    ",
"    ........................................................................................................................    ",
"    ........................................................................................................................    ",
"    ........................................................................................................................    ",
"    ............................................................................                        ....................    ",
"    ............................................................................                        ....................    ",
"    ............................................................................                        ....................    ",
"    ............................................................................                        ....................    ",
"    ....................................................................                                ....................    ",
"    ....................................................................                                ....................    ",
"    ....................................................................                                ....................    ",
"    ....................................................................                                ....................    ",
"    ....................................................................                                ....................    ",
"    ....................................................................                                ....................    ",
"    ....................................................................                                ....................    ",
"    ....................................................................                                ....................    ",
"    ................................................................                ........................................    ",
"    ................................................................                ........................................    ",
"    ................................................................                ........................................    ",
"    ................................................................                ........................................    ",
"    ................................................................            ............................................    ",
"    ................................................................            ............................................    ",
"    ................................................................            ............................................    ",
"    ................................................................            ............................................    ",
"    ................................................................            ............................................    ",
"    ................................................................            ............................................    ",
"    ................................................................            ............................................    ",
"    ................................................................            ............................................    ",
"    ........................................................................................................................    ",
"    ........................................................................................................................    ",
"    ........................................................................................................................    ",
"    ........................................................................................................................    ",
"                                                                                                                                ",
"                                                                                                                                ",
"                                                                                                                                ",
"                                                                                                                                "
};
