/* XPM */
static char *result[] = {
/* columns rows colors chars-per-pixel */
"128 128 4 1 ",
"  c #231600",
". c #5D3C2D",
"X c #713F27",
"o c #8A5942",
/* pixels */
"    oooo................................................    ................    ooooooooooooooooooooooooooooooooooooooooooooXXXX",
"    oooo................................................    ................    ooooooooooooooooooooooooooooooooooooooooooooXXXX",
"    oooo................................................    ................    ooooooooooooooooooooooooooooooooooooooooooooXXXX",
"    oooo................................................    ................    ooooooooooooooooooooooooooooooooooooooooooooXXXX",
"XXXX    oooo....................................oooo    XXXX....................    oooooooooooooooooooooooooooooooooooooooooooo",
"XXXX    oooo....................................oooo    XXXX....................    oooooooooooooooooooooooooooooooooooooooooooo",
"XXXX    oooo....................................oooo    XXXX....................    oooooooooooooooooooooooooooooooooooooooooooo",
"XXXX    oooo....................................oooo    XXXX....................    oooooooooooooooooooooooooooooooooooooooooooo",
"ooooXXXX    oooo............................oooo    XXXX............................    oooooooooooooooooooooooooooooooooooooooo",
"ooooXXXX    oooo............................oooo    XXXX............................    oooooooooooooooooooooooooooooooooooooooo",
"ooooXXXX    oooo............................oooo    XXXX............................    oooooooooooooooooooooooooooooooooooooooo",
"ooooXXXX    oooo............................oooo    XXXX............................    oooooooooooooooooooooooooooooooooooooooo",
"ooooooooXXXX    oooo....................oooo    XXXX....................................    oooooooooooooooooooooooooooooooooooo",
"ooooooooXXXX    oooo....................oooo    XXXX....................................    oooooooooooooooooooooooooooooooooooo",
"ooooooooXXXX    oooo....................oooo    XXXX....................................    oooooooooooooooooooooooooooooooooooo",
"ooooooooXXXX    oooo....................oooo    XXXX....................................    oooooooooooooooooooooooooooooooooooo",
"ooooooooooooXXXX    ................oooo    XXXX............................................    oooooooooooooooooooooooooooooooo",
"ooooooooooooXXXX    ................oooo    XXXX............................................    oooooooooooooooooooooooooooooooo",
"ooooooooooooXXXX    ................oooo    XXXX............................................    oooooooooooooooooooooooooooooooo",
"ooooooooooooXXXX    ................oooo    XXXX............................................    oooooooooooooooooooooooooooooooo",
"ooooooooooooooooXXXX    ............    XXXX....................................................    oooooooooooooooooooooooooooo",
"ooooooooooooooooXXXX    ............    XXXX....................................................    oooooooooooooooooooooooooooo",
"ooooooooooooooooXXXX    ............    XXXX....................................................    oooooooooooooooooooooooooooo",
"ooooooooooooooooXXXX    ............    XXXX....................................................    oooooooooooooooooooooooooooo",
"ooooooooooooooooooooXXXX    ....    XXXX............................................................    oooooooooooooooooooooooo",
"ooooooooooooooooooooXXXX    ....    XXXX............................................................    oooooooooooooooooooooooo",
"ooooooooooooooooooooXXXX    ....    XXXX............................................................    oooooooooooooooooooooooo",
"ooooooooooooooooooooXXXX    ....    XXXX............................................................    oooooooooooooooooooooooo",
"oooooooooooooooooooooooooooo    XXXXXXXX................................................................    XXXXoooooooooooooooo",
"oooooooooooooooooooooooooooo    XXXXXXXX................................................................    XXXXoooooooooooooooo",
"oooooooooooooooooooooooooooo    XXXXXXXX................................................................    XXXXoooooooooooooooo",
"oooooooooooooooooooooooooooo    XXXXXXXX................................................................    XXXXoooooooooooooooo",
"ooooooooooooooooooooooooooooXXXX    XXXX....................................................................    XXXXoooooooooooo",
"ooooooooooooooooooooooooooooXXXX    XXXX....................................................................    XXXXoooooooooooo",
"ooooooooooooooooooooooooooooXXXX    XXXX....................................................................    XXXXoooooooooooo",
"ooooooooooooooooooooooooooooXXXX    XXXX....................................................................    XXXXoooooooooooo",
"ooooooooooooooooooooooooooooXXXX        XXXX....................................................................    XXXXoooooooo",
"ooooooooooooooooooooooooooooXXXX        XXXX....................................................................    XXXXoooooooo",
"ooooooooooooooooooooooooooooXXXX        XXXX....................................................................    XXXXoooooooo",
"ooooooooooooooooooooooooooooXXXX        XXXX....................................................................    XXXXoooooooo",
"ooooooooooooooooooooooooXXXX    oooo....    XXXX....................................................................    XXXXoooo",
"ooooooooooooooooooooooooXXXX    oooo....    XXXX....................................................................    XXXXoooo",
"ooooooooooooooooooooooooXXXX    oooo....    XXXX....................................................................    XXXXoooo",
"ooooooooooooooooooooooooXXXX    oooo....    XXXX....................................................................    XXXXoooo",
"ooooooooooooooooooooXXXX    oooo............    XXXX....................................................................    XXXX",
"ooooooooooooooooooooXXXX    oooo............    XXXX....................................................................    XXXX",
"ooooooooooooooooooooXXXX    oooo............    XXXX....................................................................    XXXX",
"ooooooooooooooooooooXXXX    oooo............    XXXX....................................................................    XXXX",
"XXXXooooooooooooXXXX    oooo....................    XXXX....................................................................    ",
"XXXXooooooooooooXXXX    oooo....................    XXXX....................................................................    ",
"XXXXooooooooooooXXXX    oooo....................    XXXX....................................................................    ",
"XXXXooooooooooooXXXX    oooo....................    XXXX....................................................................    ",
"    XXXXoooooooo    oooo............................    XXXX....................................................................",
"    XXXXoooooooo    oooo............................    XXXX....................................................................",
"    XXXXoooooooo    oooo............................    XXXX....................................................................",
"    XXXXoooooooo    oooo............................    XXXX....................................................................",
"....    XXXX    oooo................................XXXX    XXXX................................................................",
"....    XXXX    oooo................................XXXX    XXXX................................................................",
"....    XXXX    oooo................................XXXX    XXXX................................................................",
"....    XXXX    oooo................................XXXX    XXXX................................................................",
"........    oooo........................................XXXX    XXXX............................................................",
"........    oooo........................................XXXX    XXXX............................................................",
"........    oooo........................................XXXX    XXXX............................................................",
"........    oooo........................................XXXX    XXXX............................................................",
"........oooo    ........................XXXX................XXXX    XXXX........................................................",
"........oooo    ........................XXXX................XXXX    XXXX........................................................",
"........oooo    ........................XXXX................XXXX    XXXX........................................................",
"........oooo    ........................XXXX................XXXX    XXXX........................................................",
"............oooo    ........................XXXX................XXXX    XXXX....................................................",
"............oooo    ........................XXXX................XXXX    XXXX....................................................",
"............oooo    ........................XXXX................XXXX    XXXX....................................................",
"............oooo    ........................XXXX................XXXX    XXXX....................................................",
"................oooo    oooo....................XXXX................XXXX    XXXX................................................",
"................oooo    oooo....................XXXX................XXXX    XXXX................................................",
"................oooo    oooo....................XXXX................XXXX    XXXX................................................",
"................oooo    oooo....................XXXX................XXXX    XXXX................................................",
"....................oooo    oooo....................XXXX................XXXX    XXXX............................................",
"....................oooo    oooo....................XXXX................XXXX    XXXX............................................",
"....................oooo    oooo....................XXXX................XXXX    XXXX............................................",
"....................oooo    oooo....................XXXX................XXXX    XXXX............................................",
"............................    oooo....................XXXX................XXXX    XXXX........................................",
"............................    oooo....................XXXX................XXXX    XXXX........................................",
"............................    oooo....................XXXX................XXXX    XXXX........................................",
"............................    oooo....................XXXX................XXXX    XXXX........................................",
"................................    oooo....................XXXX....................    XXXX....................................",
"................................    oooo....................XXXX....................    XXXX....................................",
"................................    oooo....................XXXX....................    XXXX....................................",
"................................    oooo....................XXXX....................    XXXX....................................",
"....................................    oooo............................................    XXXX................................",
"....................................    oooo............................................    XXXX................................",
"....................................    oooo............................................    XXXX................................",
"....................................    oooo............................................    XXXX................................",
"........................................    oooo............................................    XXXX............................",
"........................................    oooo............................................    XXXX............................",
"........................................    oooo............................................    XXXX............................",
"........................................    oooo............................................    XXXX............................",
"............................................    oooo........................................        ............................",
"............................................    oooo........................................        ............................",
"............................................    oooo........................................        ............................",
"............................................    oooo........................................        ............................",
"................................................    oooo................................    XXXXXXXX    ........................",
"................................................    oooo................................    XXXXXXXX    ........................",
"................................................    oooo................................    XXXXXXXX    ........................",
"................................................    oooo................................    XXXXXXXX    ........................",
"....................................................    ............................    XXXXoooooooooooo    ....................",
"....................................................    ............................    XXXXoooooooooooo    ....................",
"....................................................    ............................    XXXXoooooooooooo    ....................",
"....................................................    ............................    XXXXoooooooooooo    ....................",
"........................................................    ....................    XXXXoooooooooooooooooooo    oooo............",
"........................................................    ....................    XXXXoooooooooooooooooooo    oooo............",
"........................................................    ....................    XXXXoooooooooooooooooooo    oooo............",
"........................................................    ....................    XXXXoooooooooooooooooooo    oooo............",
"............................................................    ............    XXXXooooooooooooooooooooooooXXXX    oooo........",
"............................................................    ............    XXXXooooooooooooooooooooooooXXXX    oooo........",
"............................................................    ............    XXXXooooooooooooooooooooooooXXXX    oooo........",
"............................................................    ............    XXXXooooooooooooooooooooooooXXXX    oooo........",
"................................................................    ....    XXXXooooooooooooooooooooooooooooooooXXXX    oooo....",
"................................................................    ....    XXXXooooooooooooooooooooooooooooooooXXXX    oooo....",
"................................................................    ....    XXXXooooooooooooooooooooooooooooooooXXXX    oooo....",
"................................................................    ....    XXXXooooooooooooooooooooooooooooooooXXXX    oooo....",
"................................................................        XXXXooooooooooooooooooooooooooooooooooooooooXXXX    oooo",
"................................................................        XXXXooooooooooooooooooooooooooooooooooooooooXXXX    oooo",
"................................................................        XXXXooooooooooooooooooooooooooooooooooooooooXXXX    oooo",
"................................................................        XXXXooooooooooooooooooooooooooooooooooooooooXXXX    oooo",
"oooo........................................................    ........    XXXXooooooooooooooooooooooooooooooooooooooooXXXX    ",
"oooo........................................................    ........    XXXXooooooooooooooooooooooooooooooooooooooooXXXX    ",
"oooo........................................................    ........    XXXXooooooooooooooooooooooooooooooooooooooooXXXX    ",
"oooo........................................................    ........    XXXXooooooooooooooooooooooooooooooooooooooooXXXX    "
};
