/* XPM */
static char *result[] = {
/* columns rows colors chars-per-pixel */
"128 128 10 1 ",
"  c #11002C",
". c #5F1701",
"X c #1D004A",
"o c #1F0777",
"O c #8E2706",
"+ c #B52C00",
"@ c #E03903",
"# c #8C7800",
"$ c #B59C00",
"% c #F3D726",
/* pixels */
"XXXX    XXXX    XXXX    XXXX    XXXX    %%%%%%%%%%%%%%%%%%%%%%%%%%%%%%%%%%%%%%%%%%%%%%%%    XXXX    XXXX    XXXX    XXXX    XXXX",
"XXXX    XXXX    XXXX    XXXX    XXXX    %%%%%%%%%%%%%%%%%%%%%%%%%%%%%%%%%%%%%%%%%%%%%%%%    XXXX    XXXX    XXXX    XXXX    XXXX",
"XXXX    XXXX    XXXX    XXXX    XXXX    %%%%%%%%%%%%%%%%%%%%%%%%%%%%%%%%%%%%%%%%%%%%%%%%    XXXX    XXXX    XXXX    XXXX    XXXX",
"XXXX    XXXX    XXXX    XXXX    XXXX    %%%%%%%%%%%%%%%%%%%%%%%%%%%%%%%%%%%%%%%%%%%%%%%%    XXXX    XXXX    XXXX    XXXX    XXXX",
"    XXXX    XXXX    XXXX    XXXX    %%%%$$$$$$$$$$$$$$$$$$$$$$$$$$$$$$$$$$$$$$$$$$$$$$$$%%%%    XXXX    XXXX    XXXX    XXXX    ",
"    XXXX    XXXX    XXXX    XXXX    %%%%$$$$$$$$$$$$$$$$$$$$$$$$$$$$$$$$$$$$$$$$$$$$$$$$%%%%    XXXX    XXXX    XXXX    XXXX    ",
"    XXXX    XXXX    XXXX    XXXX    %%%%$$$$$$$$$$$$$$$$$$$$$$$$$$$$$$$$$$$$$$$$$$$$$$$$%%%%    XXXX    XXXX    XXXX    XXXX    ",
"    XXXX    XXXX    XXXX    XXXX    %%%%$$$$$$$$$$$$$$$$$$$$$$$$$$$$$$$$$$$$$$$$$$$$$$$$%%%%    XXXX    XXXX    XXXX    XXXX    ",
"XXXX    XXXX    XXXX    %%%%%%%%%%%%$$$$$$$$OOOOOOOOOOOOOOOO########OOOOOOOOOOOOOOOO$$$$$$$$%%%%%%%%%%%%    XXXX    XXXX    XXXX",
"XXXX    XXXX    XXXX    %%%%%%%%%%%%$$$$$$$$OOOOOOOOOOOOOOOO########OOOOOOOOOOOOOOOO$$$$$$$$%%%%%%%%%%%%    XXXX    XXXX    XXXX",
"XXXX    XXXX    XXXX    %%%%%%%%%%%%$$$$$$$$OOOOOOOOOOOOOOOO########OOOOOOOOOOOOOOOO$$$$$$$$%%%%%%%%%%%%    XXXX    XXXX    XXXX",
"XXXX    XXXX    XXXX    %%%%%%%%%%%%$$$$$$$$OOOOOOOOOOOOOOOO########OOOOOOOOOOOOOOOO$$$$$$$$%%%%%%%%%%%%    XXXX    XXXX    XXXX",
"    XXXX    XXXX    %%%%$$$$$$$$$$$$$$$$OOOOOOOOOOOOOOOOOOOO########OOOOOOOOOOOOOOOOOOOO$$$$$$$$$$$$$$$$%%%%    XXXX    XXXX    ",
"    XXXX    XXXX    %%%%$$$$$$$$$$$$$$$$OOOOOOOOOOOOOOOOOOOO########OOOOOOOOOOOOOOOOOOOO$$$$$$$$$$$$$$$$%%%%    XXXX    XXXX    ",
"    XXXX    XXXX    %%%%$$$$$$$$$$$$$$$$OOOOOOOOOOOOOOOOOOOO########OOOOOOOOOOOOOOOOOOOO$$$$$$$$$$$$$$$$%%%%    XXXX    XXXX    ",
"    XXXX    XXXX    %%%%$$$$$$$$$$$$$$$$OOOOOOOOOOOOOOOOOOOO########OOOOOOOOOOOOOOOOOOOO$$$$$$$$$$$$$$$$%%%%    XXXX    XXXX    ",
"XXXX    XXXX    %%%%$$$$$$$$OOOOOOOOOOOO++++++++++++++++++++$$$$####++++++++++++++++++++OOOOOOOOOOOO$$$$$$$$%%%%    XXXX    XXXX",
"XXXX    XXXX    %%%%$$$$$$$$OOOOOOOOOOOO++++++++++++++++++++$$$$####++++++++++++++++++++OOOOOOOOOOOO$$$$$$$$%%%%    XXXX    XXXX",
"XXXX    XXXX    %%%%$$$$$$$$OOOOOOOOOOOO++++++++++++++++++++$$$$####++++++++++++++++++++OOOOOOOOOOOO$$$$$$$$%%%%    XXXX    XXXX",
"XXXX    XXXX    %%%%$$$$$$$$OOOOOOOOOOOO++++++++++++++++++++$$$$####++++++++++++++++++++OOOOOOOOOOOO$$$$$$$$%%%%    XXXX    XXXX",
"    XXXX    %%%%$$$$$$$$OOOOOOOO++++++++++++++++++++++++++++$$$$$$$$++++++++++++++++++++++++++++OOOOOOOO$$$$$$$$%%%%    XXXX    ",
"    XXXX    %%%%$$$$$$$$OOOOOOOO++++++++++++++++++++++++++++$$$$$$$$++++++++++++++++++++++++++++OOOOOOOO$$$$$$$$%%%%    XXXX    ",
"    XXXX    %%%%$$$$$$$$OOOOOOOO++++++++++++++++++++++++++++$$$$$$$$++++++++++++++++++++++++++++OOOOOOOO$$$$$$$$%%%%    XXXX    ",
"    XXXX    %%%%$$$$$$$$OOOOOOOO++++++++++++++++++++++++++++$$$$$$$$++++++++++++++++++++++++++++OOOOOOOO$$$$$$$$%%%%    XXXX    ",
"XXXX    %%%%$$$$$$$$OOOOOOOO++++++++++++++++............++++$$$$$$$$++++................++++++++++++OOOOOOOO$$$$$$$$%%%%    XXXX",
"XXXX    %%%%$$$$$$$$OOOOOOOO++++++++++++++++............++++$$$$$$$$++++................++++++++++++OOOOOOOO$$$$$$$$%%%%    XXXX",
"XXXX    %%%%$$$$$$$$OOOOOOOO++++++++++++++++............++++$$$$$$$$++++................++++++++++++OOOOOOOO$$$$$$$$%%%%    XXXX",
"XXXX    %%%%$$$$$$$$OOOOOOOO++++++++++++++++............++++$$$$$$$$++++................++++++++++++OOOOOOOO$$$$$$$$%%%%    XXXX",
"    XXXX$$$$$$$$OOOOOOOO++++++++++++....................++++$$$$$$$$++++....................++++++++++++OOOOOOOO$$$$$$$$XXXX    ",
"    XXXX$$$$$$$$OOOOOOOO++++++++++++....................++++$$$$$$$$++++....................++++++++++++OOOOOOOO$$$$$$$$XXXX    ",
"    XXXX$$$$$$$$OOOOOOOO++++++++++++....................++++$$$$$$$$++++....................++++++++++++OOOOOOOO$$$$$$$$XXXX    ",
"    XXXX$$$$$$$$OOOOOOOO++++++++++++....................++++$$$$$$$$++++....................++++++++++++OOOOOOOO$$$$$$$$XXXX    ",
"XXXX    $$$$$$$$OOOO++++++++++++........OOOOOOOO........++++$$$$$$$$++++........OOOOOOOO........++++++++++++OOOO$$$$$$$$    XXXX",
"XXXX    $$$$$$$$OOOO++++++++++++........OOOOOOOO........++++$$$$$$$$++++........OOOOOOOO........++++++++++++OOOO$$$$$$$$    XXXX",
"XXXX    $$$$$$$$OOOO++++++++++++........OOOOOOOO........++++$$$$$$$$++++........OOOOOOOO........++++++++++++OOOO$$$$$$$$    XXXX",
"XXXX    $$$$$$$$OOOO++++++++++++........OOOOOOOO........++++$$$$$$$$++++........OOOOOOOO........++++++++++++OOOO$$$$$$$$    XXXX",
"    %%%%$$$$$$$$OOOO++++++++........OOOOOOOOOOOOOOOO....++++$$$$$$$$++++....OOOOOOOOOOOOOOOO........++++++++OOOO$$$$$$$$%%%%    ",
"    %%%%$$$$$$$$OOOO++++++++........OOOOOOOOOOOOOOOO....++++$$$$$$$$++++....OOOOOOOOOOOOOOOO........++++++++OOOO$$$$$$$$%%%%    ",
"    %%%%$$$$$$$$OOOO++++++++........OOOOOOOOOOOOOOOO....++++$$$$$$$$++++....OOOOOOOOOOOOOOOO........++++++++OOOO$$$$$$$$%%%%    ",
"    %%%%$$$$$$$$OOOO++++++++........OOOOOOOOOOOOOOOO....++++$$$$$$$$++++....OOOOOOOOOOOOOOOO........++++++++OOOO$$$$$$$$%%%%    ",
"%%%%$$$$$$$$OOOO++++++++++++....OOOOOOOOOOOOOOOOOOOOOOOO++++$$$$$$$$++++OOOOOOOOOOOOOOOOOOOOOOOO....++++++++++++OOOO$$$$$$$$%%%%",
"%%%%$$$$$$$$OOOO++++++++++++....OOOOOOOOOOOOOOOOOOOOOOOO++++$$$$$$$$++++OOOOOOOOOOOOOOOOOOOOOOOO....++++++++++++OOOO$$$$$$$$%%%%",
"%%%%$$$$$$$$OOOO++++++++++++....OOOOOOOOOOOOOOOOOOOOOOOO++++$$$$$$$$++++OOOOOOOOOOOOOOOOOOOOOOOO....++++++++++++OOOO$$$$$$$$%%%%",
"%%%%$$$$$$$$OOOO++++++++++++....OOOOOOOOOOOOOOOOOOOOOOOO++++$$$$$$$$++++OOOOOOOOOOOOOOOOOOOOOOOO....++++++++++++OOOO$$$$$$$$%%%%",
"$$$$$$$$OOOO++++++++++++........OOOOOOOOOOOOOOOOOOOOOOOO++++$$$$$$$$++++OOOOOOOOOOOOOOOOOOOOOOOO........++++++++++++OOOO$$$$$$$$",
"$$$$$$$$OOOO++++++++++++........OOOOOOOOOOOOOOOOOOOOOOOO++++$$$$$$$$++++OOOOOOOOOOOOOOOOOOOOOOOO........++++++++++++OOOO$$$$$$$$",
"$$$$$$$$OOOO++++++++++++........OOOOOOOOOOOOOOOOOOOOOOOO++++$$$$$$$$++++OOOOOOOOOOOOOOOOOOOOOOOO........++++++++++++OOOO$$$$$$$$",
"$$$$$$$$OOOO++++++++++++........OOOOOOOOOOOOOOOOOOOOOOOO++++$$$$$$$$++++OOOOOOOOOOOOOOOOOOOOOOOO........++++++++++++OOOO$$$$$$$$",
"$$$$$$$$OOOO++++++++........OOOOOOOOOOOOOOOOOOOOOOOOOOOO++++$$$$$$$$++++OOOOOOOOOOOOOOOOOOOOOOOOOOOO........++++++++OOOO$$$$$$$$",
"$$$$$$$$OOOO++++++++........OOOOOOOOOOOOOOOOOOOOOOOOOOOO++++$$$$$$$$++++OOOOOOOOOOOOOOOOOOOOOOOOOOOO........++++++++OOOO$$$$$$$$",
"$$$$$$$$OOOO++++++++........OOOOOOOOOOOOOOOOOOOOOOOOOOOO++++$$$$$$$$++++OOOOOOOOOOOOOOOOOOOOOOOOOOOO........++++++++OOOO$$$$$$$$",
"$$$$$$$$OOOO++++++++........OOOOOOOOOOOOOOOOOOOOOOOOOOOO++++$$$$$$$$++++OOOOOOOOOOOOOOOOOOOOOOOOOOOO........++++++++OOOO$$$$$$$$",
"$$$$$$$$OOOO++++++++....OOOOOOOOOOOOOOOOOOOOOOOOOOOOOOOO++++$$$$$$$$++++OOOOOOOOOOOOOOOOOOOOOOOOOOOOOOOO....++++++++OOOO$$$$$$$$",
"$$$$$$$$OOOO++++++++....OOOOOOOOOOOOOOOOOOOOOOOOOOOOOOOO++++$$$$$$$$++++OOOOOOOOOOOOOOOOOOOOOOOOOOOOOOOO....++++++++OOOO$$$$$$$$",
"$$$$$$$$OOOO++++++++....OOOOOOOOOOOOOOOOOOOOOOOOOOOOOOOO++++$$$$$$$$++++OOOOOOOOOOOOOOOOOOOOOOOOOOOOOOOO....++++++++OOOO$$$$$$$$",
"$$$$$$$$OOOO++++++++....OOOOOOOOOOOOOOOOOOOOOOOOOOOOOOOO++++$$$$$$$$++++OOOOOOOOOOOOOOOOOOOOOOOOOOOOOOOO....++++++++OOOO$$$$$$$$",
"$$$$oooo++++++++++++....OOOOOOOOOOOOOOOOOOOOOOOOOOOOOOOO++++$$$$$$$$++++OOOOOOOOOOOOOOOOOOOOOOOOOOOOOOOOOOOO++++++++++++oooo$$$$",
"$$$$oooo++++++++++++....OOOOOOOOOOOOOOOOOOOOOOOOOOOOOOOO++++$$$$$$$$++++OOOOOOOOOOOOOOOOOOOOOOOOOOOOOOOOOOOO++++++++++++oooo$$$$",
"$$$$oooo++++++++++++....OOOOOOOOOOOOOOOOOOOOOOOOOOOOOOOO++++$$$$$$$$++++OOOOOOOOOOOOOOOOOOOOOOOOOOOOOOOOOOOO++++++++++++oooo$$$$",
"$$$$oooo++++++++++++....OOOOOOOOOOOOOOOOOOOOOOOOOOOOOOOO++++$$$$$$$$++++OOOOOOOOOOOOOOOOOOOOOOOOOOOOOOOOOOOO++++++++++++oooo$$$$",
"oooo$$$$++++++++++++OOOOOOOOOOOOOOOOOOOOOOOOOOOOOOOOOOOO++++$$$$$$$$++++OOOOOOOOOOOOOOOOOOOOOOOOOOOOOOOOOOOO++++++++++++$$$$oooo",
"oooo$$$$++++++++++++OOOOOOOOOOOOOOOOOOOOOOOOOOOOOOOOOOOO++++$$$$$$$$++++OOOOOOOOOOOOOOOOOOOOOOOOOOOOOOOOOOOO++++++++++++$$$$oooo",
"oooo$$$$++++++++++++OOOOOOOOOOOOOOOOOOOOOOOOOOOOOOOOOOOO++++$$$$$$$$++++OOOOOOOOOOOOOOOOOOOOOOOOOOOOOOOOOOOO++++++++++++$$$$oooo",
"oooo$$$$++++++++++++OOOOOOOOOOOOOOOOOOOOOOOOOOOOOOOOOOOO++++$$$$$$$$++++OOOOOOOOOOOOOOOOOOOOOOOOOOOOOOOOOOOO++++++++++++$$$$oooo",
"$$$$$$$$++++++++++++OOOOOOOOOOOOOOOOOOOOOOOOOOOOOOOOOOOO%%%%$$$$$$$$%%%%OOOOOOOOOOOOOOOOOOOOOOOOOOOOOOOOOOOO++++++++++++oooo$$$$",
"$$$$$$$$++++++++++++OOOOOOOOOOOOOOOOOOOOOOOOOOOOOOOOOOOO%%%%$$$$$$$$%%%%OOOOOOOOOOOOOOOOOOOOOOOOOOOOOOOOOOOO++++++++++++oooo$$$$",
"$$$$$$$$++++++++++++OOOOOOOOOOOOOOOOOOOOOOOOOOOOOOOOOOOO%%%%$$$$$$$$%%%%OOOOOOOOOOOOOOOOOOOOOOOOOOOOOOOOOOOO++++++++++++oooo$$$$",
"$$$$$$$$++++++++++++OOOOOOOOOOOOOOOOOOOOOOOOOOOOOOOOOOOO%%%%$$$$$$$$%%%%OOOOOOOOOOOOOOOOOOOOOOOOOOOOOOOOOOOO++++++++++++oooo$$$$",
"oooooooo++++++++++++OOOOOOOOOOOOOOOOOOOOOOOOOOOOOOOOOOOO$$$$$$$$$$$$$$$$OOOOOOOOOOOOOOOOOOOOOOOOOOOOOOOOOOOO++++++++++++oooo$$$$",
"oooooooo++++++++++++OOOOOOOOOOOOOOOOOOOOOOOOOOOOOOOOOOOO$$$$$$$$$$$$$$$$OOOOOOOOOOOOOOOOOOOOOOOOOOOOOOOOOOOO++++++++++++oooo$$$$",
"oooooooo++++++++++++OOOOOOOOOOOOOOOOOOOOOOOOOOOOOOOOOOOO$$$$$$$$$$$$$$$$OOOOOOOOOOOOOOOOOOOOOOOOOOOOOOOOOOOO++++++++++++oooo$$$$",
"oooooooo++++++++++++OOOOOOOOOOOOOOOOOOOOOOOOOOOOOOOOOOOO$$$$$$$$$$$$$$$$OOOOOOOOOOOOOOOOOOOOOOOOOOOOOOOOOOOO++++++++++++oooo$$$$",
"$$$$$$$$++++++++++++OOOOOOOOOOOOOOOOOOOOOOOOOOOOOOOOOOOO$$$$oooooooo$$$$OOOOOOOOOOOOOOOOOOOOOOOOOOOOOOOOOOOO++++++++++++$$$$$$$$",
"$$$$$$$$++++++++++++OOOOOOOOOOOOOOOOOOOOOOOOOOOOOOOOOOOO$$$$oooooooo$$$$OOOOOOOOOOOOOOOOOOOOOOOOOOOOOOOOOOOO++++++++++++$$$$$$$$",
"$$$$$$$$++++++++++++OOOOOOOOOOOOOOOOOOOOOOOOOOOOOOOOOOOO$$$$oooooooo$$$$OOOOOOOOOOOOOOOOOOOOOOOOOOOOOOOOOOOO++++++++++++$$$$$$$$",
"$$$$$$$$++++++++++++OOOOOOOOOOOOOOOOOOOOOOOOOOOOOOOOOOOO$$$$oooooooo$$$$OOOOOOOOOOOOOOOOOOOOOOOOOOOOOOOOOOOO++++++++++++$$$$$$$$",
"$$$$$$$$++++++++++++OOOOOOOOOOOOOOOOOOOOOOOOOOOOOOOOoooo$$$$$$$$$$$$$$$$ooooOOOOOOOOOOOOOOOOOOOOOOOOOOOOOOOO++++++++++++$$$$oooo",
"$$$$$$$$++++++++++++OOOOOOOOOOOOOOOOOOOOOOOOOOOOOOOOoooo$$$$$$$$$$$$$$$$ooooOOOOOOOOOOOOOOOOOOOOOOOOOOOOOOOO++++++++++++$$$$oooo",
"$$$$$$$$++++++++++++OOOOOOOOOOOOOOOOOOOOOOOOOOOOOOOOoooo$$$$$$$$$$$$$$$$ooooOOOOOOOOOOOOOOOOOOOOOOOOOOOOOOOO++++++++++++$$$$oooo",
"$$$$$$$$++++++++++++OOOOOOOOOOOOOOOOOOOOOOOOOOOOOOOOoooo$$$$$$$$$$$$$$$$ooooOOOOOOOOOOOOOOOOOOOOOOOOOOOOOOOO++++++++++++$$$$oooo",
"oooo$$$$++++++++++++OOOOOOOOOOOOOOOOOOOOOOOOOOOOOOOOOOOOoooo$$$$$$$$ooooOOOOOOOOOOOOOOOOOOOOOOOOOOOOOOOOOOOO++++++++++++$$$$oooo",
"oooo$$$$++++++++++++OOOOOOOOOOOOOOOOOOOOOOOOOOOOOOOOOOOOoooo$$$$$$$$ooooOOOOOOOOOOOOOOOOOOOOOOOOOOOOOOOOOOOO++++++++++++$$$$oooo",
"oooo$$$$++++++++++++OOOOOOOOOOOOOOOOOOOOOOOOOOOOOOOOOOOOoooo$$$$$$$$ooooOOOOOOOOOOOOOOOOOOOOOOOOOOOOOOOOOOOO++++++++++++$$$$oooo",
"oooo$$$$++++++++++++OOOOOOOOOOOOOOOOOOOOOOOOOOOOOOOOOOOOoooo$$$$$$$$ooooOOOOOOOOOOOOOOOOOOOOOOOOOOOOOOOOOOOO++++++++++++$$$$oooo",
"$$$$oooo++++++++++++OOOOOOOOOOOOOOOOOOOOOOOOOOOOOOOOOOOO$$$$oooooooo$$$$OOOOOOOOOOOOOOOOOOOOOOOOOOOOOOOOOOOO++++++++++++$$$$$$$$",
"$$$$oooo++++++++++++OOOOOOOOOOOOOOOOOOOOOOOOOOOOOOOOOOOO$$$$oooooooo$$$$OOOOOOOOOOOOOOOOOOOOOOOOOOOOOOOOOOOO++++++++++++$$$$$$$$",
"$$$$oooo++++++++++++OOOOOOOOOOOOOOOOOOOOOOOOOOOOOOOOOOOO$$$$oooooooo$$$$OOOOOOOOOOOOOOOOOOOOOOOOOOOOOOOOOOOO++++++++++++$$$$$$$$",
"$$$$oooo++++++++++++OOOOOOOOOOOOOOOOOOOOOOOOOOOOOOOOOOOO$$$$oooooooo$$$$OOOOOOOOOOOOOOOOOOOOOOOOOOOOOOOOOOOO++++++++++++$$$$$$$$",
"$$$$$$$$++++++++++++OOOOOOOOOOOOOOOOOOOOOOOOOOOOOOOOOOOO$$$$oooooooo$$$$OOOOOOOOOOOOOOOOOOOOOOOOOOOOOOOOOOOO++++++++++++$$$$$$$$",
"$$$$$$$$++++++++++++OOOOOOOOOOOOOOOOOOOOOOOOOOOOOOOOOOOO$$$$oooooooo$$$$OOOOOOOOOOOOOOOOOOOOOOOOOOOOOOOOOOOO++++++++++++$$$$$$$$",
"$$$$$$$$++++++++++++OOOOOOOOOOOOOOOOOOOOOOOOOOOOOOOOOOOO$$$$oooooooo$$$$OOOOOOOOOOOOOOOOOOOOOOOOOOOOOOOOOOOO++++++++++++$$$$$$$$",
"$$$$$$$$++++++++++++OOOOOOOOOOOOOOOOOOOOOOOOOOOOOOOOOOOO$$$$oooooooo$$$$OOOOOOOOOOOOOOOOOOOOOOOOOOOOOOOOOOOO++++++++++++$$$$$$$$",
"$$$$oooo++++++++++++OOOOOOOOOOOOOOOOOOOOOOOOOOOOOOOOOOOOOOOO$$$$$$$$OOOOOOOOOOOOOOOOOOOOOOOOOOOOOOOOOOOOOOOO++++++++++++oooo$$$$",
"$$$$oooo++++++++++++OOOOOOOOOOOOOOOOOOOOOOOOOOOOOOOOOOOOOOOO$$$$$$$$OOOOOOOOOOOOOOOOOOOOOOOOOOOOOOOOOOOOOOOO++++++++++++oooo$$$$",
"$$$$oooo++++++++++++OOOOOOOOOOOOOOOOOOOOOOOOOOOOOOOOOOOOOOOO$$$$$$$$OOOOOOOOOOOOOOOOOOOOOOOOOOOOOOOOOOOOOOOO++++++++++++oooo$$$$",
"$$$$oooo++++++++++++OOOOOOOOOOOOOOOOOOOOOOOOOOOOOOOOOOOOOOOO$$$$$$$$OOOOOOOOOOOOOOOOOOOOOOOOOOOOOOOOOOOOOOOO++++++++++++oooo$$$$",
"oooo$$$$++++++++++++OOOOOOOOOOOOOOOOOOOOOOOOOOOOOOOOOOOO@@@@$$$$$$$$@@@@OOOOOOOOOOOOOOOOOOOOOOOOOOOOOOOOOOOO++++++++++++$$$$oooo",
"oooo$$$$++++++++++++OOOOOOOOOOOOOOOOOOOOOOOOOOOOOOOOOOOO@@@@$$$$$$$$@@@@OOOOOOOOOOOOOOOOOOOOOOOOOOOOOOOOOOOO++++++++++++$$$$oooo",
"oooo$$$$++++++++++++OOOOOOOOOOOOOOOOOOOOOOOOOOOOOOOOOOOO@@@@$$$$$$$$@@@@OOOOOOOOOOOOOOOOOOOOOOOOOOOOOOOOOOOO++++++++++++$$$$oooo",
"oooo$$$$++++++++++++OOOOOOOOOOOOOOOOOOOOOOOOOOOOOOOOOOOO@@@@$$$$$$$$@@@@OOOOOOOOOOOOOOOOOOOOOOOOOOOOOOOOOOOO++++++++++++$$$$oooo",
"oooo$$$$++++++++++++@@@@@@@@@@@@@@@@@@@@@@@@@@@@@@@@@@@@++++$$$$$$$$++++@@@@@@@@@@@@@@@@@@@@@@@@@@@@@@@@@@@@++++++++++++$$$$$$$$",
"oooo$$$$++++++++++++@@@@@@@@@@@@@@@@@@@@@@@@@@@@@@@@@@@@++++$$$$$$$$++++@@@@@@@@@@@@@@@@@@@@@@@@@@@@@@@@@@@@++++++++++++$$$$$$$$",
"oooo$$$$++++++++++++@@@@@@@@@@@@@@@@@@@@@@@@@@@@@@@@@@@@++++$$$$$$$$++++@@@@@@@@@@@@@@@@@@@@@@@@@@@@@@@@@@@@++++++++++++$$$$$$$$",
"oooo$$$$++++++++++++@@@@@@@@@@@@@@@@@@@@@@@@@@@@@@@@@@@@++++$$$$$$$$++++@@@@@@@@@@@@@@@@@@@@@@@@@@@@@@@@@@@@++++++++++++$$$$$$$$",
"$$$$$$$$OOOO++++++++++++++++++++++++++++++++++++++++++++++++$$$$$$$$++++++++++++++++++++++++++++++++++++++++++++++++++++$$$$oooo",
"$$$$$$$$OOOO++++++++++++++++++++++++++++++++++++++++++++++++$$$$$$$$++++++++++++++++++++++++++++++++++++++++++++++++++++$$$$oooo",
"$$$$$$$$OOOO++++++++++++++++++++++++++++++++++++++++++++++++$$$$$$$$++++++++++++++++++++++++++++++++++++++++++++++++++++$$$$oooo",
"$$$$$$$$OOOO++++++++++++++++++++++++++++++++++++++++++++++++$$$$$$$$++++++++++++++++++++++++++++++++++++++++++++++++++++$$$$oooo",
"$$$$ooooOOOO++++++++++++++++++++++++++++++++++++++++++++OOOO$$$$$$$$OOOO++++++++++++++++++++++++++++++++++++++++++++OOOOoooo$$$$",
"$$$$ooooOOOO++++++++++++++++++++++++++++++++++++++++++++OOOO$$$$$$$$OOOO++++++++++++++++++++++++++++++++++++++++++++OOOOoooo$$$$",
"$$$$ooooOOOO++++++++++++++++++++++++++++++++++++++++++++OOOO$$$$$$$$OOOO++++++++++++++++++++++++++++++++++++++++++++OOOOoooo$$$$",
"$$$$ooooOOOO++++++++++++++++++++++++++++++++++++++++++++OOOO$$$$$$$$OOOO++++++++++++++++++++++++++++++++++++++++++++OOOOoooo$$$$",
"$$$$$$$$OOOOOOOO++++++++++++++++OOOOOOOOOOOOOOOO++++OOOOOOOO$$$$$$$$OOOOOOOO++++OOOOOOOOOOOOOOOOOOOO++++++++++++OOOOOOOO$$$$$$$$",
"$$$$$$$$OOOOOOOO++++++++++++++++OOOOOOOOOOOOOOOO++++OOOOOOOO$$$$$$$$OOOOOOOO++++OOOOOOOOOOOOOOOOOOOO++++++++++++OOOOOOOO$$$$$$$$",
"$$$$$$$$OOOOOOOO++++++++++++++++OOOOOOOOOOOOOOOO++++OOOOOOOO$$$$$$$$OOOOOOOO++++OOOOOOOOOOOOOOOOOOOO++++++++++++OOOOOOOO$$$$$$$$",
"$$$$$$$$OOOOOOOO++++++++++++++++OOOOOOOOOOOOOOOO++++OOOOOOOO$$$$$$$$OOOOOOOO++++OOOOOOOOOOOOOOOOOOOO++++++++++++OOOOOOOO$$$$$$$$",
"oooo$$$$OOOOOOOOOOOOOOOO%%%%%%%%%%%%%%%%%%%%%%%%%%%%%%%%%%%%%%%%%%%%%%%%%%%%%%%%%%%%%%%%%%%%%%%%%%%%%%%%OOOOOOOOOOOOOOOO$$$$$$$$",
"oooo$$$$OOOOOOOOOOOOOOOO%%%%%%%%%%%%%%%%%%%%%%%%%%%%%%%%%%%%%%%%%%%%%%%%%%%%%%%%%%%%%%%%%%%%%%%%%%%%%%%%OOOOOOOOOOOOOOOO$$$$$$$$",
"oooo$$$$OOOOOOOOOOOOOOOO%%%%%%%%%%%%%%%%%%%%%%%%%%%%%%%%%%%%%%%%%%%%%%%%%%%%%%%%%%%%%%%%%%%%%%%%%%%%%%%%OOOOOOOOOOOOOOOO$$$$$$$$",
"oooo$$$$OOOOOOOOOOOOOOOO%%%%%%%%%%%%%%%%%%%%%%%%%%%%%%%%%%%%%%%%%%%%%%%%%%%%%%%%%%%%%%%%%%%%%%%%%%%%%%%%OOOOOOOOOOOOOOOO$$$$$$$$",
"$$$$$$$$%%%%%%%%%%%%%%%%$$$$$$$$$$$$$$$$$$$$$$$$$$$$$$$$$$$$$$$$$$$$$$$$$$$$$$$$$$$$$$$$$$$$$$$$$$$$$$$$%%%%%%%%%%%%%%%%$$$$$$$$",
"$$$$$$$$%%%%%%%%%%%%%%%%$$$$$$$$$$$$$$$$$$$$$$$$$$$$$$$$$$$$$$$$$$$$$$$$$$$$$$$$$$$$$$$$$$$$$$$$$$$$$$$$%%%%%%%%%%%%%%%%$$$$$$$$",
"$$$$$$$$%%%%%%%%%%%%%%%%$$$$$$$$$$$$$$$$$$$$$$$$$$$$$$$$$$$$$$$$$$$$$$$$$$$$$$$$$$$$$$$$$$$$$$$$$$$$$$$$%%%%%%%%%%%%%%%%$$$$$$$$",
"$$$$$$$$%%%%%%%%%%%%%%%%$$$$$$$$$$$$$$$$$$$$$$$$$$$$$$$$$$$$$$$$$$$$$$$$$$$$$$$$$$$$$$$$$$$$$$$$$$$$$$$$%%%%%%%%%%%%%%%%$$$$$$$$",
"$$$$$$$$$$$$$$$$$$$$$$$$XXXX    XXXX    $$$$$$$$$$$$$$$$$$$$$$$$$$$$$$$$$$$$$$$$$$$$$$$$    XXXX    XXXX$$$$$$$$$$$$$$$$$$$$$$$$",
"$$$$$$$$$$$$$$$$$$$$$$$$XXXX    XXXX    $$$$$$$$$$$$$$$$$$$$$$$$$$$$$$$$$$$$$$$$$$$$$$$$    XXXX    XXXX$$$$$$$$$$$$$$$$$$$$$$$$",
"$$$$$$$$$$$$$$$$$$$$$$$$XXXX    XXXX    $$$$$$$$$$$$$$$$$$$$$$$$$$$$$$$$$$$$$$$$$$$$$$$$    XXXX    XXXX$$$$$$$$$$$$$$$$$$$$$$$$",
"$$$$$$$$$$$$$$$$$$$$$$$$XXXX    XXXX    $$$$$$$$$$$$$$$$$$$$$$$$$$$$$$$$$$$$$$$$$$$$$$$$    XXXX    XXXX$$$$$$$$$$$$$$$$$$$$$$$$"
};
