/* XPM */
static char *result[] = {
/* columns rows colors chars-per-pixel */
"128 128 11 1 ",
"  c #11002C",
". c #1A102A",
"X c #5F1701",
"o c #1D004A",
"O c #1F0777",
"+ c #8E2706",
"@ c #B52C00",
"# c #E03903",
"$ c #8C7800",
"% c #B59C00",
"& c #F3D726",
/* pixels */
"........................................&&&&&&&&&&&&&&&&&&&&&&&&&&&&&&&&&&&&&&&&&&&&&&&&........................................",
"........................................&&&&&&&&&&&&&&&&&&&&&&&&&&&&&&&&&&&&&&&&&&&&&&&&........................................",
"........................................&&&&&&&&&&&&&&&&&&&&&&&&&&&&&&&&&&&&&&&&&&&&&&&&........................................",
"........................................&&&&&&&&&&&&&&&&&&&&&&&&&&&&&&&&&&&&&&&&&&&&&&&&........................................",
"....................................&&&&%%%%%%%%%%%%%%%%%%%%%%%%%%%%%%%%%%%%%%%%%%%%%%%%&&&&....................................",
"....................................&&&&%%%%%%%%%%%%%%%%%%%%%%%%%%%%%%%%%%%%%%%%%%%%%%%%&&&&....................................",
"....................................&&&&%%%%%%%%%%%%%%%%%%%%%%%%%%%%%%%%%%%%%%%%%%%%%%%%&&&&....................................",
"....................................&&&&%%%%%%%%%%%%%%%%%%%%%%%%%%%%%%%%%%%%%%%%%%%%%%%%&&&&....................................",
"........................&&&&&&&&&&&&%%%%%%%%@@@@@@@@%%%%oooo    oooo    %%%%++++++++%%%%%%%%&&&&&&&&&&&&........................",
"........................&&&&&&&&&&&&%%%%%%%%@@@@@@@@%%%%oooo    oooo    %%%%++++++++%%%%%%%%&&&&&&&&&&&&........................",
"........................&&&&&&&&&&&&%%%%%%%%@@@@@@@@%%%%oooo    oooo    %%%%++++++++%%%%%%%%&&&&&&&&&&&&........................",
"........................&&&&&&&&&&&&%%%%%%%%@@@@@@@@%%%%oooo    oooo    %%%%++++++++%%%%%%%%&&&&&&&&&&&&........................",
"....................&&&&%%%%%%%%%%%%%%%%@@@@@@@@@@@@%%%%    oooo    oooo%%%%++++++++++++%%%%%%%%%%%%%%%%&&&&....................",
"....................&&&&%%%%%%%%%%%%%%%%@@@@@@@@@@@@%%%%    oooo    oooo%%%%++++++++++++%%%%%%%%%%%%%%%%&&&&....................",
"....................&&&&%%%%%%%%%%%%%%%%@@@@@@@@@@@@%%%%    oooo    oooo%%%%++++++++++++%%%%%%%%%%%%%%%%&&&&....................",
"....................&&&&%%%%%%%%%%%%%%%%@@@@@@@@@@@@%%%%    oooo    oooo%%%%++++++++++++%%%%%%%%%%%%%%%%&&&&....................",
"................&&&&%%%%%%%%@@@@@@@@@@@@@@@@@@@@@@@@%%%%oooo    oooo    %%%%@@@@@@@@@@@@++++++++++++%%%%%%%%&&&&................",
"................&&&&%%%%%%%%@@@@@@@@@@@@@@@@@@@@@@@@%%%%oooo    oooo    %%%%@@@@@@@@@@@@++++++++++++%%%%%%%%&&&&................",
"................&&&&%%%%%%%%@@@@@@@@@@@@@@@@@@@@@@@@%%%%oooo    oooo    %%%%@@@@@@@@@@@@++++++++++++%%%%%%%%&&&&................",
"................&&&&%%%%%%%%@@@@@@@@@@@@@@@@@@@@@@@@%%%%oooo    oooo    %%%%@@@@@@@@@@@@++++++++++++%%%%%%%%&&&&................",
"............&&&&%%%%%%%%@@@@@@@@@@@@@@@@@@@@@@@@@@@@%%%%    oooo    oooo%%%%@@@@@@@@@@@@@@@@@@@@++++++++%%%%%%%%&&&&............",
"............&&&&%%%%%%%%@@@@@@@@@@@@@@@@@@@@@@@@@@@@%%%%    oooo    oooo%%%%@@@@@@@@@@@@@@@@@@@@++++++++%%%%%%%%&&&&............",
"............&&&&%%%%%%%%@@@@@@@@@@@@@@@@@@@@@@@@@@@@%%%%    oooo    oooo%%%%@@@@@@@@@@@@@@@@@@@@++++++++%%%%%%%%&&&&............",
"............&&&&%%%%%%%%@@@@@@@@@@@@@@@@@@@@@@@@@@@@%%%%    oooo    oooo%%%%@@@@@@@@@@@@@@@@@@@@++++++++%%%%%%%%&&&&............",
"........&&&&%%%%%%%%@@@@@@@@@@@@@@@@@@@@@@@@XXXXXXXX%%%%oooo    oooo    %%%%XXXXXXXXXXXX@@@@@@@@@@@@++++++++%%%%%%%%&&&&........",
"........&&&&%%%%%%%%@@@@@@@@@@@@@@@@@@@@@@@@XXXXXXXX%%%%oooo    oooo    %%%%XXXXXXXXXXXX@@@@@@@@@@@@++++++++%%%%%%%%&&&&........",
"........&&&&%%%%%%%%@@@@@@@@@@@@@@@@@@@@@@@@XXXXXXXX%%%%oooo    oooo    %%%%XXXXXXXXXXXX@@@@@@@@@@@@++++++++%%%%%%%%&&&&........",
"........&&&&%%%%%%%%@@@@@@@@@@@@@@@@@@@@@@@@XXXXXXXX%%%%oooo    oooo    %%%%XXXXXXXXXXXX@@@@@@@@@@@@++++++++%%%%%%%%&&&&........",
"........%%%%%%%%@@@@@@@@@@@@@@@@@@@@XXXXXXXXXXXXXXXX%%%%    oooo    oooo%%%%XXXXXXXXXXXXXXXX@@@@@@@@@@@@++++++++%%%%%%%%........",
"........%%%%%%%%@@@@@@@@@@@@@@@@@@@@XXXXXXXXXXXXXXXX%%%%    oooo    oooo%%%%XXXXXXXXXXXXXXXX@@@@@@@@@@@@++++++++%%%%%%%%........",
"........%%%%%%%%@@@@@@@@@@@@@@@@@@@@XXXXXXXXXXXXXXXX%%%%    oooo    oooo%%%%XXXXXXXXXXXXXXXX@@@@@@@@@@@@++++++++%%%%%%%%........",
"........%%%%%%%%@@@@@@@@@@@@@@@@@@@@XXXXXXXXXXXXXXXX%%%%    oooo    oooo%%%%XXXXXXXXXXXXXXXX@@@@@@@@@@@@++++++++%%%%%%%%........",
"........%%%%%%%%@@@@@@@@@@@@@@@@XXXXXXXX++++XXXXXXXX%%%%oooo    oooo    %%%%XXXXXXXX++++XXXXXXXX@@@@@@@@@@@@++++%%%%%%%%........",
"........%%%%%%%%@@@@@@@@@@@@@@@@XXXXXXXX++++XXXXXXXX%%%%oooo    oooo    %%%%XXXXXXXX++++XXXXXXXX@@@@@@@@@@@@++++%%%%%%%%........",
"........%%%%%%%%@@@@@@@@@@@@@@@@XXXXXXXX++++XXXXXXXX%%%%oooo    oooo    %%%%XXXXXXXX++++XXXXXXXX@@@@@@@@@@@@++++%%%%%%%%........",
"........%%%%%%%%@@@@@@@@@@@@@@@@XXXXXXXX++++XXXXXXXX%%%%oooo    oooo    %%%%XXXXXXXX++++XXXXXXXX@@@@@@@@@@@@++++%%%%%%%%........",
"....&&&&%%%%%%%%@@@@@@@@@@@@XXXXXXXX++++++++++++XXXX%%%%    oooo    oooo%%%%XXXX++++++++++++XXXXXXXX@@@@@@@@++++%%%%%%%%&&&&....",
"....&&&&%%%%%%%%@@@@@@@@@@@@XXXXXXXX++++++++++++XXXX%%%%    oooo    oooo%%%%XXXX++++++++++++XXXXXXXX@@@@@@@@++++%%%%%%%%&&&&....",
"....&&&&%%%%%%%%@@@@@@@@@@@@XXXXXXXX++++++++++++XXXX%%%%    oooo    oooo%%%%XXXX++++++++++++XXXXXXXX@@@@@@@@++++%%%%%%%%&&&&....",
"....&&&&%%%%%%%%@@@@@@@@@@@@XXXXXXXX++++++++++++XXXX%%%%    oooo    oooo%%%%XXXX++++++++++++XXXXXXXX@@@@@@@@++++%%%%%%%%&&&&....",
"....%%%%%%%%@@@@@@@@@@@@@@@@XXXX++++++++++++++++XXXX%%%%oooo    oooo    %%%%++++++++++++++++++++XXXX@@@@@@@@@@@@++++%%%%%%%%&&&&",
"....%%%%%%%%@@@@@@@@@@@@@@@@XXXX++++++++++++++++XXXX%%%%oooo    oooo    %%%%++++++++++++++++++++XXXX@@@@@@@@@@@@++++%%%%%%%%&&&&",
"....%%%%%%%%@@@@@@@@@@@@@@@@XXXX++++++++++++++++XXXX%%%%oooo    oooo    %%%%++++++++++++++++++++XXXX@@@@@@@@@@@@++++%%%%%%%%&&&&",
"....%%%%%%%%@@@@@@@@@@@@@@@@XXXX++++++++++++++++XXXX%%%%oooo    oooo    %%%%++++++++++++++++++++XXXX@@@@@@@@@@@@++++%%%%%%%%&&&&",
"%%%%%%%%@@@@@@@@@@@@@@@@XXXXXXXX++++++++++++++++XXXX%%%%    oooo    oooo%%%%++++++++++++++++++++XXXXXXXX@@@@@@@@@@@@++++%%%%%%%%",
"%%%%%%%%@@@@@@@@@@@@@@@@XXXXXXXX++++++++++++++++XXXX%%%%    oooo    oooo%%%%++++++++++++++++++++XXXXXXXX@@@@@@@@@@@@++++%%%%%%%%",
"%%%%%%%%@@@@@@@@@@@@@@@@XXXXXXXX++++++++++++++++XXXX%%%%    oooo    oooo%%%%++++++++++++++++++++XXXXXXXX@@@@@@@@@@@@++++%%%%%%%%",
"%%%%%%%%@@@@@@@@@@@@@@@@XXXXXXXX++++++++++++++++XXXX%%%%    oooo    oooo%%%%++++++++++++++++++++XXXXXXXX@@@@@@@@@@@@++++%%%%%%%%",
"%%%%%%%%@@@@@@@@@@@@XXXXXXXX++++++++++++++++++++++++%%%%oooo    oooo    %%%%++++++++++++++++++++++++XXXXXXXX@@@@@@@@++++%%%%%%%%",
"%%%%%%%%@@@@@@@@@@@@XXXXXXXX++++++++++++++++++++++++%%%%oooo    oooo    %%%%++++++++++++++++++++++++XXXXXXXX@@@@@@@@++++%%%%%%%%",
"%%%%%%%%@@@@@@@@@@@@XXXXXXXX++++++++++++++++++++++++%%%%oooo    oooo    %%%%++++++++++++++++++++++++XXXXXXXX@@@@@@@@++++%%%%%%%%",
"%%%%%%%%@@@@@@@@@@@@XXXXXXXX++++++++++++++++++++++++%%%%oooo    oooo    %%%%++++++++++++++++++++++++XXXXXXXX@@@@@@@@++++%%%%%%%%",
"%%%%%%%%@@@@@@@@@@@@XXXXXXXX++++++++++++++++++++++++%%%%    oooo    oooo%%%%++++++++++++++++++++++++++++XXXX@@@@@@@@++++%%%%%%%%",
"%%%%%%%%@@@@@@@@@@@@XXXXXXXX++++++++++++++++++++++++%%%%    oooo    oooo%%%%++++++++++++++++++++++++++++XXXX@@@@@@@@++++%%%%%%%%",
"%%%%%%%%@@@@@@@@@@@@XXXXXXXX++++++++++++++++++++++++%%%%    oooo    oooo%%%%++++++++++++++++++++++++++++XXXX@@@@@@@@++++%%%%%%%%",
"%%%%%%%%@@@@@@@@@@@@XXXXXXXX++++++++++++++++++++++++%%%%    oooo    oooo%%%%++++++++++++++++++++++++++++XXXX@@@@@@@@++++%%%%%%%%",
"%%%%OOOO@@@@@@@@@@@@XXXX++++++++++++++++++++++++&&&&%%%%oooo    oooo    %%%%&&&&++++++++++++++++++++++++++++@@@@@@@@@@@@OOOO%%%%",
"%%%%OOOO@@@@@@@@@@@@XXXX++++++++++++++++++++++++&&&&%%%%oooo    oooo    %%%%&&&&++++++++++++++++++++++++++++@@@@@@@@@@@@OOOO%%%%",
"%%%%OOOO@@@@@@@@@@@@XXXX++++++++++++++++++++++++&&&&%%%%oooo    oooo    %%%%&&&&++++++++++++++++++++++++++++@@@@@@@@@@@@OOOO%%%%",
"%%%%OOOO@@@@@@@@@@@@XXXX++++++++++++++++++++++++&&&&%%%%oooo    oooo    %%%%&&&&++++++++++++++++++++++++++++@@@@@@@@@@@@OOOO%%%%",
"OOOO%%%%@@@@@@@@@@@@XXXX++++++++++++++++++++++++%%%%%%%%    oooo    oooo%%%%%%%%++++++++++++++++++++++++++++@@@@@@@@@@@@%%%%OOOO",
"OOOO%%%%@@@@@@@@@@@@XXXX++++++++++++++++++++++++%%%%%%%%    oooo    oooo%%%%%%%%++++++++++++++++++++++++++++@@@@@@@@@@@@%%%%OOOO",
"OOOO%%%%@@@@@@@@@@@@XXXX++++++++++++++++++++++++%%%%%%%%    oooo    oooo%%%%%%%%++++++++++++++++++++++++++++@@@@@@@@@@@@%%%%OOOO",
"OOOO%%%%@@@@@@@@@@@@XXXX++++++++++++++++++++++++%%%%%%%%    oooo    oooo%%%%%%%%++++++++++++++++++++++++++++@@@@@@@@@@@@%%%%OOOO",
"%%%%%%%%@@@@@@@@@@@@++++++++++++++++++++++++++++%%%%%%%%oooo    oooo    %%%%%%%%++++++++++++++++++++++++++++@@@@@@@@@@@@OOOO%%%%",
"%%%%%%%%@@@@@@@@@@@@++++++++++++++++++++++++++++%%%%%%%%oooo    oooo    %%%%%%%%++++++++++++++++++++++++++++@@@@@@@@@@@@OOOO%%%%",
"%%%%%%%%@@@@@@@@@@@@++++++++++++++++++++++++++++%%%%%%%%oooo    oooo    %%%%%%%%++++++++++++++++++++++++++++@@@@@@@@@@@@OOOO%%%%",
"%%%%%%%%@@@@@@@@@@@@++++++++++++++++++++++++++++%%%%%%%%oooo    oooo    %%%%%%%%++++++++++++++++++++++++++++@@@@@@@@@@@@OOOO%%%%",
"OOOOOOOO@@@@@@@@@@@@++++++++++++++++++++++++++++%%%%%%%%    oooo    oooo%%%%%%%%++++++++++++++++++++++++++++@@@@@@@@@@@@OOOO%%%%",
"OOOOOOOO@@@@@@@@@@@@++++++++++++++++++++++++++++%%%%%%%%    oooo    oooo%%%%%%%%++++++++++++++++++++++++++++@@@@@@@@@@@@OOOO%%%%",
"OOOOOOOO@@@@@@@@@@@@++++++++++++++++++++++++++++%%%%%%%%    oooo    oooo%%%%%%%%++++++++++++++++++++++++++++@@@@@@@@@@@@OOOO%%%%",
"OOOOOOOO@@@@@@@@@@@@++++++++++++++++++++++++++++%%%%%%%%    oooo    oooo%%%%%%%%++++++++++++++++++++++++++++@@@@@@@@@@@@OOOO%%%%",
"%%%%%%%%@@@@@@@@@@@@++++++++++++++++++++++++++++%%%%%%%%oooo    oooo    %%%%%%%%++++++++++++++++++++++++++++@@@@@@@@@@@@%%%%%%%%",
"%%%%%%%%@@@@@@@@@@@@++++++++++++++++++++++++++++%%%%%%%%oooo    oooo    %%%%%%%%++++++++++++++++++++++++++++@@@@@@@@@@@@%%%%%%%%",
"%%%%%%%%@@@@@@@@@@@@++++++++++++++++++++++++++++%%%%%%%%oooo    oooo    %%%%%%%%++++++++++++++++++++++++++++@@@@@@@@@@@@%%%%%%%%",
"%%%%%%%%@@@@@@@@@@@@++++++++++++++++++++++++++++%%%%%%%%oooo    oooo    %%%%%%%%++++++++++++++++++++++++++++@@@@@@@@@@@@%%%%%%%%",
"%%%%%%%%@@@@@@@@@@@@++++++++++++++++++++++++++++%%%%%%%%    oooo    oooo%%%%%%%%++++++++++++++++++++++++++++@@@@@@@@@@@@%%%%OOOO",
"%%%%%%%%@@@@@@@@@@@@++++++++++++++++++++++++++++%%%%%%%%    oooo    oooo%%%%%%%%++++++++++++++++++++++++++++@@@@@@@@@@@@%%%%OOOO",
"%%%%%%%%@@@@@@@@@@@@++++++++++++++++++++++++++++%%%%%%%%    oooo    oooo%%%%%%%%++++++++++++++++++++++++++++@@@@@@@@@@@@%%%%OOOO",
"%%%%%%%%@@@@@@@@@@@@++++++++++++++++++++++++++++%%%%%%%%    oooo    oooo%%%%%%%%++++++++++++++++++++++++++++@@@@@@@@@@@@%%%%OOOO",
"OOOO%%%%@@@@@@@@@@@@++++++++++++++++++++++++++++%%%%%%%%oooo    oooo    %%%%%%%%++++++++++++++++++++++++++++@@@@@@@@@@@@%%%%OOOO",
"OOOO%%%%@@@@@@@@@@@@++++++++++++++++++++++++++++%%%%%%%%oooo    oooo    %%%%%%%%++++++++++++++++++++++++++++@@@@@@@@@@@@%%%%OOOO",
"OOOO%%%%@@@@@@@@@@@@++++++++++++++++++++++++++++%%%%%%%%oooo    oooo    %%%%%%%%++++++++++++++++++++++++++++@@@@@@@@@@@@%%%%OOOO",
"OOOO%%%%@@@@@@@@@@@@++++++++++++++++++++++++++++%%%%%%%%oooo    oooo    %%%%%%%%++++++++++++++++++++++++++++@@@@@@@@@@@@%%%%OOOO",
"%%%%OOOO@@@@@@@@@@@@++++++++++++++++++++++++++++%%%%%%%%    oooo    oooo%%%%%%%%++++++++++++++++++++++++++++@@@@@@@@@@@@%%%%%%%%",
"%%%%OOOO@@@@@@@@@@@@++++++++++++++++++++++++++++%%%%%%%%    oooo    oooo%%%%%%%%++++++++++++++++++++++++++++@@@@@@@@@@@@%%%%%%%%",
"%%%%OOOO@@@@@@@@@@@@++++++++++++++++++++++++++++%%%%%%%%    oooo    oooo%%%%%%%%++++++++++++++++++++++++++++@@@@@@@@@@@@%%%%%%%%",
"%%%%OOOO@@@@@@@@@@@@++++++++++++++++++++++++++++%%%%%%%%    oooo    oooo%%%%%%%%++++++++++++++++++++++++++++@@@@@@@@@@@@%%%%%%%%",
"%%%%%%%%@@@@@@@@@@@@++++++++++++++++++++++++++++++++%%%%oooo    oooo    %%%%++++++++++++++++++++++++++++++++@@@@@@@@@@@@%%%%%%%%",
"%%%%%%%%@@@@@@@@@@@@++++++++++++++++++++++++++++++++%%%%oooo    oooo    %%%%++++++++++++++++++++++++++++++++@@@@@@@@@@@@%%%%%%%%",
"%%%%%%%%@@@@@@@@@@@@++++++++++++++++++++++++++++++++%%%%oooo    oooo    %%%%++++++++++++++++++++++++++++++++@@@@@@@@@@@@%%%%%%%%",
"%%%%%%%%@@@@@@@@@@@@++++++++++++++++++++++++++++++++%%%%oooo    oooo    %%%%++++++++++++++++++++++++++++++++@@@@@@@@@@@@%%%%%%%%",
"%%%%OOOO@@@@@@@@@@@@++++++++++++++++++++++++++++++++%%%%    oooo    oooo%%%%++++++++++++++++++++++++++++++++@@@@@@@@@@@@OOOO%%%%",
"%%%%OOOO@@@@@@@@@@@@++++++++++++++++++++++++++++++++%%%%    oooo    oooo%%%%++++++++++++++++++++++++++++++++@@@@@@@@@@@@OOOO%%%%",
"%%%%OOOO@@@@@@@@@@@@++++++++++++++++++++++++++++++++%%%%    oooo    oooo%%%%++++++++++++++++++++++++++++++++@@@@@@@@@@@@OOOO%%%%",
"%%%%OOOO@@@@@@@@@@@@++++++++++++++++++++++++++++++++%%%%    oooo    oooo%%%%++++++++++++++++++++++++++++++++@@@@@@@@@@@@OOOO%%%%",
"OOOO%%%%@@@@@@@@@@@@++++++++++++++++++++++++++++++++%%%%oooo    oooo    %%%%++++++++++++++++++++++++++++++++@@@@@@@@@@@@%%%%OOOO",
"OOOO%%%%@@@@@@@@@@@@++++++++++++++++++++++++++++++++%%%%oooo    oooo    %%%%++++++++++++++++++++++++++++++++@@@@@@@@@@@@%%%%OOOO",
"OOOO%%%%@@@@@@@@@@@@++++++++++++++++++++++++++++++++%%%%oooo    oooo    %%%%++++++++++++++++++++++++++++++++@@@@@@@@@@@@%%%%OOOO",
"OOOO%%%%@@@@@@@@@@@@++++++++++++++++++++++++++++++++%%%%oooo    oooo    %%%%++++++++++++++++++++++++++++++++@@@@@@@@@@@@%%%%OOOO",
"OOOO%%%%@@@@@@@@@@@@################################%%%%    oooo    oooo%%%%################################@@@@@@@@@@@@%%%%%%%%",
"OOOO%%%%@@@@@@@@@@@@################################%%%%    oooo    oooo%%%%################################@@@@@@@@@@@@%%%%%%%%",
"OOOO%%%%@@@@@@@@@@@@################################%%%%    oooo    oooo%%%%################################@@@@@@@@@@@@%%%%%%%%",
"OOOO%%%%@@@@@@@@@@@@################################%%%%    oooo    oooo%%%%################################@@@@@@@@@@@@%%%%%%%%",
"%%%%%%%%++++@@@@@@@@@@@@@@@@@@@@@@@@@@@@@@@@@@@@@@@@%%%%oooo    oooo    %%%%@@@@@@@@@@@@@@@@@@@@@@@@@@@@@@@@@@@@@@@@@@@@%%%%OOOO",
"%%%%%%%%++++@@@@@@@@@@@@@@@@@@@@@@@@@@@@@@@@@@@@@@@@%%%%oooo    oooo    %%%%@@@@@@@@@@@@@@@@@@@@@@@@@@@@@@@@@@@@@@@@@@@@%%%%OOOO",
"%%%%%%%%++++@@@@@@@@@@@@@@@@@@@@@@@@@@@@@@@@@@@@@@@@%%%%oooo    oooo    %%%%@@@@@@@@@@@@@@@@@@@@@@@@@@@@@@@@@@@@@@@@@@@@%%%%OOOO",
"%%%%%%%%++++@@@@@@@@@@@@@@@@@@@@@@@@@@@@@@@@@@@@@@@@%%%%oooo    oooo    %%%%@@@@@@@@@@@@@@@@@@@@@@@@@@@@@@@@@@@@@@@@@@@@%%%%OOOO",
"%%%%OOOO++++@@@@@@@@@@@@@@@@@@@@@@@@@@@@@@@@@@@@@@@@%%%%    oooo    oooo%%%%@@@@@@@@@@@@@@@@@@@@@@@@@@@@@@@@@@@@@@@@++++OOOO%%%%",
"%%%%OOOO++++@@@@@@@@@@@@@@@@@@@@@@@@@@@@@@@@@@@@@@@@%%%%    oooo    oooo%%%%@@@@@@@@@@@@@@@@@@@@@@@@@@@@@@@@@@@@@@@@++++OOOO%%%%",
"%%%%OOOO++++@@@@@@@@@@@@@@@@@@@@@@@@@@@@@@@@@@@@@@@@%%%%    oooo    oooo%%%%@@@@@@@@@@@@@@@@@@@@@@@@@@@@@@@@@@@@@@@@++++OOOO%%%%",
"%%%%OOOO++++@@@@@@@@@@@@@@@@@@@@@@@@@@@@@@@@@@@@@@@@%%%%    oooo    oooo%%%%@@@@@@@@@@@@@@@@@@@@@@@@@@@@@@@@@@@@@@@@++++OOOO%%%%",
"%%%%%%%%++++++++@@@@@@@@@@@@@@@@@@@@@@@@@@@@@@@@@@@@%%%%oooo    oooo    %%%%@@@@@@@@@@@@@@@@@@@@@@@@@@@@@@@@@@@@++++++++%%%%%%%%",
"%%%%%%%%++++++++@@@@@@@@@@@@@@@@@@@@@@@@@@@@@@@@@@@@%%%%oooo    oooo    %%%%@@@@@@@@@@@@@@@@@@@@@@@@@@@@@@@@@@@@++++++++%%%%%%%%",
"%%%%%%%%++++++++@@@@@@@@@@@@@@@@@@@@@@@@@@@@@@@@@@@@%%%%oooo    oooo    %%%%@@@@@@@@@@@@@@@@@@@@@@@@@@@@@@@@@@@@++++++++%%%%%%%%",
"%%%%%%%%++++++++@@@@@@@@@@@@@@@@@@@@@@@@@@@@@@@@@@@@%%%%oooo    oooo    %%%%@@@@@@@@@@@@@@@@@@@@@@@@@@@@@@@@@@@@++++++++%%%%%%%%",
"OOOO%%%%++++++++++++++++@@@@@@@@@@@@@@@@@@@@@@@@@@@@$$$$&&&&&&&&&&&&&&&&$$$$@@@@@@@@@@@@@@@@@@@@@@@@@@@@++++++++++++++++%%%%%%%%",
"OOOO%%%%++++++++++++++++@@@@@@@@@@@@@@@@@@@@@@@@@@@@$$$$&&&&&&&&&&&&&&&&$$$$@@@@@@@@@@@@@@@@@@@@@@@@@@@@++++++++++++++++%%%%%%%%",
"OOOO%%%%++++++++++++++++@@@@@@@@@@@@@@@@@@@@@@@@@@@@$$$$&&&&&&&&&&&&&&&&$$$$@@@@@@@@@@@@@@@@@@@@@@@@@@@@++++++++++++++++%%%%%%%%",
"OOOO%%%%++++++++++++++++@@@@@@@@@@@@@@@@@@@@@@@@@@@@$$$$&&&&&&&&&&&&&&&&$$$$@@@@@@@@@@@@@@@@@@@@@@@@@@@@++++++++++++++++%%%%%%%%",
"%%%%%%%%&&&&&&&&&&&&&&&&++++++++++++++++++++++++++++$$$$&&&&&&&&&&&&&&&&$$$$++++++++++++++++++++++++++++&&&&&&&&&&&&&&&&%%%%%%%%",
"%%%%%%%%&&&&&&&&&&&&&&&&++++++++++++++++++++++++++++$$$$&&&&&&&&&&&&&&&&$$$$++++++++++++++++++++++++++++&&&&&&&&&&&&&&&&%%%%%%%%",
"%%%%%%%%&&&&&&&&&&&&&&&&++++++++++++++++++++++++++++$$$$&&&&&&&&&&&&&&&&$$$$++++++++++++++++++++++++++++&&&&&&&&&&&&&&&&%%%%%%%%",
"%%%%%%%%&&&&&&&&&&&&&&&&++++++++++++++++++++++++++++$$$$&&&&&&&&&&&&&&&&$$$$++++++++++++++++++++++++++++&&&&&&&&&&&&&&&&%%%%%%%%",
"%%%%%%%%%%%%%%%%%%%%%%%%%%%%%%%%%%%%%%%%%%%%%%%%%%%%$$$$%%%%%%%%%%%%%%%%$$$$%%%%%%%%%%%%%%%%%%%%%%%%%%%%%%%%%%%%%%%%%%%%%%%%%%%%",
"%%%%%%%%%%%%%%%%%%%%%%%%%%%%%%%%%%%%%%%%%%%%%%%%%%%%$$$$%%%%%%%%%%%%%%%%$$$$%%%%%%%%%%%%%%%%%%%%%%%%%%%%%%%%%%%%%%%%%%%%%%%%%%%%",
"%%%%%%%%%%%%%%%%%%%%%%%%%%%%%%%%%%%%%%%%%%%%%%%%%%%%$$$$%%%%%%%%%%%%%%%%$$$$%%%%%%%%%%%%%%%%%%%%%%%%%%%%%%%%%%%%%%%%%%%%%%%%%%%%",
"%%%%%%%%%%%%%%%%%%%%%%%%%%%%%%%%%%%%%%%%%%%%%%%%%%%%$$$$%%%%%%%%%%%%%%%%$$$$%%%%%%%%%%%%%%%%%%%%%%%%%%%%%%%%%%%%%%%%%%%%%%%%%%%%"
};
