/* XPM */
static char *result[] = {
/* columns rows colors chars-per-pixel */
"128 128 38 1 ",
"  c gray1",
". c #1F0B09",
"X c #231600",
"o c #28150C",
"O c #3B1D1F",
"+ c #441F1D",
"@ c #462515",
"# c #61331C",
"$ c #502B29",
"% c #5D3C2D",
"& c #713F27",
"* c #365373",
"= c #6A7174",
"- c #8A5942",
"; c #308A60",
": c #319760",
"> c #448379",
", c #50AA77",
"< c #52B677",
"1 c #9D8574",
"2 c #53599D",
"3 c #57738A",
"4 c #5E5DAD",
"5 c #7378B4",
"6 c #7E7CC4",
"7 c #3FB082",
"8 c #3E91BB",
"9 c #529C9A",
"0 c #6B84A9",
"q c #7995A2",
"w c #6DB4A8",
"e c #81B5A3",
"r c #81BBA3",
"t c #8BB1AF",
"y c #96D4BA",
"u c #92BEC0",
"i c #9FCAC7",
"p c #9FC5D7",
/* pixels */
"XXXX----%%%%%%%%%%%%%%%%%%%%%%%%%%%%%%%%%%%%%%%%%%%%%%%%XXXX%%%%%%%%%%%%%%%%XXXX--------------------------------------------&&&&",
"XXXX----%%%%%%%%%%%%%%%%%%%%%%%%%%%%%%%%%%%%%%%%%%%%%%%%XXXX%%%%%%%%%%%%%%%%XXXX--------------------------------------------&&&&",
"XXXX----%%%%%%%%%%%%%%%%%%%%%%%%%%%%%%%%%%%%%%%%%%%%%%%%XXXX%%%%%%%%%%%%%%%%XXXX--------------------------------------------&&&&",
"XXXX----%%%%%%%%%%%%%%%%%%%%%%%%%%%%%%%%%%%%%%%%%%%%%%%%XXXX%%%%%%%%%%%%%%%%XXXX--------------------------------------------&&&&",
"&&&&XXXX----%%%%%%%%%%%%%%%%%%%%%%%%%%%%%%%%%%%%----XXXX&&&&%%%%%%%%%%%%%%%%%%%%XXXX--------------------------------------------",
"&&&&XXXX----%%%%%%%%%%%%%%%%%%%%%%%%%%%%%%%%%%%%----XXXX&&&&%%%%%%%%%%%%%%%%%%%%XXXX--------------------------------------------",
"&&&&XXXX----%%%%%%%%%%%%%%%%%%%%%%%%%%%%%%%%%%%%----XXXX&&&&%%%%%%%%%%%%%%%%%%%%XXXX--------------------------------------------",
"&&&&XXXX----%%%%%%%%%%%%%%%%%%%%%%%%%%%%%%%%%%%%----XXXX&&&&%%%%%%%%%%%%%%%%%%%%XXXX--------------------------------------------",
"----&&&&XXXX----%%%%%%%%%%%%%%%%%%%%%%%%%%%%----XXXX&&&&%%%%%%%%%%%%%%%%%%%%%%%%%%%%XXXX----------------------------------------",
"----&&&&XXXX----%%%%%%%%%%%%%%%%%%%%%%%%%%%%----XXXX&&&&%%%%%%%%%%%%%%%%%%%%%%%%%%%%XXXX----------------------------------------",
"----&&&&XXXX----%%%%%%%%%%%%%%%%%%%%%%%%%%%%----XXXX&&&&%%%%%%%%%%%%%%%%%%%%%%%%%%%%XXXX----------------------------------------",
"----&&&&XXXX----%%%%%%%%%%%%%%%%%%%%%%%%%%%%----XXXX&&&&%%%%%%%%%%%%%%%%%%%%%%%%%%%%XXXX----------------------------------------",
"--------&&&&XXXX----%%%%%%%%%%%%%%%%%%%%----XXXX&&&&%%%%%%%%%%%%%%%%%%%%%%%%%%%%%%%%%%%%XXXX------------------------------------",
"--------&&&&XXXX----%%%%%%%%%%%%%%%%%%%%----XXXX&&&&%%%%%%%%%%%%%%%%%%%%%%%%%%%%%%%%%%%%XXXX------------------------------------",
"--------&&&&XXXX----%%%%%%%%%%%%%%%%%%%%----XXXX&&&&%%%%%%%%%%%%%%%%%%%%%%%%%%%%%%%%%%%%XXXX------------------------------------",
"--------&&&&XXXX----%%%%%%%%%%%%%%%%%%%%----XXXX&&&&%%%%%%%%%%%%%%%%%%%%%%%%%%%%%%%%%%%%XXXX------------------------------------",
"------------&&&&XXXX%%%%%%%%%%%%%%%%----XXXX&&&&%%%%%%%%%%%%%%%%%%%%%%%%%%%%%%%%%%%%%%%%%%%%XXXX--------------------------------",
"------------&&&&XXXX%%%%%%%%%%%%%%%%----XXXX&&&&%%%%%%%%%%%%%%%%%%%%%%%%%%%%%%%%%%%%%%%%%%%%XXXX--------------------------------",
"------------&&&&XXXX%%%%%%%%%%%%%%%%----XXXX&&&&%%%%%%%%%%%%%%%%%%%%%%%%%%%%%%%%%%%%%%%%%%%%XXXX--------------------------------",
"------------&&&&XXXX%%%%%%%%%%%%%%%%----XXXX&&&&%%%%%%%%%%%%%%%%%%%%%%%%%%%%%%%%%%%%%%%%%%%%XXXX--------------------------------",
"----------------&&&&XXXX%%%%%%%%%%%%XXXX&&&&%%%%%%%%%%%%%%%%%%%%%%%%%%%%%%%%%%%%%%%%%%%%%%%%%%%%XXXX----------------------------",
"----------------&&&&XXXX%%%%%%%%%%%%XXXX&&&&%%%%%%%%%%%%%%%%%%%%%%%%%%%%%%%%%%%%%%%%%%%%%%%%%%%%XXXX----------------------------",
"----------------&&&&XXXX%%%%%%%%%%%%XXXX&&&&%%%%%%%%%%%%%%%%%%%%%%%%%%%%%%%%%%%%%%%%%%%%%%%%%%%%XXXX----------------------------",
"----------------&&&&XXXX%%%%%%%%%%%%XXXX&&&&%%%%%%%%%%%%%%%%%%%%%%%%%%%%%%%%%%%%%%%%%%%%%%%%%%%%XXXX----------------------------",
"--------------------&&&&XXXX%%%%XXXX&&&&%%%%%%%%%%%%%%%%%%%%%%%%%%%%%%%%%%%%%%%%%%%%%%%%%%%%%%%%%%%%XXXX------------------------",
"--------------------&&&&XXXX%%%%XXXX&&&&%%%%%%%%%%%%%%%%%%%%%%%%%%%%%%%%%%%%%%%%%%%%%%%%%%%%%%%%%%%%XXXX------------------------",
"--------------------&&&&XXXX%%%%XXXX&&&&%%%%%%%%%%%%%%%%%%%%%%%%%%%%%%%%%%%%%%%%%%%%%%%%%%%%%%%%%%%%XXXX------------------------",
"--------------------&&&&XXXX%%%%XXXX&&&&%%%%%%%%%%%%%%%%%%%%%%%%%%%%%%%%%%%%%%%%%%%%%%%%%%%%%%%%%%%%XXXX------------------------",
"----------------------------XXXX&&&&&&&&%%%%%%%%%%%%%%%%%%%%%%%%%%%%%%%%%%%%%%%%%%%%%%%%%%%%%%%%%%%%%%%%XXXX&&&&----------------",
"----------------------------XXXX&&&&&&&&%%%%%%%%%%%%%%%%%%%%%%%%%%%%%%%%%%%%%%%%%%%%%%%%%%%%%%%%%%%%%%%%XXXX&&&&----------------",
"----------------------------XXXX&&&&&&&&%%%%%%%%%%%%%%%%%%%%%%%%%%%%%%%%%%%%%%%%%%%%%%%%%%%%%%%%%%%%%%%%XXXX&&&&----------------",
"----------------------------XXXX&&&&&&&&%%%%%%%%%%%%%%%%%%%%%%%%%%%%%%%%%%%%%%%%%%%%%%%%%%%%%%%%%%%%%%%%XXXX&&&&----------------",
"----------------------------&&&&XXXX&&&&%%%%%%%%%%%%%%%%%%%%%%%%%%%%%%%%%%%%%%%%%%%%%%%%%%%%%%%%%%%%%%%%%%%%XXXX&&&&------------",
"----------------------------&&&&XXXX&&&&%%%%%%%%%%%%%%%%%%%%%%%%%%%%%%%%%%%%%%%%%%%%%%%%%%%%%%%%%%%%%%%%%%%%XXXX&&&&------------",
"----------------------------&&&&XXXX&&&&%%%%%%%%%%%%%%%%%%%oooooooooo%%%%%%%%%%%%%%%%%%%%%%%%%%%%%%%%%%%%%%%XXXX&&&&------------",
"----------------------------&&&&XXXX&&&&%%%%%%%%%%%%%%%%%%%oooooooooo%%%%%%%%%%%%%%%%%%%%%%%%%%%%%%%%%%%%%%%XXXX&&&&------------",
"----------------------------&&&&XXXXXXXX&&&&%%%%%%%%%%%%%oo11111111##oo%%%%%%%%%%%%%%%%%%%%%%%%%%%%%%%%%%%%%%%%%XXXX&&&&--------",
"----------------------------&&&&XXXXXXXX&&&&%%%%%%%%%%%%%oo11111111##oo%%%%%%%%%%%%%%%%%%%%%%%%%%%%%%%%%%%%%%%%%XXXX&&&&--------",
"----------------------------&&&&XXXXXXXX&&&    %%%%%%%%oo11############oo%%%%%%%%    %%%%%%%%%%%%%%%%%%%%%%%%%%%XXXX&&&&--------",
"----------------------------&&&&XXXXXXXX&&&    %%%%%%%%oo11############oo%%%%%%%%    %%%%%%%%%%%%%%%%%%%%%%%%%%%XXXX&&&&--------",
"------------------------&&&&XXXX----%%%%X  pp88  %%%%%%oooo##########oooo%%%%%%  8888  %%%%%%%%%%%%%%%%%%%%%%%%%%%%%XXXX&&&&----",
"------------------------&&&&XXXX----%%%%X  pp88  %%%%%%oooo##########oooo%%%%%%  8888  %%%%%%%%%%%%%%%%%%%%%%%%%%%%%XXXX&&&&----",
"------------------------&&&&XXXX----%%%%X  888888      oo@@oooooooooo@@oo      888888  %%%%%%%%%%%%%%%%%%%%%%%%%%%%%XXXX&&&&----",
"------------------------&&&&XXXX----%%%%X  888888      oo@@oooooooooo@@oo      888888  %%%%%%%%%%%%%%%%%%%%%%%%%%%%%XXXX&&&&----",
"--------------------&&&&XXXX----%%%%%%%%%%%  888888888888oo@@@@@@@@@@oo888888888888  %%%%%%%%%%%%%%%%%%%%%%%%%%%%%%%%%%%XXXX&&&&",
"--------------------&&&&XXXX----%%%%%%%%%%%  888888888888oo@@@@@@@@@@oo888888888888  %%%%%%%%%%%%%%%%%%%%%%%%%%%%%%%%%%%XXXX&&&&",
"--------------------&&&&XXXX----%%%%%%%%%%%%X  8888pp9999  @@@@@@@@@@  9999pp8888  %%%%%%%%%%%%%%%%%%%%%%%%%%%%%%%%%%%%%XXXX&&&&",
"--------------------&&&&XXXX----%%%%%%%%%%%%X  8888pp9999  @@@@@@@@@@  9999pp8888  %%%%%%%%%%%%%%%%%%%%%%%%%%%%%%%%%%%%%XXXX&&&&",
"&&&&------------&&&&XXXX----%%%%%%%%%%%%%%%%%  88uu9999  99==      qq99  9999pp88  %%%%%%%%%%%%%%%%%%%%%%%%%%%%%%%%%%%%%%%%%XXXX",
"&&&&------------&&&&XXXX----%%%%%%%%%%%%%%%%%  88uu9999  99==      qq99  9999pp88  %%%%%%%%%%%%%%%%%%%%%%%%%%%%%%%%%%%%%%%%%XXXX",
"&&&&------------&&&&XXXX----%%%%%%%%%%%%%%%%%  99997777  ii9999999999ii  99779988  %%%%%%%%%%%%%%%%%%%%%%%%%%%%%%%%%%%%%%%%%XXXX",
"&&&&------------&&&&XXXX----%%%%%%%%%%%%%%%%%  99997777  ii9999999999ii  99779988  %%%%%%%%%%%%%%%%%%%%%%%%%%%%%%%%%%%%%%%%%XXXX",
"XXXX&&&&--------XXXX----%%%%%%%%%%%%%%%%%%%%%  99yy777777  iiwwwwwwii  777777yy99  %%%%%%%%%%%%%%%%%%%%%%%%%%%%%%%%%%%%%%%%%%%%%",
"XXXX&&&&--------XXXX----%%%%%%%%%%%%%%%%%%%%%  99yy777777  iiwwwwwwii  777777yy99  %%%%%%%%%%%%%%%%%%%%%%%%%%%%%%%%%%%%%%%%%%%%%",
"XXXX&&&&--------XXXX----%%%%%%%%%%%%%%%%%%%%%  7777yy777777          777777yy7777  %%%%%%%%%%%%%%%%%%%%%%%%%%%%%%%%%%%%%%%%%%%%%",
"XXXX&&&&--------XXXX----%%%%%%%%%%%%%%%%%%%%%  7777yy777777          777777yy7777  %%%%%%%%%%%%%%%%%%%%%%%%%%%%%%%%%%%%%%%%%%%%%",
"%%%%XXXX&&&&XXXX----%%%%%%%%%%%%%%%%%%%%%%%%%  7777777777777777777777777777777777  %%%%%%%%%%%%%%%%%%%%%%%%%%%%%%%%%%%%%%%%%%%%%",
"%%%%XXXX&&&&XXXX----%%%%%%%%%%%%%%%%%%%%%%%%%  7777777777777777777777777777777777  %%%%%%%%%%%%%%%%%%%%%%%%%%%%%%%%%%%%%%%%%%%%%",
"%%%%XXXX&&&&XXXX----%%%%%%%%%%%%%%%%%%%%%%%  8888                              8888  %%%%%%%%%%%%%%%%%%%%%%%%%%%%%%%%%%%%%%%%%%%",
"%%%%XXXX&&&&XXXX----%%%%%%%%%%%%%%%%%%%%%%%  8888                              8888  %%%%%%%%%%%%%%%%%%%%%%%%%%%%%%%%%%%%%%%%%%%",
"%%%%%%%%XXXX----%%%%%%%%%%%%%%%%%%%%%%%%%  pp88  ::::::::::::********::::::::::  88pp  %%%%%%%%%%%%%%%%%%%%%%%%%%%%%%%%%%%%%%%%%",
"%%%%%%%%XXXX----%%%%%%%%%%%%%%%%%%%%%%%%%  pp88  ::::::::::::********::::::::::  88pp  %%%%%%%%%%%%%%%%%%%%%%%%%%%%%%%%%%%%%%%%%",
"%%%%%%%%XXXX----%%%%%%%%%%%%%%%%%%%%%%%%%      ::::::::::::**22444422**::<<::::::      %%%%%%%%%%%%%%%%%%%%%%%%%%%%%%%%%%%%%%%%%",
"%%%%%%%%XXXX----%%%%%%%%%%%%%%%%%%%%%%%%%      ::::::::::::**22444422**::<<::::::      %%%%%%%%%%%%%%%%%%%%%%%%%%%%%%%%%%%%%%%%%",
"%%%%%%%%----XXXX%%%%%%%%%%%%%%%%%%%%%%%%&  rrrr::::::::::**224444444422**::<<::::rrrr  %%%%%%%%%%%%%%%%%%%%%%%%%%%%%%%%%%%%%%%%%",
"%%%%%%%%----XXXX%%%%%%%%%%%%%%%%%%%%%%%%&  rrrr::::::::::**224444444422**::<<::::rrrr  %%%%%%%%%%%%%%%%%%%%%%%%%%%%%%%%%%%%%%%%%",
"%%%%%%%%----XXXX%%%%%%%%%%%%%%%%%%%%%%%%&  tt::::::::<<::**444444444444**::::<<::::tt  %%%%%%%%%%%%%%%%%%%%%%%%%%%%%%%%%%%%%%%%%",
"%%%%%%%%----XXXX%%%%%%%%%%%%%%%%%%%%%%%%&  tt::::::::<<::**444444444444**::::<<::::tt  %%%%%%%%%%%%%%%%%%%%%%%%%%%%%%%%%%%%%%%%%",
"%%%%%%%%%%%%----XXXX%%%%%%%%%%%%%%%%%%%%%%%  >>::::::::336644444444444444**::::::>>  %%%%%%%%%%%%%%%%%%%%%%%%%%%%%%%%%%%%%%%%%%%",
"%%%%%%%%%%%%----XXXX%%%%%%%%%%%%%%%%%%%%%%%  >>::::::::336644444444444444**::::::>>  %%%%%%%%%%%%%%%%%%%%%%%%%%%%%%%%%%%%%%%%%%%",
"%%%%%%%%%%%%----XXXX%%%%%%%%%%%%%%%%%%%%%%%%&  >>::::::**5566444444444422**::::>>  %%%%%%%%%%%%%%%%%%%%%%%%%%%%%%%%%%%%%%%%%%%%%",
"%%%%%%%%%%%%----XXXX%%%%%%%%%%%%%%%%%%%%%%%%&  >>::::::**5566444444444422**::::>>  %%%%%%%%%%%%%%%%%%%%%%%%%%%%%%%%%%%%%%%%%%%%%",
"%%%%%%%%%%%%%%%%----XXXX----%%%%%%%%%%%%%%%%%  ;;;;::::**223355222222**22**;;;;;;  %%%%%%%%%%%%%%%%%%%%%%%%%%%%%%%%%%%%%%%%%%%%%",
"%%%%%%%%%%%%%%%%----XXXX----%%%%%%%%%%%%%%%%%  ;;;;::::**223355222222**22**;;;;;;  %%%%%%%%%%%%%%%%%%%%%%%%%%%%%%%%%%%%%%%%%%%%%",
"%%%%%%%%%%%%%%%%----XXXX----%%%%%%%%%%%%%%%%%  ::;;;;;;****00335522**00****;;;;;;  %%%%%%%%%%%%%%%%%%%%%%%%%%%%%%%%%%%%%%%%%%%%%",
"%%%%%%%%%%%%%%%%----XXXX----%%%%%%%%%%%%%%%%%  ::;;;;;;****00335522**00****;;;;;;  %%%%%%%%%%%%%%%%%%%%%%%%%%%%%%%%%%%%%%%%%%%%%",
"%%%%%%%%%%%%%%%%%%%%----XXXX----%%%%%%%%%%%%%  ;;::::,,**22**22555522**22**;;;;;;  &%%%%%%%%%%%%%%%%%%%%%%%%%%%%%%%%%%%%%%%%%%%%",
"%%%%%%%%%%%%%%%%%%%%----XXXX----%%%%%%%%%%%%%  ;;::::,,**22**22555522**22**;;;;;;  &%%%%%%%%%%%%%%%%%%%%%%%%%%%%%%%%%%%%%%%%%%%%",
"%%%%%%%%%%%%%%%%%%%%----XXXX----%%%%%%%%%%%%%  ;;;;;;::,,**2222**555522**;;;;;;;;  &%%%%%%%%%%%%%%%%%%%%%%%%%%%%%%%%%%%%%%%%%%%%",
"%%%%%%%%%%%%%%%%%%%%----XXXX----%%%%%%%%%%%%%  ;;;;;;::,,**2222**555522**;;;;;;;;  &%%%%%%%%%%%%%%%%%%%%%%%%%%%%%%%%%%%%%%%%%%%%",
"%%%%%%%%%%%%%%%%%%%%%%%%%%%%XXXX----%%%%%%%%O  ;;;;;;;;;;;;**22222255****::::;;;;  .+&&&%%%%%%%%%%%%%%%%%%%%%%%%%%%%%%%%%%%%%%%%",
"%%%%%%%%%%%%%%%%%%%%%%%%%%%%XXXX----%%%%%OOOO  ;;;;;;;;;;;;**22222255****::::;;;;  .++++%%%%%%%%%%%%%%%%%%%%%%%%%%%%%%%%%%%%%%%%",
"%%%%%%%%%%%%%%%%%%%%%%%%%%%%XXXX----%%%%%OOOO  ;;;;;;;;;;;;;;**2222**,,;;;;;;;;;;  .++++%%%%%%%%%%%%%%%%%%%%%%%%%%%%%%%%%%%%%%%%",
"%%%%%%%%%%%%%%%%%%%%%%%%%%%%XXXX----%%%OOOOOO  ;;;;;;;;;;;;;;**2222**,,;;;;;;;;;;  .++++OO%%%%%%%%%%%%%%%%%%%%%%%%%%%%%%%%%%%%%%",
"%%%%%%%%%%%%%%%%%%%%%%%%%%%%%%%%XXXX-$$$OOOOO  ::::;;;;;;;;;;**2222**;;;;;;;;;;;;  O....++++%%%%%%%%%%%%%%%%%%%%%%%%%%%%%%%%%%%%",
"%%%%%%%%%%%%%%%%%%%%%%%%%%%%%%%%XXXX-$$$OOOOO  ::::;;;;;;;;;;**2222**;;;;;;;;;;;;  O....++++%%%%%%%%%%%%%%%%%%%%%%%%%%%%%%%%%%%%",
"%%%%%%%%%%%%%%%%%%%%%%%%%%%%%%%%XXXX$$$$OOO  ee;;;;::::::;;;;;;****;;::::::::;;;;ee  ...++++O%%%%%%%%%%%%%%%%%%%%%%%%%%%%%%%%%%%",
"%%%%%%%%%%%%%%%%%%%%%%%%%%%%%%%%XXXX$$$$OOO  ee;;;;::::::;;;;;;****;;::::::::;;;;ee  ...++++O%%%%%%%%%%%%%%%%%%%%%%%%%%%%%%%%%%%",
"%%%%%%%%%%%%%%%%%%%%%%%%%%%%%%%%%%%%....$  ee;;;;;;;;;;;;;;;;;;;;;;;;;;;;;;;;;;;;;;ee  O....+&&&%%%%%%%%%%%%%%%%%%%%%%%%%%%%%%%%",
"%%%%%%%%%%%%%%%%%%%%%%%%%%%%%%%%%%%%....$  ee;;;;;;;;;;;;;;;;;;;;;;;;;;;;;;;;;;;;;;ee  O....+&&&%%%%%%%%%%%%%%%%%%%%%%%%%%%%%%%%",
"%%%%%%%%%%%%%%%%%%%%%%%%%%%%%%%%%%%%X...$  ;;;;;;;;;;;;;;;;;;;;;;;;;;;;;;;;;;;;;;;;;;  O....&&&&%%%%%%%%%%%%%%%%%%%%%%%%%%%%%%%%",
"%%%%%%%%%%%%%%%%%%%%%%%%%%%%%%%%%%%%X...$  ;;;;;;;;;;;;;;;;;;;;;;;;;;;;;;;;;;;;;;;;;;  O....&&&&%%%%%%%%%%%%%%%%%%%%%%%%%%%%%%%%",
"%%%%%%%%%%%%%%%%%%%%%%%%%%%%%%%%%%%%%%%O...                                          OOOOO%%XXXX&&&&%%%%%%%%%%%%%%%%%%%%%%%%%%%%",
"%%%%%%%%%%%%%%%%%%%%%%%%%%%%%%%%%%%%%%%%X..                                          OOO%%%%XXXX&&&&%%%%%%%%%%%%%%%%%%%%%%%%%%%%",
"%%%%%%%%%%%%%%%%%%%%%%%%%%%%%%%%%%%%%%%%X...$$$$OOOOOOOOOOOOOOOOOOOOOOOOOOOOOOOOOOOOOOOO%%%%XXXX&&&&%%%%%%%%%%%%%%%%%%%%%%%%%%%%",
"%%%%%%%%%%%%%%%%%%%%%%%%%%%%%%%%%%%%%%%%XXXX$$$$OOOOOOOOOOOOOOOOOOOOOOOOOOOOOOOOOOOOO%%%%%%%XXXX&&&&%%%%%%%%%%%%%%%%%%%%%%%%%%%%",
"%%%%%%%%%%%%%%%%%%%%%%%%%%%%%%%%%%%%%%%%%%%%XXXX$$$$OOOOOOOOOOOOOOOOOOOOOOOOOOOOO%%%%%%%%%%%XXXXXXXX%%%%%%%%%%%%%%%%%%%%%%%%%%%%",
"%%%%%%%%%%%%%%%%%%%%%%%%%%%%%%%%%%%%%%%%%%%%XXXX$$$$OOOOOOOOOOOOOOOOOOOOOOOOOOOOO%%%%%%%%%%%XXXXXXXX%%%%%%%%%%%%%%%%%%%%%%%%%%%%",
"%%%%%%%%%%%%%%%%%%%%%%%%%%%%%%%%%%%%%%%%%%%%XXXX----%%%OOOOOOOOOOOOOOOOOOO%%%%%%%%%%%%%%%%%%XXXXXXXX%%%%%%%%%%%%%%%%%%%%%%%%%%%%",
"%%%%%%%%%%%%%%%%%%%%%%%%%%%%%%%%%%%%%%%%%%%%XXXX----%%%%%%%%%%%%%%%%%%%%%%%%%%%%%%%%%%%%%%%%XXXXXXXX%%%%%%%%%%%%%%%%%%%%%%%%%%%%",
"%%%%%%%%%%%%%%%%%%%%%%%%%%%%%%%%%%%%%%%%%%%%%%%%XXXX----%%%%%%%%%%%%%%%%%%%%%%%%%%%%%%%%XXXX&&&&&&&&XXXX%%%%%%%%%%%%%%%%%%%%%%%%",
"%%%%%%%%%%%%%%%%%%%%%%%%%%%%%%%%%%%%%%%%%%%%%%%%XXXX----%%%%%%%%%%%%%%%%%%%%%%%%%%%%%%%%XXXX&&&&&&&&XXXX%%%%%%%%%%%%%%%%%%%%%%%%",
"%%%%%%%%%%%%%%%%%%%%%%%%%%%%%%%%%%%%%%%%%%%%%%%%XXXX----%%%%%%%%%%%%%%%%%%%%%%%%%%%%%%%%XXXX&&&&&&&&XXXX%%%%%%%%%%%%%%%%%%%%%%%%",
"%%%%%%%%%%%%%%%%%%%%%%%%%%%%%%%%%%%%%%%%%%%%%%%%XXXX----%%%%%%%%%%%%%%%%%%%%%%%%%%%%%%%%XXXX&&&&&&&&XXXX%%%%%%%%%%%%%%%%%%%%%%%%",
"%%%%%%%%%%%%%%%%%%%%%%%%%%%%%%%%%%%%%%%%%%%%%%%%%%%%XXXX%%%%%%%%%%%%%%%%%%%%%%%%%%%%XXXX&&&&------------XXXX%%%%%%%%%%%%%%%%%%%%",
"%%%%%%%%%%%%%%%%%%%%%%%%%%%%%%%%%%%%%%%%%%%%%%%%%%%%XXXX%%%%%%%%%%%%%%%%%%%%%%%%%%%%XXXX&&&&------------XXXX%%%%%%%%%%%%%%%%%%%%",
"%%%%%%%%%%%%%%%%%%%%%%%%%%%%%%%%%%%%%%%%%%%%%%%%%%%%XXXX%%%%%%%%%%%%%%%%%%%%%%%%%%%%XXXX&&&&------------XXXX%%%%%%%%%%%%%%%%%%%%",
"%%%%%%%%%%%%%%%%%%%%%%%%%%%%%%%%%%%%%%%%%%%%%%%%%%%%XXXX%%%%%%%%%%%%%%%%%%%%%%%%%%%%XXXX&&&&------------XXXX%%%%%%%%%%%%%%%%%%%%",
"%%%%%%%%%%%%%%%%%%%%%%%%%%%%%%%%%%%%%%%%%%%%%%%%%%%%%%%%XXXX%%%%%%%%%%%%%%%%%%%%XXXX&&&&--------------------XXXX----%%%%%%%%%%%%",
"%%%%%%%%%%%%%%%%%%%%%%%%%%%%%%%%%%%%%%%%%%%%%%%%%%%%%%%%XXXX%%%%%%%%%%%%%%%%%%%%XXXX&&&&--------------------XXXX----%%%%%%%%%%%%",
"%%%%%%%%%%%%%%%%%%%%%%%%%%%%%%%%%%%%%%%%%%%%%%%%%%%%%%%%XXXX%%%%%%%%%%%%%%%%%%%%XXXX&&&&--------------------XXXX----%%%%%%%%%%%%",
"%%%%%%%%%%%%%%%%%%%%%%%%%%%%%%%%%%%%%%%%%%%%%%%%%%%%%%%%XXXX%%%%%%%%%%%%%%%%%%%%XXXX&&&&--------------------XXXX----%%%%%%%%%%%%",
"%%%%%%%%%%%%%%%%%%%%%%%%%%%%%%%%%%%%%%%%%%%%%%%%%%%%%%%%%%%%XXXX%%%%%%%%%%%%XXXX&&&&------------------------&&&&XXXX----%%%%%%%%",
"%%%%%%%%%%%%%%%%%%%%%%%%%%%%%%%%%%%%%%%%%%%%%%%%%%%%%%%%%%%%XXXX%%%%%%%%%%%%XXXX&&&&------------------------&&&&XXXX----%%%%%%%%",
"%%%%%%%%%%%%%%%%%%%%%%%%%%%%%%%%%%%%%%%%%%%%%%%%%%%%%%%%%%%%XXXX%%%%%%%%%%%%XXXX&&&&------------------------&&&&XXXX----%%%%%%%%",
"%%%%%%%%%%%%%%%%%%%%%%%%%%%%%%%%%%%%%%%%%%%%%%%%%%%%%%%%%%%%XXXX%%%%%%%%%%%%XXXX&&&&------------------------&&&&XXXX----%%%%%%%%",
"%%%%%%%%%%%%%%%%%%%%%%%%%%%%%%%%%%%%%%%%%%%%%%%%%%%%%%%%%%%%%%%%XXXX%%%%XXXX&&&&--------------------------------&&&&XXXX----%%%%",
"%%%%%%%%%%%%%%%%%%%%%%%%%%%%%%%%%%%%%%%%%%%%%%%%%%%%%%%%%%%%%%%%XXXX%%%%XXXX&&&&--------------------------------&&&&XXXX----%%%%",
"%%%%%%%%%%%%%%%%%%%%%%%%%%%%%%%%%%%%%%%%%%%%%%%%%%%%%%%%%%%%%%%%XXXX%%%%XXXX&&&&--------------------------------&&&&XXXX----%%%%",
"%%%%%%%%%%%%%%%%%%%%%%%%%%%%%%%%%%%%%%%%%%%%%%%%%%%%%%%%%%%%%%%%XXXX%%%%XXXX&&&&--------------------------------&&&&XXXX----%%%%",
"%%%%%%%%%%%%%%%%%%%%%%%%%%%%%%%%%%%%%%%%%%%%%%%%%%%%%%%%%%%%%%%%XXXXXXXX&&&&----------------------------------------&&&&XXXX----",
"%%%%%%%%%%%%%%%%%%%%%%%%%%%%%%%%%%%%%%%%%%%%%%%%%%%%%%%%%%%%%%%%XXXXXXXX&&&&----------------------------------------&&&&XXXX----",
"%%%%%%%%%%%%%%%%%%%%%%%%%%%%%%%%%%%%%%%%%%%%%%%%%%%%%%%%%%%%%%%%XXXXXXXX&&&&----------------------------------------&&&&XXXX----",
"%%%%%%%%%%%%%%%%%%%%%%%%%%%%%%%%%%%%%%%%%%%%%%%%%%%%%%%%%%%%%%%%XXXXXXXX&&&&----------------------------------------&&&&XXXX----",
"----%%%%%%%%%%%%%%%%%%%%%%%%%%%%%%%%%%%%%%%%%%%%%%%%%%%%%%%%XXXX%%%%%%%%XXXX&&&&----------------------------------------&&&&XXXX",
"----%%%%%%%%%%%%%%%%%%%%%%%%%%%%%%%%%%%%%%%%%%%%%%%%%%%%%%%%XXXX%%%%%%%%XXXX&&&&----------------------------------------&&&&XXXX",
"----%%%%%%%%%%%%%%%%%%%%%%%%%%%%%%%%%%%%%%%%%%%%%%%%%%%%%%%%XXXX%%%%%%%%XXXX&&&&----------------------------------------&&&&XXXX",
"----%%%%%%%%%%%%%%%%%%%%%%%%%%%%%%%%%%%%%%%%%%%%%%%%%%%%%%%%XXXX%%%%%%%%XXXX&&&&----------------------------------------&&&&XXXX"
};
