/* XPM */
static char *_92f5051e47041ada2454db3a74fc933sC1VEtlgTZQkhEQN[] = {
/* columns rows colors chars-per-pixel */
"128 128 3 1 ",
"  c #3B1909",
". c #CF5F28",
"X c #C67E5C",
/* pixels */
"                                                                                                                                ",
"                                                                                                                                ",
"                                                                                                                                ",
"                                                                                                                                ",
"........................        ....................................................        ....................................",
"........................        ....................................................        ....................................",
"........................        ....................................................        ....................................",
"........................        ....................................................        ....................................",
"XXXXXXXX................        ............XXXXXXXX............XXXXXXXX............        ....................XXXXXXXXXXXX....",
"XXXXXXXX................        ............XXXXXXXX............XXXXXXXX............        ....................XXXXXXXXXXXX....",
"XXXXXXXX................        ............XXXXXXXX............XXXXXXXX............        ....................XXXXXXXXXXXX....",
"XXXXXXXX................        ............XXXXXXXX............XXXXXXXX............        ....................XXXXXXXXXXXX....",
"........XXXXXXXX........        ....................................................        ....................................",
"........XXXXXXXX........        ....................................................        ....................................",
"........XXXXXXXX........        ....................................................        ....................................",
"........XXXXXXXX........        ....................................................        ....................................",
"........................        ....................................XXXX............        ............XXXXXXXX................",
"........................        ....................................XXXX............        ............XXXXXXXX................",
"........................        ....................................XXXX............        ............XXXXXXXX................",
"........................        ....................................XXXX............        ............XXXXXXXX................",
"XXXXXXXXXXXXXXXXXXXXXXXX        XXXXXXXXXXXXXXXXXXXXXXXXXXXXXXXX....................        ....................................",
"XXXXXXXXXXXXXXXXXXXXXXXX        XXXXXXXXXXXXXXXXXXXXXXXXXXXXXXXX....................        ....................................",
"XXXXXXXXXXXXXXXXXXXXXXXX        XXXXXXXXXXXXXXXXXXXXXXXXXXXXXXXX....................        ....................................",
"XXXXXXXXXXXXXXXXXXXXXXXX        XXXXXXXXXXXXXXXXXXXXXXXXXXXXXXXX....................        ....................................",
"                                                                XXXXXXXXXXXXXXXXXXXX        XXXXXXXXXXXXXXXXXXXXXXXXXXXXXXXXXXXX",
"                                                                XXXXXXXXXXXXXXXXXXXX        XXXXXXXXXXXXXXXXXXXXXXXXXXXXXXXXXXXX",
"                                                                XXXXXXXXXXXXXXXXXXXX        XXXXXXXXXXXXXXXXXXXXXXXXXXXXXXXXXXXX",
"                                                                XXXXXXXXXXXXXXXXXXXX        XXXXXXXXXXXXXXXXXXXXXXXXXXXXXXXXXXXX",
"                                                                                                                                ",
"                                                                                                                                ",
"                                                                                                                                ",
"                                                                                                                                ",
"    ........................................................                                                                    ",
"    ........................................................                                                                    ",
"    ........................................................                                                                    ",
"    ........................................................                                                                    ",
"    ................XXXXXXXXXXXX............................        ........................................................    ",
"    ................XXXXXXXXXXXX............................        ........................................................    ",
"    ................XXXXXXXXXXXX............................        ........................................................    ",
"    ................XXXXXXXXXXXX............................        ........................................................    ",
"    ............................................XXXX........        ....................XXXXXXXXXXXX........................    ",
"    ............................................XXXX........        ....................XXXXXXXXXXXX........................    ",
"    ............................................XXXX........        ....................XXXXXXXXXXXX........................    ",
"    ............................................XXXX........        ....................XXXXXXXXXXXX........................    ",
"    XXXXXXXXXXXXXXXXXXXXXXXXXXXXXXXXXXXX....................        ............................................XXXXXXXXXXXX    ",
"    XXXXXXXXXXXXXXXXXXXXXXXXXXXXXXXXXXXX....................        ............................................XXXXXXXXXXXX    ",
"    XXXXXXXXXXXXXXXXXXXXXXXXXXXXXXXXXXXX....................        ............................................XXXXXXXXXXXX    ",
"    XXXXXXXXXXXXXXXXXXXXXXXXXXXXXXXXXXXX....................        ............................................XXXXXXXXXXXX    ",
"                                        XXXXXXXXXXXXXXXXXXXX        XXXXXXXXXXXXXXXXXXXXXXXXXXXXXXXXXXXXXXXXXXXX                ",
"                                        XXXXXXXXXXXXXXXXXXXX        XXXXXXXXXXXXXXXXXXXXXXXXXXXXXXXXXXXXXXXXXXXX                ",
"                                        XXXXXXXXXXXXXXXXXXXX        XXXXXXXXXXXXXXXXXXXXXXXXXXXXXXXXXXXXXXXXXXXX                ",
"                                        XXXXXXXXXXXXXXXXXXXX        XXXXXXXXXXXXXXXXXXXXXXXXXXXXXXXXXXXXXXXXXXXX                ",
"                                                                                                                                ",
"                                                                                                                                ",
"                                                                                                                                ",
"                                                                                                                                ",
"....XXXX............................                                                                                ............",
"....XXXX............................                                                                                ............",
"....XXXX............................                                                                                ............",
"....XXXX............................                                                                                ............",
"........XXXX........................        ....................................XXXXXXXX....................        ............",
"........XXXX........................        ....................................XXXXXXXX....................        ............",
"........XXXX........................        ....................................XXXXXXXX....................        ............",
"........XXXX........................        ....................................XXXXXXXX....................        ............",
"XXXX............XXXXXXXX............        ........................................................XXXXXXXX        ....XXXX....",
"XXXX............XXXXXXXX............        ........................................................XXXXXXXX        ....XXXX....",
"XXXX............XXXXXXXX............        ........................................................XXXXXXXX        ....XXXX....",
"XXXX............XXXXXXXX............        ........................................................XXXXXXXX        ....XXXX....",
"....XXXX............................        ........XXXX....................................................        ............",
"....XXXX............................        ........XXXX....................................................        ............",
"....XXXX............................        ........XXXX....................................................        ............",
"....XXXX............................        ........XXXX....................................................        ............",
"XXXXXXXXXXXXXXXXXXXXXXXXXXXXXXXXXXXX        XXXXXXXXXXXXXXXXXXXXXXXXXXXXXXXXXXXXXXXXXXXXXXXXXXXXXXXXXXXXXXXX        XXXXXXXXXXXX",
"XXXXXXXXXXXXXXXXXXXXXXXXXXXXXXXXXXXX        XXXXXXXXXXXXXXXXXXXXXXXXXXXXXXXXXXXXXXXXXXXXXXXXXXXXXXXXXXXXXXXX        XXXXXXXXXXXX",
"XXXXXXXXXXXXXXXXXXXXXXXXXXXXXXXXXXXX        XXXXXXXXXXXXXXXXXXXXXXXXXXXXXXXXXXXXXXXXXXXXXXXXXXXXXXXXXXXXXXXX        XXXXXXXXXXXX",
"XXXXXXXXXXXXXXXXXXXXXXXXXXXXXXXXXXXX        XXXXXXXXXXXXXXXXXXXXXXXXXXXXXXXXXXXXXXXXXXXXXXXXXXXXXXXXXXXXXXXX        XXXXXXXXXXXX",
"                                                                                                                                ",
"                                                                                                                                ",
"                                                                                                                                ",
"                                                                                                                                ",
"                                                                                                                                ",
"                                                                                                                                ",
"                                                                                                                                ",
"                                                                                                                                ",
"    ........................................................        ....XXXX................................................    ",
"    ........................................................        ....XXXX................................................    ",
"    ........................................................        ....XXXX................................................    ",
"    ........................................................        ....XXXX................................................    ",
"    ............XXXXXXXXXXXX............XXXX................        ........................................................    ",
"    ............XXXXXXXXXXXX............XXXX................        ........................................................    ",
"    ............XXXXXXXXXXXX............XXXX................        ........................................................    ",
"    ............XXXXXXXXXXXX............XXXX................        ........................................................    ",
"    ........................................................        XXXXXXXXXXXXXXXXXXXXXXXXXXXXXXXXXXXXXXXXXXXXXXXXXXXXXXXX    ",
"    ........................................................        XXXXXXXXXXXXXXXXXXXXXXXXXXXXXXXXXXXXXXXXXXXXXXXXXXXXXXXX    ",
"    ........................................................        XXXXXXXXXXXXXXXXXXXXXXXXXXXXXXXXXXXXXXXXXXXXXXXXXXXXXXXX    ",
"    ........................................................        XXXXXXXXXXXXXXXXXXXXXXXXXXXXXXXXXXXXXXXXXXXXXXXXXXXXXXXX    ",
"    XXXXXXXXXXXXXXXXXXXXXXXXXXXXXXXXXXXXXXXXXXXXXXXXXXXXXXXX                                                                    ",
"    XXXXXXXXXXXXXXXXXXXXXXXXXXXXXXXXXXXXXXXXXXXXXXXXXXXXXXXX                                                                    ",
"    XXXXXXXXXXXXXXXXXXXXXXXXXXXXXXXXXXXXXXXXXXXXXXXXXXXXXXXX                                                                    ",
"    XXXXXXXXXXXXXXXXXXXXXXXXXXXXXXXXXXXXXXXXXXXXXXXXXXXXXXXX                                                                    ",
"                                                                                                                                ",
"                                                                                                                                ",
"                                                                                                                                ",
"                                                                                                                                ",
"                                                                ................................................                ",
"                                                                ................................................                ",
"                                                                ................................................                ",
"                                                                ................................................                ",
"........................        ....................................XXXXXXXXXXXX................................        ........",
"........................        ....................................XXXXXXXXXXXX................................        ........",
"........................        ....................................XXXXXXXXXXXX................................        ........",
"........................        ....................................XXXXXXXXXXXX................................        ........",
"....XXXXXXXX............        ............XXXXXXXX........XXXX............................XXXXXXXXXXXX........        ........",
"....XXXXXXXX............        ............XXXXXXXX........XXXX............................XXXXXXXXXXXX........        ........",
"....XXXXXXXX............        ............XXXXXXXX........XXXX............................XXXXXXXXXXXX........        ........",
"....XXXXXXXX............        ............XXXXXXXX........XXXX............................XXXXXXXXXXXX........        ........",
"........................        ................................................................................        ........",
"........................        ................................................................................        ........",
"........................        ................................................................................        ........",
"........................        ................................................................................        ........",
"XXXXXXXXXXXXXXXXXXXXXXXX        XXXXXXXXXXXXXXXXXXXXXXXXXXXXXXXXXXXXXXXXXXXXXXXXXXXXXXXXXXXXXXXXXXXXXXXXXXXXXXXX        XXXXXXXX",
"XXXXXXXXXXXXXXXXXXXXXXXX        XXXXXXXXXXXXXXXXXXXXXXXXXXXXXXXXXXXXXXXXXXXXXXXXXXXXXXXXXXXXXXXXXXXXXXXXXXXXXXXX        XXXXXXXX",
"XXXXXXXXXXXXXXXXXXXXXXXX        XXXXXXXXXXXXXXXXXXXXXXXXXXXXXXXXXXXXXXXXXXXXXXXXXXXXXXXXXXXXXXXXXXXXXXXXXXXXXXXX        XXXXXXXX",
"XXXXXXXXXXXXXXXXXXXXXXXX        XXXXXXXXXXXXXXXXXXXXXXXXXXXXXXXXXXXXXXXXXXXXXXXXXXXXXXXXXXXXXXXXXXXXXXXXXXXXXXXX        XXXXXXXX",
"                                                                                                                                ",
"                                                                                                                                ",
"                                                                                                                                ",
"                                                                                                                                "
};
