/* XPM */
static char *ed269dab180f45b3cb574574d9aa1fd7LpyKCCs8dAggoPYM[] = {
/* columns rows colors chars-per-pixel */
"128 128 6 1 ",
"  c None",
". c black",
"X c #1A28AF",
"o c #3945B5",
"O c #777884",
"+ c #A0A1AF",
/* pixels */
"                                                                                                                                ",
"                                                                                                                                ",
"                                                                                                                                ",
"                                                                                                                                ",
"                                                                                                                                ",
"                                                                                                                                ",
"                                                                                                                                ",
"                                                                                                                                ",
"                                                    ........................                                                    ",
"                                                    ........................                                                    ",
"                                                    ........................                                                    ",
"                                                    ........................                                                    ",
"                                                ................................                                                ",
"                                                ................................                                                ",
"                                                ................................                                                ",
"                                                ................................                                                ",
"                                            ........................................                                            ",
"                                            ........................................                                            ",
"                                            ........................................                                            ",
"                                            ........................................                                            ",
"                                            ........................................                                            ",
"                                            ........................................                                            ",
"                                            ........................................                                            ",
"                                            ........................................                                            ",
"                                            ....++++........................++++....                                            ",
"                                            ....++++........................++++....                                            ",
"                                            ....++++........................++++....                                            ",
"                                            ....++++........................++++....                                            ",
"                                            ....++++++++++++++++++++++++++++++++....                                            ",
"                                            ....++++++++++++++++++++++++++++++++....                                            ",
"                                            ....++++++++++++++++++++++++++++++++....                                            ",
"                                            ....++++++++++++++++++++++++++++++++....                                            ",
"                                            ....++++++++++++++++++++++++++++++++....                                            ",
"                                            ....++++++++++++++++++++++++++++++++....                                            ",
"                                            ....++++++++++++++++++++++++++++++++....                                            ",
"                                            ....++++++++++++++++++++++++++++++++....                                            ",
"                                            ....++++++++++++++++++++++++++++++++....                                            ",
"                                            ....++++++++++++++++++++++++++++++++....                                            ",
"                                            ....++++++++++++++++++++++++++++++++....                                            ",
"                                            ....++++++++++++++++++++++++++++++++....                                            ",
"                                            ....++++++++++++++++++++++++++++++++....                                            ",
"                                            ....++++++++++++++++++++++++++++++++....                                            ",
"                                            ....++++++++++++++++++++++++++++++++....                                            ",
"                                            ....++++++++++++++++++++++++++++++++....                                            ",
"                                            ....++++++++++++++++++++++++++++++++....                                            ",
"                                            ....++++++++++++++++++++++++++++++++....                                            ",
"                                            ....++++++++++++++++++++++++++++++++....                                            ",
"                                            ....++++++++++++++++++++++++++++++++....                                            ",
"                                            ....++++++++++++++++++++++++++++++++....                                            ",
"                                            ....++++++++++++++++++++++++++++++++....                                            ",
"                                            ....++++++++++++++++++++++++++++++++....                                            ",
"                                            ....++++++++++++++++++++++++++++++++....                                            ",
"                                            ....++++++++++++++++++++++++++++++++....                                            ",
"                                            ....++++++++++++++++++++++++++++++++....                                            ",
"                                            ....++++++++++++++++++++++++++++++++....                                            ",
"                                            ....++++++++++++++++++++++++++++++++....                                            ",
"                            ....................++++++++++++++++++++++++++++++++....................                            ",
"                            ....................++++++++++++++++++++++++++++++++....................                            ",
"                            ....................++++++++++++++++++++++++++++++++....................                            ",
"                            ....................++++++++++++++++++++++++++++++++....................                            ",
"                    ........++++++++++++++++++++OOOO++++++++++++++++++++++++OOOO++++++++++++++++++++........                    ",
"                    ........++++++++++++++++++++OOOO++++++++++++++++++++++++OOOO++++++++++++++++++++........                    ",
"                    ........++++++++++++++++++++OOOO++++++++++++++++++++++++OOOO++++++++++++++++++++........                    ",
"                    ........++++++++++++++++++++OOOO++++++++++++++++++++++++OOOO++++++++++++++++++++........                    ",
"                ....++++++++++++++++++++++++++++++++OOOOOOOOOOOOOOOOOOOOOOOO++++++++++++++++++++++++++++++++....                ",
"                ....++++++++++++++++++++++++++++++++OOOOOOOOOOOOOOOOOOOOOOOO++++++++++++++++++++++++++++++++....                ",
"                ....++++++++++++++++++++++++++++++++OOOOOOOOOOOOOOOOOOOOOOOO++++++++++++++++++++++++++++++++....                ",
"                ....++++++++++++++++++++++++++++++++OOOOOOOOOOOOOOOOOOOOOOOO++++++++++++++++++++++++++++++++....                ",
"            ....++++++++++++++++................................................................++++++++++++++++....            ",
"            ....++++++++++++++++................................................................++++++++++++++++....            ",
"            ....++++++++++++++++................................................................++++++++++++++++....            ",
"            ....++++++++++++++++................................................................++++++++++++++++....            ",
"        ....++++................oooooooooooooooooooooooooooooooooooooooooooooooooooooooooooooooo................++++....        ",
"        ....++++................oooooooooooooooooooooooooooooooooooooooooooooooooooooooooooooooo................++++....        ",
"        ....++++................oooooooooooooooooooooooooooooooooooooooooooooooooooooooooooooooo................++++....        ",
"        ....++++................oooooooooooooooooooooooooooooooooooooooooooooooooooooooooooooooo................++++....        ",
"    ............oooooooooooooooooooooooooooooooooooooooooooooooooooooooooooooooooooooooooooooooooooooooooooooooo............    ",
"    ............oooooooooooooooooooooooooooooooooooooooooooooooooooooooooooooooooooooooooooooooooooooooooooooooo............    ",
"    ............oooooooooooooooooooooooooooooooooooooooooooooooooooooooooooooooooooooooooooooooooooooooooooooooo............    ",
"    ............oooooooooooooooooooooooooooooooooooooooooooooooooooooooooooooooooooooooooooooooooooooooooooooooo............    ",
"....XXXX............oooooooooooooooooooooooooooooooooooooooooooooooooooooooooooooooooooooooooooooooooooooooooooo........XXXX....",
"....XXXX............oooooooooooooooooooooooooooooooooooooooooooooooooooooooooooooooooooooooooooooooooooooooooooo........XXXX....",
"....XXXX............oooooooooooooooooooooooooooooooooooooooooooooooooooooooooooooooooooooooooooooooooooooooooooo........XXXX....",
"....XXXX............oooooooooooooooooooooooooooooooooooooooooooooooooooooooooooooooooooooooooooooooooooooooooooo........XXXX....",
"....XXXXXXXXXXXXXXXX....................oooooooooooooooooooooooooooooooooooooooooooooooooooooooo................XXXXXXXXXXXX....",
"....XXXXXXXXXXXXXXXX....................oooooooooooooooooooooooooooooooooooooooooooooooooooooooo................XXXXXXXXXXXX....",
"....XXXXXXXXXXXXXXXX....................oooooooooooooooooooooooooooooooooooooooooooooooooooooooo................XXXXXXXXXXXX....",
"....XXXXXXXXXXXXXXXX....................oooooooooooooooooooooooooooooooooooooooooooooooooooooooo................XXXXXXXXXXXX....",
"....XXXXXXXXXXXXXXXXXXXXXXXXXXXXXXXXXXXX........................................................XXXXXXXXXXXXXXXXXXXXXXXXXXXX....",
"....XXXXXXXXXXXXXXXXXXXXXXXXXXXXXXXXXXXX........................................................XXXXXXXXXXXXXXXXXXXXXXXXXXXX....",
"....XXXXXXXXXXXXXXXXXXXXXXXXXXXXXXXXXXXX........................................................XXXXXXXXXXXXXXXXXXXXXXXXXXXX....",
"....XXXXXXXXXXXXXXXXXXXXXXXXXXXXXXXXXXXX........................................................XXXXXXXXXXXXXXXXXXXXXXXXXXXX....",
"....XXXXXXXXXXXXXXXXXXXXXXXXXXXXXXXXXXXXXXXXXXXXXXXXXXXXXXXXXXXXXXXXXXXXXXXXXXXXXXXXXXXXXXXXXXXXXXXXXXXXXXXXXXXXXXXXXXXXXXXX....",
"....XXXXXXXXXXXXXXXXXXXXXXXXXXXXXXXXXXXXXXXXXXXXXXXXXXXXXXXXXXXXXXXXXXXXXXXXXXXXXXXXXXXXXXXXXXXXXXXXXXXXXXXXXXXXXXXXXXXXXXXX....",
"....XXXXXXXXXXXXXXXXXXXXXXXXXXXXXXXXXXXXXXXXXXXXXXXXXXXXXXXXXXXXXXXXXXXXXXXXXXXXXXXXXXXXXXXXXXXXXXXXXXXXXXXXXXXXXXXXXXXXXXXX....",
"....XXXXXXXXXXXXXXXXXXXXXXXXXXXXXXXXXXXXXXXXXXXXXXXXXXXXXXXXXXXXXXXXXXXXXXXXXXXXXXXXXXXXXXXXXXXXXXXXXXXXXXXXXXXXXXXXXXXXXXXX....",
"....XXXXXXXXXXXXXXXXXXXXXXXXXXXXXXXXXXXXXXXXXXXXXXXXXXXXXXXXXXXXXXXXXXXXXXXXXXXXXXXXXXXXXXXXXXXXXXXXXXXXXXXXXXXXXXXXXXXXXXXX....",
"....XXXXXXXXXXXXXXXXXXXXXXXXXXXXXXXXXXXXXXXXXXXXXXXXXXXXXXXXXXXXXXXXXXXXXXXXXXXXXXXXXXXXXXXXXXXXXXXXXXXXXXXXXXXXXXXXXXXXXXXX....",
"....XXXXXXXXXXXXXXXXXXXXXXXXXXXXXXXXXXXXXXXXXXXXXXXXXXXXXXXXXXXXXXXXXXXXXXXXXXXXXXXXXXXXXXXXXXXXXXXXXXXXXXXXXXXXXXXXXXXXXXXX....",
"....XXXXXXXXXXXXXXXXXXXXXXXXXXXXXXXXXXXXXXXXXXXXXXXXXXXXXXXXXXXXXXXXXXXXXXXXXXXXXXXXXXXXXXXXXXXXXXXXXXXXXXXXXXXXXXXXXXXXXXXX....",
"    ....XXXXXXXXXXXXXXXXXXXXXXXXXXXXXXXXXXXXXXXXXXXXXXXXXXXXXXXXXXXXXXXXXXXXXXXXXXXXXXXXXXXXXXXXXXXXXXXXXXXXXXXXXXXXXXXX....    ",
"    ....XXXXXXXXXXXXXXXXXXXXXXXXXXXXXXXXXXXXXXXXXXXXXXXXXXXXXXXXXXXXXXXXXXXXXXXXXXXXXXXXXXXXXXXXXXXXXXXXXXXXXXXXXXXXXXXX....    ",
"    ....XXXXXXXXXXXXXXXXXXXXXXXXXXXXXXXXXXXXXXXXXXXXXXXXXXXXXXXXXXXXXXXXXXXXXXXXXXXXXXXXXXXXXXXXXXXXXXXXXXXXXXXXXXXXXXXX....    ",
"    ....XXXXXXXXXXXXXXXXXXXXXXXXXXXXXXXXXXXXXXXXXXXXXXXXXXXXXXXXXXXXXXXXXXXXXXXXXXXXXXXXXXXXXXXXXXXXXXXXXXXXXXXXXXXXXXXX....    ",
"        ....XXXXXXXXXXXXXXXXXXXXXXXXXXXXXXXXXXXXXXXXXXXXXXXXXXXXXXXXXXXXXXXXXXXXXXXXXXXXXXXXXXXXXXXXXXXXXXXXXXXXXXXX....        ",
"        ....XXXXXXXXXXXXXXXXXXXXXXXXXXXXXXXXXXXXXXXXXXXXXXXXXXXXXXXXXXXXXXXXXXXXXXXXXXXXXXXXXXXXXXXXXXXXXXXXXXXXXXXX....        ",
"        ....XXXXXXXXXXXXXXXXXXXXXXXXXXXXXXXXXXXXXXXXXXXXXXXXXXXXXXXXXXXXXXXXXXXXXXXXXXXXXXXXXXXXXXXXXXXXXXXXXXXXXXXX....        ",
"        ....XXXXXXXXXXXXXXXXXXXXXXXXXXXXXXXXXXXXXXXXXXXXXXXXXXXXXXXXXXXXXXXXXXXXXXXXXXXXXXXXXXXXXXXXXXXXXXXXXXXXXXXX....        ",
"            ....XXXXXXXXXXXXXXXXXXXXXXXXXXXXXXXXXXXXXXXXXXXXXXXXXXXXXXXXXXXXXXXXXXXXXXXXXXXXXXXXXXXXXXXXXXXXXXXX....            ",
"            ....XXXXXXXXXXXXXXXXXXXXXXXXXXXXXXXXXXXXXXXXXXXXXXXXXXXXXXXXXXXXXXXXXXXXXXXXXXXXXXXXXXXXXXXXXXXXXXXX....            ",
"            ....XXXXXXXXXXXXXXXXXXXXXXXXXXXXXXXXXXXXXXXXXXXXXXXXXXXXXXXXXXXXXXXXXXXXXXXXXXXXXXXXXXXXXXXXXXXXXXXX....            ",
"            ....XXXXXXXXXXXXXXXXXXXXXXXXXXXXXXXXXXXXXXXXXXXXXXXXXXXXXXXXXXXXXXXXXXXXXXXXXXXXXXXXXXXXXXXXXXXXXXXX....            ",
"                ....XXXXXXXXXXXXXXXXXXXXXXXXXXXXXXXXXXXXXXXXXXXXXXXXXXXXXXXXXXXXXXXXXXXXXXXXXXXXXXXXXXXXXXXX....                ",
"                ....XXXXXXXXXXXXXXXXXXXXXXXXXXXXXXXXXXXXXXXXXXXXXXXXXXXXXXXXXXXXXXXXXXXXXXXXXXXXXXXXXXXXXXXX....                ",
"                ....XXXXXXXXXXXXXXXXXXXXXXXXXXXXXXXXXXXXXXXXXXXXXXXXXXXXXXXXXXXXXXXXXXXXXXXXXXXXXXXXXXXXXXXX....                ",
"                ....XXXXXXXXXXXXXXXXXXXXXXXXXXXXXXXXXXXXXXXXXXXXXXXXXXXXXXXXXXXXXXXXXXXXXXXXXXXXXXXXXXXXXXXX....                ",
"                    ........XXXXXXXXXXXXXXXXXXXXXXXXXXXXXXXXXXXXXXXXXXXXXXXXXXXXXXXXXXXXXXXXXXXXXXXX........                    ",
"                    ........XXXXXXXXXXXXXXXXXXXXXXXXXXXXXXXXXXXXXXXXXXXXXXXXXXXXXXXXXXXXXXXXXXXXXXXX........                    ",
"                    ........XXXXXXXXXXXXXXXXXXXXXXXXXXXXXXXXXXXXXXXXXXXXXXXXXXXXXXXXXXXXXXXXXXXXXXXX........                    ",
"                    ........XXXXXXXXXXXXXXXXXXXXXXXXXXXXXXXXXXXXXXXXXXXXXXXXXXXXXXXXXXXXXXXXXXXXXXXX........                    ",
"                            ................XXXXXXXXXXXXXXXXXXXXXXXXXXXXXXXXXXXXXXXX................                            ",
"                            ................XXXXXXXXXXXXXXXXXXXXXXXXXXXXXXXXXXXXXXXX................                            ",
"                            ................XXXXXXXXXXXXXXXXXXXXXXXXXXXXXXXXXXXXXXXX................                            ",
"                            ................XXXXXXXXXXXXXXXXXXXXXXXXXXXXXXXXXXXXXXXX................                            ",
"                                            ........................................                                            ",
"                                            ........................................                                            ",
"                                            ........................................                                            ",
"                                            ........................................                                            "
};
