/* XPM */
static char *_d28537b615f49e0eee71eff13da962a1SfOz4OwzeauuBbo[] = {
/* columns rows colors chars-per-pixel */
"128 128 2 1 ",
"  c black",
". c #CB1C1C",
/* pixels */
"                                                                                                                                ",
"                                                                                                                                ",
"                                                                                                                                ",
"                                                                                                                                ",
"    ........................................................................................................................    ",
"    ........................................................................................................................    ",
"    ........................................................................................................................    ",
"    ........................................................................................................................    ",
"    ........................................................................................................................    ",
"    ........................................................................................................................    ",
"    ........................................................................................................................    ",
"    ........................................................................................................................    ",
"    ........................................................................................................................    ",
"    ........................................................................................................................    ",
"    ........................................................................................................................    ",
"    ........................................................................................................................    ",
"    ................................................................................                                ........    ",
"    ................................................................................                                ........    ",
"    ................................................................................                                ........    ",
"    ................................................................................                                ........    ",
"    ................................................................................                                ........    ",
"    ................................................................................                                ........    ",
"    ................................................................................                                ........    ",
"    ................................................................................                                ........    ",
"    ................................................................................                                ........    ",
"    ................................................................................                                ........    ",
"    ................................................................................                                ........    ",
"    ................................................................................                                ........    ",
"    ....................................................................            ............            ................    ",
"    ....................................................................            ............            ................    ",
"    ....................................................................            ............            ................    ",
"    ....................................................................            ............            ................    ",
"    ....................................................................            ............            ................    ",
"    ....................................................................            ............            ................    ",
"    ....................................................................            ............            ................    ",
"    ....................................................................            ............            ................    ",
"    ....................................................................            ............            ................    ",
"    ....................................................................            ............            ................    ",
"    ....................................................................            ............            ................    ",
"    ....................................................................            ............            ................    ",
"    ............................................................................................            ................    ",
"    ............................................................................................            ................    ",
"    ............................................................................................            ................    ",
"    ............................................................................................            ................    ",
"    ............................................................................................            ................    ",
"    ............................................................................................            ................    ",
"    ............................................................................................            ................    ",
"    ............................................................................................            ................    ",
"    ............................................................................................            ................    ",
"    ............................................................................................            ................    ",
"    ............................................................................................            ................    ",
"    ............................................................................................            ................    ",
"    ............................................................................................            ................    ",
"    ............................................................................................            ................    ",
"    ............................................................................................            ................    ",
"    ............................................................................................            ................    ",
"    ............................................................................................            ................    ",
"    ............................................................................................            ................    ",
"    ............................................................................................            ................    ",
"    ............................................................................................            ................    ",
"    ............................................................................................            ................    ",
"    ............................................................................................            ................    ",
"    ............................................................................................            ................    ",
"    ............................................................................................            ................    ",
"    ............................................................................................            ................    ",
"    ............................................................................................            ................    ",
"    ............................................................................................            ................    ",
"    ............................................................................................            ................    ",
"    ............................................................................................            ................    ",
"    ............................................................................................            ................    ",
"    ............................................................................................            ................    ",
"    ............................................................................................            ................    ",
"    ............................................................................................            ................    ",
"    ............................................................................................            ................    ",
"    ............................................................................................            ................    ",
"    ............................................................................................            ................    ",
"    ............................................................................................            ................    ",
"    ............................................................................................            ................    ",
"    ............................................................................................            ................    ",
"    ............................................................................................            ................    ",
"    ............................................................................................            ................    ",
"    ............................................................................................            ................    ",
"    ............................................................................................            ................    ",
"    ............................................................................................            ................    ",
"    ............................................................................................            ................    ",
"    ............................................................................................            ................    ",
"    ............................................................................................            ................    ",
"    ............................................................................................            ................    ",
"    ............................................................................................            ................    ",
"    ............................................................................................            ................    ",
"    ............................................................................................            ................    ",
"    ............................................................................................            ................    ",
"    ............................................................................................            ................    ",
"    ............................................................................................            ................    ",
"    ............................................................................................            ................    ",
"    ............................................................................................            ................    ",
"    ....................................................................            ............            ................    ",
"    ....................................................................            ............            ................    ",
"    ....................................................................            ............            ................    ",
"    ....................................................................            ............            ................    ",
"    ....................................................................            ........................................    ",
"    ....................................................................            ........................................    ",
"    ....................................................................            ........................................    ",
"    ....................................................................            ........................................    ",
"    ....................................................................                    ................................    ",
"    ....................................................................                    ................................    ",
"    ....................................................................                    ................................    ",
"    ....................................................................                    ................................    ",
"    ............................................................................                            ................    ",
"    ............................................................................                            ................    ",
"    ............................................................................                            ................    ",
"    ............................................................................                            ................    ",
"    ............................................................................                            ................    ",
"    ............................................................................                            ................    ",
"    ............................................................................                            ................    ",
"    ............................................................................                            ................    ",
"    ................................................................................                        ................    ",
"    ................................................................................                        ................    ",
"    ................................................................................                        ................    ",
"    ................................................................................                        ................    ",
"    ........................................................................................................................    ",
"    ........................................................................................................................    ",
"    ........................................................................................................................    ",
"    ........................................................................................................................    ",
"                                                                                                                                ",
"                                                                                                                                ",
"                                                                                                                                ",
"                                                                                                                                "
};
