/* XPM */
static char *_78a4dc616904da7dd4cc30fcbfbdd1eRHjIfgVfVMl7HlEB[] = {
/* columns rows colors chars-per-pixel */
"128 128 2 1 ",
"  c black",
". c #2ADC1A",
/* pixels */
"                                                                                                                                ",
"                                                                                                                                ",
"                                                                                                                                ",
"                                                                                                                                ",
"    ........................................................................................................................    ",
"    ........................................................................................................................    ",
"    ........................................................................................................................    ",
"    ........................................................................................................................    ",
"    ........................................................................................................................    ",
"    ........................................................................................................................    ",
"    ........................................................................................................................    ",
"    ........................................................................................................................    ",
"    ........................................................................................................................    ",
"    ........................................................................................................................    ",
"    ........................................................................................................................    ",
"    ........................................................................................................................    ",
"    ........................................................................................................................    ",
"    ........................................................................................................................    ",
"    ........................................................................................................................    ",
"    ........................................................................................................................    ",
"    ........................................................................................................................    ",
"    ........................................................................................................................    ",
"    ........................................................................................................................    ",
"    ........................................................................................................................    ",
"    ........................................................................................................................    ",
"    ........................................................................................................................    ",
"    ........................................................................................................................    ",
"    ........................................................................................................................    ",
"    ........................................................................................................................    ",
"    ........................................................................................................................    ",
"    ........................................................................................................................    ",
"    ........................................................................................................................    ",
"    ........................................................................................................................    ",
"    ........................................................................................................................    ",
"    ........................................................................................................................    ",
"    ........................................................................................................................    ",
"    ........................................................................................................................    ",
"    ........................................................................................................................    ",
"    ........................................................................................................................    ",
"    ........................................................................................................................    ",
"    ........................................................................................................................    ",
"    ........................................................................................................................    ",
"    ........................................................................................................................    ",
"    ........................................................................................................................    ",
"    ........................................................................................................................    ",
"    ........................................................................................................................    ",
"    ........................................................................................................................    ",
"    ........................................................................................................................    ",
"    ........................................................................................................................    ",
"    ........................................................................................................................    ",
"    ........................................................................................................................    ",
"    ........................................................................................................................    ",
"    ........................................................................................................................    ",
"    ........................................................................................................................    ",
"    ........................................................................................................................    ",
"    ........................................................................................................................    ",
"    ........................................................................................................................    ",
"    ........................................................................................................................    ",
"    ........................................................................................................................    ",
"    ........................................................................................................................    ",
"    ........................................................................................................................    ",
"    ........................................................................................................................    ",
"    ........................................................................................................................    ",
"    ........................................................................................................................    ",
"    ........................................................................................................................    ",
"    ........................................................................................................................    ",
"    ........................................................................................................................    ",
"    ........................................................................................................................    ",
"    ........................................................................................................................    ",
"    ........................................................................................................................    ",
"    ........................................................................................................................    ",
"    ........................................................................................................................    ",
"    ........................................................................................................................    ",
"    ........................................................................................................................    ",
"    ........................................................................................................................    ",
"    ........................................................................................................................    ",
"    ........................................................................................................................    ",
"    ........................................................................................................................    ",
"    ........................................................................................................................    ",
"    ........................................................................................................................    ",
"    ........................................................................................................................    ",
"    ........................................................................................................................    ",
"    ........................................................................................................................    ",
"    ........................................................................................................................    ",
"    ........................................................................................................................    ",
"    ........................................................................................................................    ",
"    ........................................................................................................................    ",
"    ........................................................................................................................    ",
"    ........................................................................................................................    ",
"    ........................................................................................................................    ",
"    ........................................................................................................................    ",
"    ........................................................................................................................    ",
"    ........................................................................................................................    ",
"    ........................................................................................................................    ",
"    ........................................................................................................................    ",
"    ........................................................................................................................    ",
"    ........................................................................................................................    ",
"    ........................................................................................................................    ",
"    ........................................................................................................................    ",
"    ........................................................................................................................    ",
"    ........................................................................................................................    ",
"    ........................................................................................................................    ",
"    ........................................................................................................................    ",
"    ........................................................................................................................    ",
"    ........................................................................................................................    ",
"    ........................................................................................................................    ",
"    ........................................................................................................................    ",
"    ........................................................................................................................    ",
"    ........................................................................................................................    ",
"    ........................................................................................................................    ",
"    ........................................................................................................................    ",
"    ........................................................................................................................    ",
"    ........................................................................................................................    ",
"    ........................................................................................................................    ",
"    ........................................................................................................................    ",
"    ........................................................................................................................    ",
"    ........................................................................................................................    ",
"    ........................................................................................................................    ",
"    ........................................................................................................................    ",
"    ........................................................................................................................    ",
"    ........................................................................................................................    ",
"    ........................................................................................................................    ",
"    ........................................................................................................................    ",
"    ........................................................................................................................    ",
"                                                                                                                                ",
"                                                                                                                                ",
"                                                                                                                                ",
"                                                                                                                                "
};
