/* XPM */
static char *_5cf1763f4c7444aac608d698b495c87Ey7UzbV6QyMuyOeP[] = {
/* columns rows colors chars-per-pixel */
"128 128 2 1 ",
"  c black",
". c white",
/* pixels */
"                                                                                                                                ",
"                                                                                                                                ",
"                                                                                                                                ",
"                                                                                                                                ",
"    ........................................................................................................................    ",
"    ........................................................................................................................    ",
"    ........................................................................................................................    ",
"    ........................................................................................................................    ",
"    ........................................................................................................................    ",
"    ........................................................................................................................    ",
"    ........................................................................................................................    ",
"    ........................................................................................................................    ",
"    ........................................................................................................................    ",
"    ........................................................................................................................    ",
"    ........................................................................................................................    ",
"    ........................................................................................................................    ",
"    ........................................................................................................................    ",
"    ........................................................................................................................    ",
"    ........................................................................................................................    ",
"    ........................................................................................................................    ",
"    ........................................................................................................................    ",
"    ........................................................................................................................    ",
"    ........................................................................................................................    ",
"    ........................................................................................................................    ",
"    ........................................................................................................................    ",
"    ........................................................................................................................    ",
"    ........................................................................................................................    ",
"    ........................................................................................................................    ",
"    ........................................................................................................................    ",
"    ........................................................................................................................    ",
"    ........................................................................................................................    ",
"    ........................................................................................................................    ",
"    ........................................................................................................................    ",
"    ........................................................................................................................    ",
"    ........................................................................................................................    ",
"    ........................................................................................................................    ",
"    ........................................................................................................................    ",
"    ........................................................................................................................    ",
"    ........................................................................................................................    ",
"    ........................................................................................................................    ",
"    ........................................................................................................................    ",
"    ........................................................................................................................    ",
"    ........................................................................................................................    ",
"    ........................................................................................................................    ",
"    ........................................................................................................................    ",
"    ........................................................................................................................    ",
"    ........................................................................................................................    ",
"    ........................................................................................................................    ",
"    ........................................................................................................................    ",
"    ........................................................................................................................    ",
"    ........................................................................................................................    ",
"    ........................................................................................................................    ",
"    ........................................................................................................................    ",
"    ........................................................................................................................    ",
"    ........................................................................................................................    ",
"    ........................................................................................................................    ",
"    ........................................................................................................................    ",
"    ........................................................................................................................    ",
"    ........................................................................................................................    ",
"    ........................................................................................................................    ",
"    ........................................................................................................................    ",
"    ........................................................................................................................    ",
"    ........................................................................................................................    ",
"    ........................................................................................................................    ",
"    ........................................................................................................................    ",
"    ........................................................................................................................    ",
"    ........................................................................................................................    ",
"    ........................................................................................................................    ",
"    ........................................................................................................................    ",
"    ........................................................................................................................    ",
"    ........................................................................................................................    ",
"    ........................................................................................................................    ",
"    ........................................................................................................................    ",
"    ........................................................................................................................    ",
"    ........................................................................................................................    ",
"    ........................................................................................................................    ",
"    ........................................................................................................................    ",
"    ........................................................................................................................    ",
"    ........................................................................................................................    ",
"    ........................................................................................................................    ",
"    ........................................................................................................................    ",
"    ........................................................................................................................    ",
"    ........................................................................................................................    ",
"    ........................................................................................................................    ",
"    ........................................................................................................................    ",
"    ........................................................................................................................    ",
"    ........................................................................................................................    ",
"    ........................................................................................................................    ",
"    ........................................................................................................................    ",
"    ........................................................................................................................    ",
"    ........................................................................................................................    ",
"    ........................................................................................................................    ",
"    ........................................................................................................................    ",
"    ........................................................................................................................    ",
"    ........................................................................................................................    ",
"    ........................................................................................................................    ",
"    ........................................................................................................................    ",
"    ........................................................................................................................    ",
"    ........................................................................................................................    ",
"    ........................................................................................................................    ",
"    ........................................................................................................................    ",
"    ........................................................................................................................    ",
"    ........................................................................................................................    ",
"    ........................................................................................................................    ",
"    ........................................................................................................................    ",
"    ........................................................................................................................    ",
"    ........................................................................................................................    ",
"    ........................................................................................................................    ",
"    ........................................................................................................................    ",
"    ........................................................................................................................    ",
"    ........................................................................................................................    ",
"    ........................................................................................................................    ",
"    ........................................................................................................................    ",
"    ........................................................................................................................    ",
"    ........................................................................................................................    ",
"    ........................................................................................................................    ",
"    ........................................................................................................................    ",
"    ........................................................................................................................    ",
"    ........................................................................................................................    ",
"    ........................................................................................................................    ",
"    ........................................................................................................................    ",
"    ........................................................................................................................    ",
"    ........................................................................................................................    ",
"    ........................................................................................................................    ",
"                                                                                                                                ",
"                                                                                                                                ",
"                                                                                                                                ",
"                                                                                                                                "
};
